SplineFontDB: 3.2
FontName: BertiogaSans-Black
FullName: Bertioga Sans Black
FamilyName: Bertioga Sans Black
Weight: Black
Copyright: Copyright 2020 The Arimo Project Authors (https://github.com/googlefonts/arimo)\nCopyright 2020 The Libra Sans Project Authors (https://github.com/stefanpeev/libra-sans)\nCopyright 2024 The Bertioga Sans Project Authors (https://github.com/cssobral2013/bertioga-sans)
UComments: "2024-2-22: Created with FontForge (http://fontforge.org)"
Version: 3.004
ItalicAngle: 0
UnderlinePosition: -100
UnderlineWidth: 50
Ascent: 1638
Descent: 410
InvalidEm: 0
LayerCount: 2
Layer: 0 1 "Back" 1
Layer: 1 1 "Fore" 0
XUID: [1021 531 -1996577725 9944995]
StyleMap: 0x0040
FSType: 0
OS2Version: 4
OS2_WeightWidthSlopeOnly: 0
OS2_UseTypoMetrics: 1
CreationTime: 1708636143
ModificationTime: 1708640864
PfmFamily: 17
TTFWeight: 900
TTFWidth: 5
LineGap: 67
VLineGap: 0
Panose: 2 11 10 4 2 2 2 2 2 4
OS2TypoAscent: 1854
OS2TypoAOffset: 0
OS2TypoDescent: -434
OS2TypoDOffset: 0
OS2TypoLinegap: 67
OS2WinAscent: 2136
OS2WinAOffset: 0
OS2WinDescent: 797
OS2WinDOffset: 0
HheadAscent: 1854
HheadAOffset: 0
HheadDescent: -434
HheadDOffset: 0
OS2SubXSize: 1331
OS2SubYSize: 1433
OS2SubXOff: 0
OS2SubYOff: 286
OS2SupXSize: 1331
OS2SupYSize: 1433
OS2SupXOff: 0
OS2SupYOff: 983
OS2StrikeYSize: 102
OS2StrikeYPos: 530
OS2CapHeight: 1409
OS2XHeight: 1082
OS2Vendor: 'GOOG'
OS2CodePages: e00001bf.dff70000
OS2UnicodeRanges: e0000aff.500078ff.00000029.00000000
Lookup: 4 1 0 "dligDiscretionaryLigaturesinHebrewlookup1" { "dligDiscretionaryLigaturesinHebrewlookup1 subtable"  } ['dlig' ('hebr' <'dflt' > ) ]
Lookup: 4 0 0 "ccmpGlyphCompositionDecompositionlookup2" { "ccmpGlyphCompositionDecompositionlookup2 subtable"  } ['ccmp' ('latn' <'dflt' 'MAH ' > 'grek' <'dflt' > 'cyrl' <'dflt' > ) ]
Lookup: 6 0 0 "ccmpGlyphCompositionDecompositionlookup3" { "ccmpGlyphCompositionDecompositionlookup3 subtable"  } ['ccmp' ('latn' <'dflt' 'MAH ' > 'grek' <'dflt' > 'cyrl' <'dflt' > ) ]

StartChar: .notdef
Encoding: 65536 -1 0
Width: 1536
GlyphClass: 2
Flags: W
LayerCount: 2
Fore
SplineSet
1330 1409 m 1,0,0
 1330 0 l 1,0,0
 205 0 l 1,0,0
 205 1409 l 1,0,0
 1330 1409 l 1,0,0
281 76 m 1,0,0
 1254 76 l 1,0,0
 1254 1333 l 1,0,0
 281 1333 l 1,0,0
 281 76 l 1,0,0
EndSplineSet
EndChar

StartChar: exclam
Encoding: 33 33 4
Width: 757
GlyphClass: 2
Flags: W
LayerCount: 2
Fore
SplineSet
556.68 1409 m 1,0,0
 519.32 445.43 l 1,0,0
 234.38 445.43 l 1,0,0
 197.02 1409 l 1,0,0
 556.68 1409 l 1,0,0
549.34 316.23 m 1,0,0
 549.34 0 l 1,0,0
 198.36 0 l 1,0,0
 198.36 316.23 l 1,0,0
 549.34 316.23 l 1,0,0
EndSplineSet
EndChar

StartChar: quotedbl
Encoding: 34 34 5
Width: 1134
GlyphClass: 2
Flags: W
LayerCount: 2
Fore
SplineSet
967.32 1409 m 1,0,0
 933.63 852.44 l 1,0,0
 663.04 852.44 l 1,0,0
 631.35 1409 l 1,0,0
 967.32 1409 l 1,0,0
499.79 1409 m 1,0,0
 469.44 852.44 l 1,0,0
 198.18 852.44 l 1,0,0
 167.16 1409 l 1,0,0
 499.79 1409 l 1,0,0
EndSplineSet
EndChar

StartChar: numbersign
Encoding: 35 35 6
Width: 1139
GlyphClass: 2
Flags: W
LayerCount: 2
Fore
SplineSet
360.08 362.91 m 1,0,0
 282.76 0 l 1,0,0
 100.95 0 l 1,0,0
 176.6 362.91 l 1,0,0
 52.42 362.91 l 1,0,0
 52.42 539.38 l 1,0,0
 215.63 539.38 l 1,0,0
 280.27 846.59 l 1,0,0
 103.42 846.59 l 1,0,0
 103.42 1021.39 l 1,0,0
 317.3 1021.39 l 1,0,0
 397.95 1390.98 l 1,0,0
 579.76 1390.98 l 1,0,0
 501.78 1021.39 l 1,0,0
 771.26 1021.39 l 1,0,0
 852.58 1390.98 l 1,0,0
 1039.4 1390.98 l 1,0,0
 958.08 1021.39 l 1,0,0
 1090.59 1021.39 l 1,0,0
 1090.59 846.59 l 1,0,0
 917.71 846.59 l 1,0,0
 854.74 539.38 l 1,0,0
 1039.59 539.38 l 1,0,0
 1039.59 362.91 l 1,0,0
 818.38 362.91 l 1,0,0
 740.4 0 l 1,0,0
 553.58 0 l 1,0,0
 629.56 362.91 l 1,0,0
 360.08 362.91 l 1,0,0
398.44 539.38 m 1,0,0
 671.93 539.38 l 1,0,0
 736.57 846.59 l 1,0,0
 465.08 846.59 l 1,0,0
 398.44 539.38 l 1,0,0
EndSplineSet
EndChar

StartChar: dollar
Encoding: 36 36 7
Width: 1139
GlyphClass: 2
Flags: W
LayerCount: 2
Fore
SplineSet
521.34 20 m 1,0,0
 305 27.33 305 27.33 187.68 123.175 c 0,0,0
 70.36 219.02 70.36 219.02 30.35 427.43 c 1,0,0
 343.97 481.13 l 1,0,0
 358.95 372.15 358.95 372.15 400.04 324.675 c 0,0,0
 441.13 277.2 441.13 277.2 521.34 266.53 c 1,0,0
 521.34 587.18 l 1,0,0
 497.41 592.16 497.41 592.16 441.725 607.33 c 0,0,0
 386.04 622.5 386.04 622.5 325.655 644.685 c 0,0,0
 265.27 666.87 265.27 666.87 225.57 692.9 c 0,0,0
 156.3 740.89 156.3 740.89 109.46 823.08 c 0,0,0
 62.62 905.27 62.62 905.27 62.62 1019.28 c 0,0,0
 62.62 1192.65 62.62 1192.65 178.46 1285.995 c 0,0,0
 294.3 1379.34 294.3 1379.34 521.34 1386.67 c 1,0,0
 521.34 1522.68 l 1,0,0
 620.29 1522.68 l 1,0,0
 620.29 1386.67 l 1,0,0
 741.95 1380.67 741.95 1380.67 830.455 1350.68 c 0,0,0
 918.96 1320.69 918.96 1320.69 978.805 1243.005 c 0,0,0
 1038.65 1165.32 1038.65 1165.32 1075 1016.57 c 1,0,0
 750.7 973.55 l 1,0,0
 739.05 1055.86 739.05 1055.86 707.275 1100.01 c 0,0,0
 675.5 1144.16 675.5 1144.16 620.29 1155.16 c 1,0,0
 620.29 865.47 l 1,0,0
 599.07 872.86 599.07 872.86 632.175 867.555 c 0,0,0
 665.28 862.25 665.28 862.25 763.4 833.56 c 0,0,0
 932.51 788.91 932.51 788.91 1022.595 683.015 c 0,0,0
 1112.68 577.12 1112.68 577.12 1112.68 422.72 c 0,0,0
 1112.68 231 1112.68 231 990.845 131.835 c 0,0,0
 869.01 32.67 869.01 32.67 620.29 25.01 c 1,0,0
 620.29 -158.7 l 1,0,0
 521.34 -158.7 l 1,0,0
 521.34 20 l 1,0,0
384.92 1024.62 m 0,0,0
 384.92 989.67 384.92 989.67 394.89 969.71 c 0,0,0
 409.87 937.06 409.87 937.06 441.835 924.09 c 0,0,0
 473.8 911.12 473.8 911.12 521.34 888.13 c 1,0,0
 521.34 1160.5 l 1,0,0
 384.92 1148.17 384.92 1148.17 384.92 1024.62 c 0,0,0
793.72 417.38 m 0,0,0
 793.72 457.33 793.72 457.33 781.915 481.795 c 0,0,0
 770.11 506.26 770.11 506.26 744.49 520.9 c 0,0,0
 718.87 536.21 718.87 536.21 620.29 566.53 c 1,0,0
 620.29 267.2 l 1,0,0
 709.52 274.53 709.52 274.53 751.62 310.82 c 0,0,0
 793.72 347.11 793.72 347.11 793.72 417.38 c 0,0,0
EndSplineSet
EndChar

StartChar: percent
Encoding: 37 37 8
Width: 1821
GlyphClass: 2
Flags: W
LayerCount: 2
Fore
SplineSet
417.38 1427.68 m 0,0,0
 795.51 1427.68 795.51 1427.68 795.51 978.34 c 0,0,0
 795.51 759.67 795.51 759.67 697.64 645.175 c 0,0,0
 599.77 530.68 599.77 530.68 411.71 530.68 c 0,0,0
 226.99 530.68 226.99 530.68 131.625 644.175 c 0,0,0
 36.26 757.67 36.26 757.67 36.26 978.34 c 0,0,0
 36.26 1208.02 36.26 1208.02 128.29 1317.85 c 0,0,0
 220.32 1427.68 220.32 1427.68 417.38 1427.68 c 0,0,0
1491.08 1409 m 1,0,0
 568.75 0 l 1,0,0
 328.58 0 l 1,0,0
 1247.24 1409 l 1,0,0
 1491.08 1409 l 1,0,0
531.61 978.34 m 0,0,0
 531.61 1124.28 531.61 1124.28 506.135 1182.735 c 0,0,0
 480.66 1241.19 480.66 1241.19 417.38 1241.19 c 0,0,0
 346.76 1241.19 346.76 1241.19 321.79 1181.73 c 0,0,0
 296.82 1122.27 296.82 1122.27 296.82 978.34 c 0,0,0
 296.82 832.06 296.82 832.06 324.295 773.775 c 0,0,0
 351.77 715.49 351.77 715.49 415.38 715.49 c 0,0,0
 480.67 715.49 480.67 715.49 506.14 772.77 c 0,0,0
 531.61 830.05 531.61 830.05 531.61 978.34 c 0,0,0
1779.73 430.66 m 0,0,0
 1779.73 210.65 1779.73 210.65 1683.7 95.985 c 0,0,0
 1587.67 -18.68 1587.67 -18.68 1402.95 -18.68 c 0,0,0
 1213.55 -18.68 1213.55 -18.68 1118.185 96.325 c 0,0,0
 1022.82 211.33 1022.82 211.33 1022.82 430.66 c 0,0,0
 1022.82 651.98 1022.82 651.98 1115.185 765.15 c 0,0,0
 1207.55 878.32 1207.55 878.32 1406.95 878.32 c 0,0,0
 1597.67 878.32 1597.67 878.32 1688.7 765.49 c 0,0,0
 1779.73 652.66 1779.73 652.66 1779.73 430.66 c 0,0,0
1519.84 430.66 m 0,0,0
 1519.84 577.93 1519.84 577.93 1494.7 636.72 c 0,0,0
 1469.56 695.51 1469.56 695.51 1406.95 695.51 c 0,0,0
 1334.32 695.51 1334.32 695.51 1310.52 632.375 c 0,0,0
 1286.72 569.24 1286.72 569.24 1286.72 430.66 c 0,0,0
 1286.72 276.36 1286.72 276.36 1314.53 223.085 c 0,0,0
 1342.34 169.81 1342.34 169.81 1404.95 169.81 c 0,0,0
 1467.9 169.81 1467.9 169.81 1493.87 227.425 c 0,0,0
 1519.84 285.04 1519.84 285.04 1519.84 430.66 c 0,0,0
EndSplineSet
EndChar

StartChar: ampersand
Encoding: 38 38 9
Width: 1554
GlyphClass: 2
Flags: W
LayerCount: 2
Fore
SplineSet
102.06 394.38 m 0,0,0
 102.06 526.7 102.06 526.7 180.045 631.195 c 0,0,0
 258.03 735.69 258.03 735.69 436.71 821.71 c 1,0,0
 397.03 905.42 397.03 905.42 382.215 965.37 c 0,0,0
 367.4 1025.32 367.4 1025.32 367.4 1085.3 c 0,0,0
 367.4 1245.32 367.4 1245.32 469.755 1331.16 c 0,0,0
 572.11 1417 572.11 1417 761.82 1417 c 0,0,0
 941.21 1417 941.21 1417 1042.06 1334.32 c 0,0,0
 1142.91 1251.64 1142.91 1251.64 1142.91 1111.29 c 0,0,0
 1142.91 1029.6 1142.91 1029.6 1098.885 966.595 c 0,0,0
 1054.86 903.59 1054.86 903.59 983.86 852.6 c 0,0,0
 956.57 833.97 956.57 833.97 900.76 802.145 c 0,0,0
 844.95 770.32 844.95 770.32 762.3 727.64 c 1,0,0
 856.27 568.06 856.27 568.06 973.47 442.56 c 1,0,0
 1071.44 596.2 1071.44 596.2 1122.76 774.07 c 1,0,0
 1374.64 685.98 l 1,0,0
 1304.29 467.37 1304.29 467.37 1194.37 298.81 c 1,0,0
 1272 242.56 1272 242.56 1352.27 242.56 c 0,0,0
 1414.25 242.56 1414.25 242.56 1469.27 258.56 c 1,0,0
 1469.27 10 l 1,0,0
 1415.27 -12 1415.27 -12 1344.97 -12 c 0,0,0
 1260.31 -12 1260.31 -12 1165.77 18.665 c 0,0,0
 1071.23 49.33 1071.23 49.33 993.53 104.98 c 1,0,0
 815.15 -20 815.15 -20 609.84 -20 c 0,0,0
 368.12 -20 368.12 -20 235.09 88.51 c 0,0,0
 102.06 197.02 102.06 197.02 102.06 394.38 c 0,0,0
870.67 1107.95 m 0,0,0
 870.67 1154.9 870.67 1154.9 840.71 1184.535 c 0,0,0
 810.75 1214.17 810.75 1214.17 759.82 1214.17 c 0,0,0
 695.55 1214.17 695.55 1214.17 661.415 1176.865 c 0,0,0
 627.28 1139.56 627.28 1139.56 627.28 1081.96 c 0,0,0
 627.28 1013.38 627.28 1013.38 673.91 923.13 c 1,0,0
 763.16 962.77 763.16 962.77 796.77 988.41 c 0,0,0
 830.38 1014.05 830.38 1014.05 850.525 1042.35 c 0,0,0
 870.67 1070.65 870.67 1070.65 870.67 1107.95 c 0,0,0
783.31 265.43 m 1,0,0
 711.03 340.68 711.03 340.68 650.735 422.115 c 0,0,0
 590.44 503.55 590.44 503.55 542.8 588.83 c 1,0,0
 413.68 521.23 413.68 521.23 413.68 399.72 c 0,0,0
 413.68 315.46 413.68 315.46 470.305 262.495 c 0,0,0
 526.93 209.53 526.93 209.53 624.19 209.53 c 0,0,0
 685.17 209.53 685.17 209.53 725.275 231.185 c 0,0,0
 765.38 252.84 765.38 252.84 783.31 265.43 c 1,0,0
EndSplineSet
EndChar

StartChar: quotesingle
Encoding: 39 39 10
Width: 551
GlyphClass: 2
Flags: W
LayerCount: 2
Fore
SplineSet
443.31 1409 m 1,0,0
 412.96 852.44 l 1,0,0
 141.7 852.44 l 1,0,0
 112.35 1409 l 1,0,0
 443.31 1409 l 1,0,0
EndSplineSet
EndChar

StartChar: parenleft
Encoding: 40 40 11
Width: 682
GlyphClass: 2
Flags: W
LayerCount: 2
Fore
SplineSet
334.01 -425.67 m 1,0,0
 244.75 -264.62 244.75 -264.62 189.47 -115.115 c 0,0,0
 134.19 34.39 134.19 34.39 109.72 192.375 c 0,0,0
 85.25 350.36 85.25 350.36 85.25 533.01 c 0,0,0
 85.25 712.98 85.25 712.98 109.385 869.795 c 0,0,0
 133.52 1026.61 133.52 1026.61 188.8 1175.28 c 0,0,0
 244.08 1323.95 244.08 1323.95 334.01 1484 c 1,0,0
 686.7 1484 l 1,0,0
 548.13 1242.6 548.13 1242.6 487.35 1021.96 c 0,0,0
 426.57 801.32 426.57 801.32 426.57 530 c 0,0,0
 426.57 349.34 426.57 349.34 452.88 194.36 c 0,0,0
 479.19 39.38 479.19 39.38 536.645 -110.12 c 0,0,0
 594.1 -259.62 594.1 -259.62 686.7 -425.67 c 1,0,0
 334.01 -425.67 l 1,0,0
EndSplineSet
EndChar

StartChar: parenright
Encoding: 41 41 12
Width: 682
GlyphClass: 2
Flags: W
LayerCount: 2
Fore
SplineSet
-4.7 -425.67 m 1,0,0
 89.57 -258.95 89.57 -258.95 146.19 -109.45 c 0,0,0
 202.81 40.05 202.81 40.05 229.12 195.365 c 0,0,0
 255.43 350.68 255.43 350.68 255.43 530 c 0,0,0
 255.43 802.32 255.43 802.32 193.815 1024.465 c 0,0,0
 132.2 1246.61 132.2 1246.61 -4.7 1484 c 1,0,0
 347.99 1484 l 1,0,0
 440.59 1322.95 440.59 1322.95 494.535 1172.61 c 0,0,0
 548.48 1022.27 548.48 1022.27 572.615 865.62 c 0,0,0
 596.75 708.97 596.75 708.97 596.75 530.33 c 0,0,0
 596.75 351.36 596.75 351.36 572.615 194.88 c 0,0,0
 548.48 38.4 548.48 38.4 494.535 -112.275 c 0,0,0
 440.59 -262.95 440.59 -262.95 347.99 -425.67 c 1,0,0
 -4.7 -425.67 l 1,0,0
EndSplineSet
EndChar

StartChar: asterisk
Encoding: 42 42 13
Width: 797
GlyphClass: 2
Flags: W
LayerCount: 2
Fore
SplineSet
773.21 772.02 m 1,0,0
 545.66 618.19 l 1,0,0
 402.34 866.17 l 1,0,0
 258.03 616.85 l 1,0,0
 27.14 774.02 l 1,0,0
 217.81 960.23 l 1,0,0
 -12.09 1013.19 l 1,0,0
 71.32 1252.4 l 1,0,0
 291.56 1150.41 l 1,0,0
 269.54 1409 l 1,0,0
 537.47 1409 l 1,0,0
 516.12 1149.07 l 1,0,0
 731.69 1253.74 l 1,0,0
 815.1 1013.19 l 1,0,0
 586.54 960.23 l 1,0,0
 773.21 772.02 l 1,0,0
EndSplineSet
EndChar

StartChar: plus
Encoding: 43 43 14
Width: 1196
GlyphClass: 2
Flags: W
LayerCount: 2
Fore
SplineSet
737.8 542.87 m 1,0,0
 737.8 148.27 l 1,0,0
 458.87 148.27 l 1,0,0
 458.87 542.87 l 1,0,0
 76.62 542.87 l 1,0,0
 76.62 819.13 l 1,0,0
 458.87 819.13 l 1,0,0
 458.87 1213.73 l 1,0,0
 737.8 1213.73 l 1,0,0
 737.8 819.13 l 1,0,0
 1125.06 819.13 l 1,0,0
 1125.06 542.87 l 1,0,0
 737.8 542.87 l 1,0,0
EndSplineSet
EndChar

StartChar: comma
Encoding: 44 44 15
Width: 569
GlyphClass: 2
Flags: W
LayerCount: 2
Fore
SplineSet
463.49 76.05 m 2,0,0
 463.49 -53.33 463.49 -53.33 433.635 -159.4 c 0,0,0
 403.78 -265.47 403.78 -265.47 335.39 -353.85 c 1,0,0
 108.85 -353.85 l 1,0,0
 175.89 -280.84 175.89 -280.84 221.935 -182.775 c 0,0,0
 267.98 -84.71 267.98 -84.71 267.98 0 c 1,0,0
 111.51 0 l 1,0,0
 111.51 362.62 l 1,0,0
 463.49 362.62 l 1,0,0
 463.49 76.05 l 2,0,0
EndSplineSet
EndChar

StartChar: hyphen
Encoding: 45 45 16
Width: 682
GlyphClass: 2
Flags: W
LayerCount: 2
Fore
SplineSet
606.03 672.43 m 1,0,0
 606.03 372.15 l 1,0,0
 72.63 372.15 l 1,0,0
 72.63 672.43 l 1,0,0
 606.03 672.43 l 1,0,0
EndSplineSet
EndChar

StartChar: period
Encoding: 46 46 17
Width: 569
GlyphClass: 2
Flags: W
LayerCount: 2
Fore
SplineSet
458.82 362.62 m 1,0,0
 458.82 0 l 1,0,0
 106.84 0 l 1,0,0
 106.84 362.62 l 1,0,0
 458.82 362.62 l 1,0,0
EndSplineSet
EndChar

StartChar: slash
Encoding: 47 47 18
Width: 569
GlyphClass: 2
Flags: W
LayerCount: 2
Fore
SplineSet
535.6 1484 m 1,0,0
 330.67 -55.07 l 1,0,0
 33.4 -55.07 l 1,0,0
 244 1484 l 1,0,0
 535.6 1484 l 1,0,0
EndSplineSet
EndChar

StartChar: zero
Encoding: 48 48 19
Width: 1139
GlyphClass: 2
Flags: W
LayerCount: 2
Fore
SplineSet
1052.32 705 m 0,0,0
 1052.32 345.32 1052.32 345.32 931.16 162.66 c 0,0,0
 810 -20 810 -20 563.66 -20 c 0,0,0
 322.33 -20 322.33 -20 202 159.155 c 0,0,0
 81.67 338.31 81.67 338.31 81.67 705 c 0,0,0
 81.67 1081.36 81.67 1081.36 195.16 1255.68 c 0,0,0
 308.65 1430 308.65 1430 573 1430 c 0,0,0
 823.67 1430 823.67 1430 937.995 1250.34 c 0,0,0
 1052.32 1070.68 1052.32 1070.68 1052.32 705 c 0,0,0
703.99 705 m 0,0,0
 703.99 885.62 703.99 885.62 696.035 984.73 c 0,0,0
 688.08 1083.84 688.08 1083.84 659.49 1122.13 c 0,0,0
 630.9 1160.42 630.9 1160.42 569.66 1160.42 c 0,0,0
 501.41 1160.42 501.41 1160.42 471.655 1120.625 c 0,0,0
 441.9 1080.83 441.9 1080.83 435.45 981.72 c 0,0,0
 429 882.61 429 882.61 429 705 c 0,0,0
 429 523.37 429 523.37 436.45 424.595 c 0,0,0
 443.9 325.82 443.9 325.82 472.655 288.2 c 0,0,0
 501.41 250.58 501.41 250.58 565.66 250.58 c 0,0,0
 659.53 250.58 659.53 250.58 681.76 349.16 c 0,0,0
 703.99 447.74 703.99 447.74 703.99 705 c 0,0,0
EndSplineSet
EndChar

StartChar: one
Encoding: 49 49 20
Width: 1139
GlyphClass: 2
Flags: W
LayerCount: 2
Fore
SplineSet
1110.81 246.52 m 1,0,0
 1110.81 0 l 1,0,0
 110.91 0 l 1,0,0
 110.91 246.52 l 1,0,0
 453.21 246.52 l 1,0,0
 453.21 1125.11 l 1,0,0
 101.81 924.83 l 1,0,0
 101.81 1180 l 1,0,0
 468.21 1409 l 1,0,0
 801.21 1409 l 1,0,0
 801.21 246.52 l 1,0,0
 1110.81 246.52 l 1,0,0
EndSplineSet
EndChar

StartChar: two
Encoding: 50 50 21
Width: 1139
GlyphClass: 2
Flags: W
LayerCount: 2
Fore
SplineSet
1071.07 283.26 m 1,0,0
 1071.07 0 l 1,0,0
 49.56 0 l 1,0,0
 49.56 240.56 l 1,0,0
 77.18 297.44 77.18 297.44 123.795 366.565 c 0,0,0
 170.41 435.69 170.41 435.69 248.235 518.545 c 0,0,0
 326.06 601.4 326.06 601.4 432.82 689.65 c 0,0,0
 539.58 777.9 539.58 777.9 602.635 839.795 c 0,0,0
 665.69 901.69 665.69 901.69 682.795 935.665 c 0,0,0
 699.9 969.64 699.9 969.64 698.485 988.375 c 0,0,0
 697.07 1007.11 697.07 1007.11 697.07 1011.28 c 0,0,0
 697.07 1087.2 697.07 1087.2 664.975 1121.14 c 0,0,0
 632.88 1155.08 632.88 1155.08 560.31 1155.08 c 0,0,0
 487.06 1155.08 487.06 1155.08 457.65 1115.96 c 0,0,0
 428.24 1076.84 428.24 1076.84 413.57 990.56 c 1,0,0
 64.24 1005.89 l 1,0,0
 90.92 1219.98 90.92 1219.98 212.75 1324.99 c 0,0,0
 334.58 1430 334.58 1430 556.97 1430 c 0,0,0
 795.02 1430 795.02 1430 922.045 1323.655 c 0,0,0
 1049.07 1217.31 1049.07 1217.31 1049.07 1027.3 c 0,0,0
 1049.07 905.22 1049.07 905.22 1000.715 819.21 c 0,0,0
 952.36 733.2 952.36 733.2 886.005 663.515 c 0,0,0
 819.65 593.83 819.65 593.83 749.485 544.19 c 0,0,0
 679.32 494.55 679.32 494.55 639.125 464.335 c 0,0,0
 598.93 434.12 598.93 434.12 548.465 389.515 c 0,0,0
 498 344.91 498 344.91 471.34 283.26 c 1,0,0
 1071.07 283.26 l 1,0,0
EndSplineSet
EndChar

StartChar: three
Encoding: 51 51 22
Width: 1139
GlyphClass: 2
Flags: W
LayerCount: 2
Fore
SplineSet
1075.72 392.34 m 0,0,0
 1075.72 192.33 1075.72 192.33 941.7 83.66 c 0,0,0
 807.68 -25.01 807.68 -25.01 560.98 -25.01 c 0,0,0
 325.27 -25.01 325.27 -25.01 186.915 84.85 c 0,0,0
 48.56 194.71 48.56 194.71 26.23 397.07 c 1,0,0
 379.23 427.43 l 1,0,0
 400.2 255.92 400.2 255.92 559.31 255.92 c 0,0,0
 636.86 255.92 636.86 255.92 678.455 294.53 c 0,0,0
 720.05 333.14 720.05 333.14 720.05 416.71 c 0,0,0
 720.05 496.64 720.05 496.64 665.785 536.925 c 0,0,0
 611.52 577.21 611.52 577.21 499.63 577.21 c 2,0,0
 404.31 577.21 l 1,0,0
 404.31 851.78 l 1,0,0
 492.29 851.78 l 2,0,0
 595.2 851.78 595.2 851.78 642.465 891.23 c 0,0,0
 689.73 930.68 689.73 930.68 689.73 1007.94 c 0,0,0
 689.73 1077.52 689.73 1077.52 653.29 1116.3 c 0,0,0
 616.85 1155.08 616.85 1155.08 549.31 1155.08 c 0,0,0
 483.75 1155.08 483.75 1155.08 443.65 1115.79 c 0,0,0
 403.55 1076.5 403.55 1076.5 398.23 1003.91 c 1,0,0
 50.23 1027.93 l 1,0,0
 73.57 1215.96 73.57 1215.96 206.255 1322.98 c 0,0,0
 338.94 1430 338.94 1430 556.32 1430 c 0,0,0
 783.35 1430 783.35 1430 912.54 1329.83 c 0,0,0
 1041.73 1229.66 1041.73 1229.66 1041.73 1053.66 c 0,0,0
 1041.73 923.67 1041.73 923.67 962.89 838.335 c 0,0,0
 884.05 753 884.05 753 736.71 726.34 c 1,0,0
 736.71 722.34 l 1,0,0
 901.39 702 901.39 702 988.555 615.505 c 0,0,0
 1075.72 529.01 1075.72 529.01 1075.72 392.34 c 0,0,0
EndSplineSet
EndChar

StartChar: four
Encoding: 52 52 23
Width: 1139
GlyphClass: 2
Flags: W
LayerCount: 2
Fore
SplineSet
979.53 265.56 m 1,0,0
 979.53 0 l 1,0,0
 645.87 0 l 1,0,0
 645.87 265.56 l 1,0,0
 20.28 265.56 l 1,0,0
 20.28 524.13 l 1,0,0
 581.78 1409 l 1,0,0
 979.53 1409 l 1,0,0
 979.53 519.45 l 1,0,0
 1160.83 519.45 l 1,0,0
 1160.83 265.56 l 1,0,0
 979.53 265.56 l 1,0,0
291.49 519.45 m 1,0,0
 645.87 519.45 l 1,0,0
 645.87 912.78 l 2,0,0
 645.87 972.14 645.87 972.14 651.38 1046.865 c 0,0,0
 656.89 1121.59 656.89 1121.59 658.22 1120.83 c 1,0,0
 651.92 1103.55 651.92 1103.55 624.065 1054.34 c 0,0,0
 596.21 1005.13 596.21 1005.13 548.81 930.02 c 2,0,0
 291.49 519.45 l 1,0,0
EndSplineSet
EndChar

StartChar: five
Encoding: 53 53 24
Width: 1139
GlyphClass: 2
Flags: W
LayerCount: 2
Fore
SplineSet
1101.43 475.7 m 0,0,0
 1101.43 251.03 1101.43 251.03 957.24 115.515 c 0,0,0
 813.05 -20 813.05 -20 564.69 -20 c 0,0,0
 342.64 -20 342.64 -20 210.785 81.865 c 0,0,0
 78.93 183.73 78.93 183.73 50.27 376.79 c 1,0,0
 397.6 401.13 l 1,0,0
 414.91 320.51 414.91 320.51 459.52 287.215 c 0,0,0
 504.13 253.92 504.13 253.92 567.02 253.92 c 0,0,0
 645.22 253.92 645.22 253.92 694.655 307.185 c 0,0,0
 744.09 360.45 744.09 360.45 744.09 468.36 c 0,0,0
 744.09 564.62 744.09 564.62 700.835 620.735 c 0,0,0
 657.58 676.85 657.58 676.85 574.36 676.85 c 0,0,0
 526.41 676.85 526.41 676.85 488.46 654.685 c 0,0,0
 450.51 632.52 450.51 632.52 430.93 592.55 c 1,0,0
 91.27 592.55 l 1,0,0
 141.61 1409 l 1,0,0
 1019.43 1409 l 1,0,0
 1019.43 1162.48 l 1,0,0
 457.58 1162.48 l 1,0,0
 437.26 867.45 l 1,0,0
 529.21 957.45 529.21 957.45 668.14 957.45 c 0,0,0
 798.79 957.45 798.79 957.45 896.615 900.28 c 0,0,0
 994.44 843.11 994.44 843.11 1047.935 735.76 c 0,0,0
 1101.43 628.41 1101.43 628.41 1101.43 475.7 c 0,0,0
EndSplineSet
EndChar

StartChar: six
Encoding: 54 54 25
Width: 1139
GlyphClass: 2
Flags: W
LayerCount: 2
Fore
SplineSet
1075.72 461 m 0,0,0
 1075.72 234.66 1075.72 234.66 946.37 107.33 c 0,0,0
 817.02 -20 817.02 -20 588.99 -20 c 0,0,0
 332.62 -20 332.62 -20 194.095 152.825 c 0,0,0
 55.57 325.65 55.57 325.65 55.57 672 c 0,0,0
 55.57 1056.37 55.57 1056.37 194.085 1243.185 c 0,0,0
 332.6 1430 332.6 1430 591.3 1430 c 0,0,0
 783.03 1430 783.03 1430 888.54 1346.31 c 0,0,0
 994.05 1262.62 994.05 1262.62 1038.39 1081.21 c 1,0,0
 711.08 1040.19 l 1,0,0
 684.13 1157.08 684.13 1157.08 582.62 1157.08 c 0,0,0
 497.09 1157.08 497.09 1157.08 445.99 1064.515 c 0,0,0
 394.89 971.95 394.89 971.95 394.89 770.09 c 1,0,0
 437.21 834.37 437.21 834.37 511.18 869.345 c 0,0,0
 585.15 904.32 585.15 904.32 676.77 904.32 c 0,0,0
 861.75 904.32 861.75 904.32 968.735 785.66 c 0,0,0
 1075.72 667 1075.72 667 1075.72 461 c 0,0,0
727.39 453 m 0,0,0
 727.39 550.89 727.39 550.89 684.955 601.325 c 0,0,0
 642.52 651.76 642.52 651.76 570.31 651.76 c 0,0,0
 499.42 651.76 499.42 651.76 457.825 601.64 c 0,0,0
 416.23 551.52 416.23 551.52 416.23 474.29 c 0,0,0
 416.23 409.71 416.23 409.71 435.695 359.11 c 0,0,0
 455.16 308.51 455.16 308.51 492.105 278.545 c 0,0,0
 529.05 248.58 529.05 248.58 577.98 248.58 c 0,0,0
 649.53 248.58 649.53 248.58 688.46 302.68 c 0,0,0
 727.39 356.78 727.39 356.78 727.39 453 c 0,0,0
EndSplineSet
EndChar

StartChar: seven
Encoding: 55 55 26
Width: 1139
GlyphClass: 2
Flags: W
LayerCount: 2
Fore
SplineSet
1057.71 1134.41 m 1,0,0
 971.42 994.46 971.42 994.46 881.56 846.255 c 0,0,0
 791.7 698.05 791.7 698.05 715.97 522.22 c 0,0,0
 670.39 410.37 670.39 410.37 639.25 280.14 c 0,0,0
 608.11 149.91 608.11 149.91 608.11 0 c 1,0,0
 244.76 0 l 1,0,0
 244.76 175.07 244.76 175.07 283.78 319.57 c 0,0,0
 322.8 464.07 322.8 464.07 406.84 624.74 c 0,0,0
 450.14 698.59 450.14 698.59 525.105 811.485 c 0,0,0
 600.07 924.38 600.07 924.38 738.42 1125.74 c 1,0,0
 76.61 1125.74 l 1,0,0
 76.61 1409 l 1,0,0
 1057.71 1409 l 1,0,0
 1057.71 1134.41 l 1,0,0
EndSplineSet
EndChar

StartChar: eight
Encoding: 56 56 27
Width: 1139
GlyphClass: 2
Flags: W
LayerCount: 2
Fore
SplineSet
1093.42 399.68 m 0,0,0
 1093.42 199.67 1093.42 199.67 957.73 89.835 c 0,0,0
 822.04 -20 822.04 -20 571.67 -20 c 0,0,0
 320.62 -20 320.62 -20 184.77 90.34 c 0,0,0
 48.92 200.68 48.92 200.68 48.92 397.68 c 0,0,0
 48.92 530.67 48.92 530.67 126.25 622.165 c 0,0,0
 203.58 713.66 203.58 713.66 339.94 737 c 1,0,0
 339.94 741 l 1,0,0
 226.61 764.66 226.61 764.66 154.265 851.32 c 0,0,0
 81.92 937.98 81.92 937.98 81.92 1048.96 c 0,0,0
 81.92 1230 81.92 1230 205.76 1330 c 0,0,0
 329.6 1430 329.6 1430 567.67 1430 c 0,0,0
 810.74 1430 810.74 1430 934.58 1332.835 c 0,0,0
 1058.42 1235.67 1058.42 1235.67 1058.42 1046.96 c 0,0,0
 1058.42 935.98 1058.42 935.98 987.245 850.99 c 0,0,0
 916.07 766 916.07 766 798.4 743 c 1,0,0
 798.4 739 l 1,0,0
 935.07 717 935.07 717 1014.245 629.51 c 0,0,0
 1093.42 542.02 1093.42 542.02 1093.42 399.68 c 0,0,0
701.08 1028.61 m 0,0,0
 701.08 1190.79 701.08 1190.79 567.67 1190.79 c 0,0,0
 437.93 1190.79 437.93 1190.79 437.93 1028.61 c 0,0,0
 437.93 941.01 437.93 941.01 468.855 899.22 c 0,0,0
 499.78 857.43 499.78 857.43 569.67 857.43 c 0,0,0
 638.22 857.43 638.22 857.43 669.65 896.725 c 0,0,0
 701.08 936.02 701.08 936.02 701.08 1028.61 c 0,0,0
732.74 426.7 m 0,0,0
 732.74 522.63 732.74 522.63 693.15 570.76 c 0,0,0
 653.56 618.89 653.56 618.89 564.33 618.89 c 0,0,0
 485.78 618.89 485.78 618.89 446.355 569.935 c 0,0,0
 406.93 520.98 406.93 520.98 406.93 422.7 c 0,0,0
 406.93 312.77 406.93 312.77 447.195 266.49 c 0,0,0
 487.46 220.21 487.46 220.21 573.67 220.21 c 0,0,0
 657.21 220.21 657.21 220.21 694.975 268.165 c 0,0,0
 732.74 316.12 732.74 316.12 732.74 426.7 c 0,0,0
EndSplineSet
EndChar

StartChar: nine
Encoding: 57 57 28
Width: 1139
GlyphClass: 2
Flags: W
LayerCount: 2
Fore
SplineSet
1077.07 722.98 m 0,0,0
 1077.07 339.94 1077.07 339.94 937.055 159.97 c 0,0,0
 797.04 -20 797.04 -20 540.35 -20 c 0,0,0
 340.28 -20 340.28 -20 230.76 66.2 c 0,0,0
 121.24 152.4 121.24 152.4 76.57 335.79 c 1,0,0
 402.21 379.49 l 1,0,0
 431.16 251.92 431.16 251.92 543.35 251.92 c 0,0,0
 636.56 251.92 636.56 251.92 685.655 344.15 c 0,0,0
 734.75 436.38 734.75 436.38 735.41 628.23 c 1,0,0
 698.75 563.28 698.75 563.28 619.285 528.82 c 0,0,0
 539.82 494.36 539.82 494.36 450.54 494.36 c 0,0,0
 327.88 494.36 327.88 494.36 238.89 550.855 c 0,0,0
 149.9 607.35 149.9 607.35 102.075 711.01 c 0,0,0
 54.25 814.67 54.25 814.67 54.25 959.34 c 0,0,0
 54.25 1182.01 54.25 1182.01 185.765 1306.005 c 0,0,0
 317.28 1430 317.28 1430 561.66 1430 c 0,0,0
 826.72 1430 826.72 1430 951.895 1253.495 c 0,0,0
 1077.07 1076.99 1077.07 1076.99 1077.07 722.98 c 0,0,0
712.4 935.39 m 0,0,0
 712.4 1040.26 712.4 1040.26 668.635 1100.34 c 0,0,0
 624.87 1160.42 624.87 1160.42 553.99 1160.42 c 0,0,0
 485.78 1160.42 485.78 1160.42 446.685 1106.99 c 0,0,0
 407.59 1053.56 407.59 1053.56 407.59 956 c 0,0,0
 407.59 863.79 407.59 863.79 445.85 806.02 c 0,0,0
 484.11 748.25 484.11 748.25 557 748.25 c 0,0,0
 604.94 748.25 604.94 748.25 639.545 770.89 c 0,0,0
 674.15 793.53 674.15 793.53 693.275 835.485 c 0,0,0
 712.4 877.44 712.4 877.44 712.4 935.39 c 0,0,0
EndSplineSet
EndChar

StartChar: colon
Encoding: 58 58 29
Width: 757
GlyphClass: 2
Flags: W
LayerCount: 2
Fore
SplineSet
554.01 1001.84 m 1,0,0
 554.01 669.59 l 1,0,0
 203.7 669.59 l 1,0,0
 203.7 1001.84 l 1,0,0
 554.01 1001.84 l 1,0,0
554.01 330.58 m 1,0,0
 554.01 0 l 1,0,0
 203.7 0 l 1,0,0
 203.7 330.58 l 1,0,0
 554.01 330.58 l 1,0,0
EndSplineSet
EndChar

StartChar: semicolon
Encoding: 59 59 30
Width: 757
GlyphClass: 2
Flags: W
LayerCount: 2
Fore
SplineSet
555.34 1001.84 m 1,0,0
 555.34 669.59 l 1,0,0
 205.03 669.59 l 1,0,0
 205.03 1001.84 l 1,0,0
 555.34 1001.84 l 1,0,0
555.34 76.05 m 2,0,0
 555.34 -53.33 555.34 -53.33 525.485 -159.4 c 0,0,0
 495.63 -265.47 495.63 -265.47 427.24 -353.85 c 1,0,0
 202.37 -353.85 l 1,0,0
 277.76 -264.14 277.76 -264.14 319.63 -170.25 c 0,0,0
 361.5 -76.36 361.5 -76.36 361.5 0 c 1,0,0
 205.03 0 l 1,0,0
 205.03 330.58 l 1,0,0
 555.34 330.58 l 1,0,0
 555.34 76.05 l 2,0,0
EndSplineSet
EndChar

StartChar: less
Encoding: 60 60 31
Width: 1196
GlyphClass: 2
Flags: W
LayerCount: 2
Fore
SplineSet
1124.39 382.15 m 1,0,0
 1124.39 105.57 l 1,0,0
 75.95 479.15 l 1,0,0
 75.95 879.54 l 1,0,0
 1124.39 1252.45 l 1,0,0
 1124.39 974.87 l 1,0,0
 308.14 677.34 l 1,0,0
 1124.39 382.15 l 1,0,0
EndSplineSet
EndChar

StartChar: equal
Encoding: 61 61 32
Width: 1196
GlyphClass: 2
Flags: W
LayerCount: 2
Fore
SplineSet
1123.39 1105.87 m 1,0,0
 1123.39 832.62 l 1,0,0
 74.95 832.62 l 1,0,0
 74.95 1105.87 l 1,0,0
 1123.39 1105.87 l 1,0,0
1123.39 525.4 m 1,0,0
 1123.39 255.49 l 1,0,0
 74.95 255.49 l 1,0,0
 74.95 525.4 l 1,0,0
 1123.39 525.4 l 1,0,0
EndSplineSet
EndChar

StartChar: greater
Encoding: 62 62 33
Width: 1196
GlyphClass: 2
Flags: W
LayerCount: 2
Fore
SplineSet
1124.39 479.15 m 1,0,0
 75.95 105.57 l 1,0,0
 75.95 382.15 l 1,0,0
 890.53 677.34 l 1,0,0
 75.95 974.87 l 1,0,0
 75.95 1252.45 l 1,0,0
 1124.39 879.54 l 1,0,0
 1124.39 479.15 l 1,0,0
EndSplineSet
EndChar

StartChar: question
Encoding: 63 63 34
Width: 1326
GlyphClass: 2
Flags: W
LayerCount: 2
Fore
SplineSet
1179.9 1021.98 m 0,0,0
 1179.9 935.7 1179.9 935.7 1139.75 860.04 c 0,0,0
 1099.6 784.38 1099.6 784.38 982.61 702.73 c 2,0,0
 909.29 650.41 l 2,0,0
 783.99 561.77 783.99 561.77 774.64 458.83 c 1,0,0
 446 458.83 l 1,0,0
 450.67 510.75 450.67 510.75 468.975 565.4 c 0,0,0
 487.28 620.05 487.28 620.05 529.765 675.405 c 0,0,0
 572.25 730.76 572.25 730.76 646.96 782.12 c 0,0,0
 729.01 838.15 729.01 838.15 767.155 878.985 c 0,0,0
 805.3 919.82 805.3 919.82 817.265 950.945 c 0,0,0
 829.23 982.07 829.23 982.07 829.23 1007.3 c 0,0,0
 829.23 1077.88 829.23 1077.88 785.13 1118.83 c 0,0,0
 741.03 1159.78 741.03 1159.78 657.81 1159.78 c 0,0,0
 582.94 1159.78 582.94 1159.78 523.485 1108.15 c 0,0,0
 464.03 1056.52 464.03 1056.52 453.37 976.27 c 1,0,0
 100.7 988.27 l 1,0,0
 128.37 1194.62 128.37 1194.62 275.07 1312.31 c 0,0,0
 421.77 1430 421.77 1430 652.47 1430 c 0,0,0
 898.85 1430 898.85 1430 1039.375 1321.16 c 0,0,0
 1179.9 1212.32 1179.9 1212.32 1179.9 1021.98 c 0,0,0
789.98 316.23 m 1,0,0
 789.98 0 l 1,0,0
 438 0 l 1,0,0
 438 316.23 l 1,0,0
 789.98 316.23 l 1,0,0
EndSplineSet
EndChar

StartChar: at
Encoding: 64 64 35
Width: 1942
GlyphClass: 2
Flags: W
LayerCount: 2
Fore
SplineSet
1861.92 704.9 m 0,0,0
 1861.92 525.58 1861.92 525.58 1794.9 375.58 c 0,0,0
 1726.88 226.25 1726.88 226.25 1608.515 140.075 c 0,0,0
 1490.15 53.9 1490.15 53.9 1358.14 53.9 c 0,0,0
 1270.83 53.9 1270.83 53.9 1224.345 100.405 c 0,0,0
 1177.86 146.91 1177.86 146.91 1177.86 223.22 c 0,0,0
 1177.19 243.56 1177.19 243.56 1179.36 259.055 c 0,0,0
 1181.53 274.55 1181.53 274.55 1185.87 288.21 c 1,0,0
 1179.87 288.21 l 1,0,0
 1140.59 195.27 1140.59 195.27 1041.42 124.585 c 0,0,0
 942.25 53.9 942.25 53.9 845.95 53.9 c 0,0,0
 688.95 53.9 688.95 53.9 602.45 155.065 c 0,0,0
 515.95 256.23 515.95 256.23 515.95 438.9 c 0,0,0
 515.95 600.23 515.95 600.23 580.95 745.57 c 0,0,0
 645.95 889.91 645.95 889.91 758.945 970.405 c 0,0,0
 871.94 1050.9 871.94 1050.9 1014.61 1050.9 c 0,0,0
 1194.2 1050.9 1194.2 1050.9 1253.82 882.26 c 1,0,0
 1259.82 882.26 l 1,0,0
 1298.82 1028.9 l 1,0,0
 1454.82 1028.9 l 1,0,0
 1337.15 522.9 l 2,0,0
 1300.15 346.87 1300.15 346.87 1300.15 291.61 c 0,0,0
 1300.15 239.6 1300.15 239.6 1325.66 220.275 c 0,0,0
 1351.17 200.95 1351.17 200.95 1376.14 200.95 c 0,0,0
 1455.47 200.95 1455.47 200.95 1532.49 271.62 c 0,0,0
 1608.84 340.62 1608.84 340.62 1654.02 454.105 c 0,0,0
 1699.2 567.59 1699.2 567.59 1699.2 702.9 c 0,0,0
 1699.2 877.56 1699.2 877.56 1623.87 1007.54 c 0,0,0
 1548.54 1138.86 1548.54 1138.86 1404.375 1210.855 c 0,0,0
 1260.21 1282.85 1260.21 1282.85 1071.22 1282.85 c 0,0,0
 831.89 1282.85 831.89 1282.85 651.57 1179.19 c 0,0,0
 470.58 1075.53 470.58 1075.53 367.085 879.875 c 0,0,0
 263.59 684.22 263.59 684.22 263.59 440.9 c 0,0,0
 263.59 246.9 263.59 246.9 344.26 97.56 c 0,0,0
 425.6 -50.44 425.6 -50.44 565.75 -123.595 c 0,0,0
 705.9 -196.75 705.9 -196.75 897.22 -196.75 c 0,0,0
 1045.56 -196.75 1045.56 -196.75 1191.22 -156.745 c 0,0,0
 1336.88 -116.74 1336.88 -116.74 1476.84 -46.44 c 1,0,0
 1543.53 -175.14 l 1,0,0
 1360.12 -275.5 1360.12 -275.5 1205.65 -313.485 c 0,0,0
 1051.18 -351.47 1051.18 -351.47 885.53 -351.47 c 0,0,0
 652.88 -351.47 652.88 -351.47 474.55 -255.47 c 0,0,0
 295.22 -160.47 295.22 -160.47 191.37 22.71 c 0,0,0
 87.52 205.89 87.52 205.89 87.52 440.9 c 0,0,0
 87.52 726.58 87.52 726.58 215.86 954.91 c 0,0,0
 342.53 1183.91 342.53 1183.91 567.205 1308.905 c 0,0,0
 791.88 1433.9 791.88 1433.9 1069.22 1433.9 c 0,0,0
 1313.56 1433.9 1313.56 1433.9 1493.57 1343.9 c 0,0,0
 1673.58 1252.9 1673.58 1252.9 1767.75 1087.9 c 0,0,0
 1861.92 922.9 1861.92 922.9 1861.92 704.9 c 0,0,0
1187.45 703.58 m 0,0,0
 1187.45 793.89 1187.45 793.89 1132.305 852.215 c 0,0,0
 1077.16 910.54 1077.16 910.54 993.88 910.54 c 0,0,0
 904.57 910.54 904.57 910.54 833.92 849.88 c 0,0,0
 760.93 786.88 760.93 786.88 721.775 671.04 c 0,0,0
 682.62 555.2 682.62 555.2 682.62 440.9 c 0,0,0
 682.62 330.92 682.62 330.92 731.79 266.26 c 0,0,0
 780.96 201.6 780.96 201.6 881.63 201.6 c 0,0,0
 939.59 201.6 939.59 201.6 996.06 243.765 c 0,0,0
 1052.53 285.93 1052.53 285.93 1097.51 368.95 c 0,0,0
 1126.49 422.62 1126.49 422.62 1146.31 485.445 c 0,0,0
 1166.13 548.27 1166.13 548.27 1176.79 605.925 c 0,0,0
 1187.45 663.58 1187.45 663.58 1187.45 703.58 c 0,0,0
EndSplineSet
EndChar

StartChar: A
Encoding: 65 65 36
Width: 1554
GlyphClass: 2
Flags: W
LayerCount: 2
Fore
SplineSet
542.69 325.16 m 1,0,0
 442.48 0 l 1,0,0
 82.49 0 l 1,0,0
 555.62 1409 l 1,0,0
 991.39 1409 l 1,0,0
 1467.21 0 l 1,0,0
 1110.22 0 l 1,0,0
 1009.34 325.16 l 1,0,0
 542.69 325.16 l 1,0,0
775.18 1143.09 m 1,0,0
 769.87 1113.81 769.87 1113.81 755.555 1066.185 c 0,0,0
 741.24 1018.56 741.24 1018.56 741.28 1014.99 c 2,0,0
 614.05 596.07 l 1,0,0
 937.31 596.07 l 1,0,0
 804.74 1026 l 2,0,0
 790.74 1071.02 790.74 1071.02 786.11 1098.28 c 0,0,0
 781.48 1125.54 781.48 1125.54 775.18 1143.09 c 1,0,0
EndSplineSet
EndChar

StartChar: B
Encoding: 66 66 37
Width: 1554
GlyphClass: 2
Flags: W
LayerCount: 2
Fore
SplineSet
1471.76 405.35 m 0,0,0
 1471.76 210.67 1471.76 210.67 1323.07 105.335 c 0,0,0
 1174.38 0 1174.38 0 910.34 0 c 2,0,0
 116.23 0 l 1,0,0
 116.23 1409 l 1,0,0
 850.34 1409 l 2,0,0
 1115.04 1409 1115.04 1409 1253.235 1316.82 c 0,0,0
 1391.43 1224.64 1391.43 1224.64 1391.43 1046.96 c 0,0,0
 1391.43 930.31 1391.43 930.31 1327.275 849.485 c 0,0,0
 1263.12 768.66 1263.12 768.66 1121.76 739.66 c 1,0,0
 1294.77 719.66 1294.77 719.66 1383.265 635.51 c 0,0,0
 1471.76 551.36 1471.76 551.36 1471.76 405.35 c 0,0,0
1024.08 995.57 m 0,0,0
 1024.08 1077.84 1024.08 1077.84 975.305 1111.81 c 0,0,0
 926.53 1145.78 926.53 1145.78 826.96 1145.78 c 2,0,0
 480.91 1145.78 l 1,0,0
 480.91 861.77 l 1,0,0
 830.3 861.77 l 2,0,0
 936.54 861.77 936.54 861.77 980.31 895.89 c 0,0,0
 1024.08 930.01 1024.08 930.01 1024.08 995.57 c 0,0,0
1106.75 433.71 m 0,0,0
 1106.75 597.54 1106.75 597.54 866.97 597.54 c 2,0,0
 480.91 597.54 l 1,0,0
 480.91 263.22 l 1,0,0
 875.29 263.22 l 2,0,0
 995.18 263.22 995.18 263.22 1050.965 305.675 c 0,0,0
 1106.75 348.13 1106.75 348.13 1106.75 433.71 c 0,0,0
EndSplineSet
EndChar

StartChar: C
Encoding: 67 67 38
Width: 1479
GlyphClass: 2
Flags: W
LayerCount: 2
Fore
SplineSet
791.65 262.25 m 0,0,0
 1040.89 262.25 1040.89 262.25 1113.07 513.5 c 1,0,0
 1437.74 403.77 l 1,0,0
 1357.42 185.03 1357.42 185.03 1194.91 82.515 c 0,0,0
 1032.4 -20 1032.4 -20 797.68 -20 c 0,0,0
 563.64 -20 563.64 -20 401.29 64.825 c 0,0,0
 238.94 149.65 238.94 149.65 154.77 313.315 c 0,0,0
 70.6 476.98 70.6 476.98 70.6 711 c 0,0,0
 70.6 947.69 70.6 947.69 149.26 1107.02 c 0,0,0
 227.92 1266.35 227.92 1266.35 385.26 1348.175 c 0,0,0
 542.6 1430 542.6 1430 776.64 1430 c 0,0,0
 1040.05 1430 1040.05 1430 1199.4 1322.795 c 0,0,0
 1358.75 1215.59 1358.75 1215.59 1416.39 1009.19 c 1,0,0
 1103.46 930.82 l 1,0,0
 1081.18 1025.43 1081.18 1025.43 992.72 1086.255 c 0,0,0
 904.26 1147.08 904.26 1147.08 785.32 1147.08 c 0,0,0
 608.1 1147.08 608.1 1147.08 522.355 1040.835 c 0,0,0
 436.61 934.59 436.61 934.59 436.61 711 c 0,0,0
 436.61 555.7 436.61 555.7 474.73 457.095 c 0,0,0
 512.85 358.49 512.85 358.49 591.95 310.37 c 0,0,0
 671.05 262.25 671.05 262.25 791.65 262.25 c 0,0,0
EndSplineSet
EndChar

StartChar: D
Encoding: 68 68 39
Width: 1479
GlyphClass: 2
Flags: W
LayerCount: 2
Fore
SplineSet
1401.04 712.32 m 0,0,0
 1401.04 484.31 1401.04 484.31 1312.87 324.98 c 0,0,0
 1224.7 165.65 1224.7 165.65 1070.2 82.825 c 0,0,0
 915.7 0 915.7 0 715.04 0 c 2,0,0
 116.23 0 l 1,0,0
 116.23 1409 l 1,0,0
 655.71 1409 l 2,0,0
 1010.37 1409 1010.37 1409 1205.705 1229.5 c 0,0,0
 1401.04 1050 1401.04 1050 1401.04 712.32 c 0,0,0
1033.69 712.32 m 0,0,0
 1033.69 915.87 1033.69 915.87 932.775 1023.31 c 0,0,0
 831.86 1130.75 831.86 1130.75 648.37 1130.75 c 2,0,0
 480.91 1130.75 l 1,0,0
 480.91 278.25 l 1,0,0
 688.03 278.25 l 2,0,0
 794.93 278.25 794.93 278.25 872.02 331.385 c 0,0,0
 949.11 384.52 949.11 384.52 991.4 481.46 c 0,0,0
 1033.69 578.4 1033.69 578.4 1033.69 712.32 c 0,0,0
EndSplineSet
EndChar

StartChar: E
Encoding: 69 69 40
Width: 1366
GlyphClass: 2
Flags: W
LayerCount: 2
Fore
SplineSet
1291.36 276.24 m 1,0,0
 1291.36 0 l 1,0,0
 116.23 0 l 1,0,0
 116.23 1409 l 1,0,0
 1250.36 1409 l 1,0,0
 1250.36 1132.76 l 1,0,0
 480.91 1132.76 l 1,0,0
 480.91 844.42 l 1,0,0
 1188.69 844.42 l 1,0,0
 1188.69 566.84 l 1,0,0
 480.91 566.84 l 1,0,0
 480.91 276.24 l 1,0,0
 1291.36 276.24 l 1,0,0
EndSplineSet
EndChar

StartChar: F
Encoding: 70 70 41
Width: 1251
GlyphClass: 2
Flags: W
LayerCount: 2
Fore
SplineSet
480.91 480.82 m 1,0,0
 480.91 0 l 1,0,0
 116.23 0 l 1,0,0
 116.23 1409 l 1,0,0
 1180.69 1409 l 1,0,0
 1180.69 1132.76 l 1,0,0
 480.91 1132.76 l 1,0,0
 480.91 755.72 l 1,0,0
 1158.36 755.72 l 1,0,0
 1158.36 480.82 l 1,0,0
 480.91 480.82 l 1,0,0
EndSplineSet
EndChar

StartChar: G
Encoding: 71 71 42
Width: 1593
GlyphClass: 2
Flags: W
LayerCount: 2
Fore
SplineSet
801.31 261.92 m 0,0,0
 900.9 261.92 900.9 261.92 1001.195 289.725 c 0,0,0
 1101.49 317.53 1101.49 317.53 1150.44 356.13 c 1,0,0
 1150.44 511.6 l 1,0,0
 858.03 511.6 l 1,0,0
 858.03 768.46 l 1,0,0
 1483.42 768.46 l 1,0,0
 1483.42 229.02 l 1,0,0
 1371.42 113.35 1371.42 113.35 1180.53 46.675 c 0,0,0
 989.64 -20 989.64 -20 787.95 -20 c 0,0,0
 552.92 -20 552.92 -20 393.085 63.155 c 0,0,0
 233.25 146.31 233.25 146.31 152.26 309.14 c 0,0,0
 71.27 471.97 71.27 471.97 71.27 711 c 0,0,0
 71.27 1062.35 71.27 1062.35 258.61 1246.175 c 0,0,0
 445.95 1430 445.95 1430 805.67 1430 c 0,0,0
 1063.05 1430 1063.05 1430 1229.09 1330.125 c 0,0,0
 1395.13 1230.25 1395.13 1230.25 1454.09 1039.55 c 1,0,0
 1121.79 938.79 l 1,0,0
 1088.51 1037.08 1088.51 1037.08 1002.215 1092.08 c 0,0,0
 915.92 1147.08 915.92 1147.08 809.02 1147.08 c 0,0,0
 625.14 1147.08 625.14 1147.08 531.21 1035.485 c 0,0,0
 437.28 923.89 437.28 923.89 437.28 711 c 0,0,0
 437.28 490.76 437.28 490.76 531.695 376.34 c 0,0,0
 626.11 261.92 626.11 261.92 801.31 261.92 c 0,0,0
EndSplineSet
EndChar

StartChar: H
Encoding: 72 72 43
Width: 1479
GlyphClass: 2
Flags: W
LayerCount: 2
Fore
SplineSet
480.91 571.17 m 1,0,0
 480.91 0 l 1,0,0
 116.23 0 l 1,0,0
 116.23 1409 l 1,0,0
 480.91 1409 l 1,0,0
 480.91 871.45 l 1,0,0
 995.75 871.45 l 1,0,0
 995.75 1409 l 1,0,0
 1360.43 1409 l 1,0,0
 1360.43 0 l 1,0,0
 995.75 0 l 1,0,0
 995.75 571.17 l 1,0,0
 480.91 571.17 l 1,0,0
EndSplineSet
EndChar

StartChar: I
Encoding: 73 73 44
Width: 569
GlyphClass: 2
Flags: W
LayerCount: 2
Fore
SplineSet
466.84 1409 m 1,0,0
 466.84 0 l 1,0,0
 102.16 0 l 1,0,0
 102.16 1409 l 1,0,0
 466.84 1409 l 1,0,0
EndSplineSet
EndChar

StartChar: J
Encoding: 74 74 45
Width: 1216
GlyphClass: 2
Flags: W
LayerCount: 2
Fore
SplineSet
568.89 -20 m 0,0,0
 323.09 -20 323.09 -20 197.885 76.675 c 0,0,0
 72.68 173.35 72.68 173.35 30.33 403.44 c 1,0,0
 394.35 454.48 l 1,0,0
 412.35 350.17 412.35 350.17 451.97 306.045 c 0,0,0
 491.59 261.92 491.59 261.92 571.56 261.92 c 0,0,0
 648.84 261.92 648.84 261.92 684.625 312.545 c 0,0,0
 720.41 363.17 720.41 363.17 720.41 454.41 c 2,0,0
 720.41 1409 l 1,0,0
 1084.09 1409 l 1,0,0
 1084.09 463.42 l 2,0,0
 1084.09 233.37 1084.09 233.37 949.71 106.685 c 0,0,0
 815.33 -20 815.33 -20 568.89 -20 c 0,0,0
EndSplineSet
EndChar

StartChar: K
Encoding: 75 75 46
Width: 1554
GlyphClass: 2
Flags: W
LayerCount: 2
Fore
SplineSet
480.91 496.58 m 1,0,0
 480.91 0 l 1,0,0
 116.23 0 l 1,0,0
 116.23 1409 l 1,0,0
 480.91 1409 l 1,0,0
 480.91 814.89 l 1,0,0
 1086.43 1409 l 1,0,0
 1510.16 1409 l 1,0,0
 906.82 823.72 l 1,0,0
 1538.39 0 l 1,0,0
 1116.02 0 l 1,0,0
 648.21 624.89 l 1,0,0
 480.91 496.58 l 1,0,0
EndSplineSet
EndChar

StartChar: L
Encoding: 76 76 47
Width: 1326
GlyphClass: 2
Flags: W
LayerCount: 2
Fore
SplineSet
1266.39 276.24 m 1,0,0
 1266.39 0 l 1,0,0
 116.23 0 l 1,0,0
 116.23 1409 l 1,0,0
 480.91 1409 l 1,0,0
 480.91 276.24 l 1,0,0
 1266.39 276.24 l 1,0,0
EndSplineSet
EndChar

StartChar: M
Encoding: 77 77 48
Width: 1706
GlyphClass: 2
Flags: W
LayerCount: 2
Fore
SplineSet
439.87 796.38 m 2,0,0
 439.87 0 l 1,0,0
 116.23 0 l 1,0,0
 116.23 1409 l 1,0,0
 607.71 1409 l 1,0,0
 777.3 747.63 l 2,0,0
 792.29 676.94 792.29 676.94 809.955 611.11 c 0,0,0
 827.62 545.28 827.62 545.28 851.99 455.16 c 1,0,0
 866.34 500.53 866.34 500.53 873.66 531.33 c 0,0,0
 880.98 562.13 880.98 562.13 889.135 596.11 c 0,0,0
 897.29 630.09 897.29 630.09 911.64 682.5 c 2,0,0
 1097.61 1409 l 1,0,0
 1589.77 1409 l 1,0,0
 1589.77 0 l 1,0,0
 1267.47 0 l 1,0,0
 1267.47 796.38 l 2,0,0
 1267.47 792.55 1267.47 792.55 1269.97 888.425 c 0,0,0
 1272.47 984.3 1272.47 984.3 1278.14 1108.07 c 1,0,0
 1236.44 943.92 1236.44 943.92 1206.59 834.175 c 0,0,0
 1176.74 724.43 1176.74 724.43 1161.75 669.42 c 2,0,0
 981.45 0 l 1,0,0
 720.53 0 l 1,0,0
 543.58 669.42 l 1,0,0
 424.52 1108.07 l 1,0,0
 433.2 964.6 433.2 964.6 436.535 887.095 c 0,0,0
 439.87 809.59 439.87 809.59 439.87 796.38 c 2,0,0
EndSplineSet
EndChar

StartChar: N
Encoding: 78 78 49
Width: 1479
GlyphClass: 2
Flags: W
LayerCount: 2
Fore
SplineSet
439.87 760.65 m 2,0,0
 439.87 0 l 1,0,0
 116.23 0 l 1,0,0
 116.23 1409 l 1,0,0
 530.28 1409 l 1,0,0
 1060.15 391.38 l 1,0,0
 1038.13 513.23 1038.13 513.23 1038.13 660.35 c 2,0,0
 1038.13 1409 l 1,0,0
 1360.43 1409 l 1,0,0
 1360.43 0 l 1,0,0
 936.71 0 l 1,0,0
 416.51 1007.95 l 1,0,0
 430.2 920.24 430.2 920.24 435.035 858.415 c 0,0,0
 439.87 796.59 439.87 796.59 439.87 760.65 c 2,0,0
EndSplineSet
EndChar

StartChar: O
Encoding: 79 79 50
Width: 1593
GlyphClass: 2
Flags: W
LayerCount: 2
Fore
SplineSet
1515.04 711 m 0,0,0
 1515.04 495.02 1515.04 495.02 1424.53 330.185 c 0,0,0
 1334.02 165.35 1334.02 165.35 1171.175 72.675 c 0,0,0
 1008.33 -20 1008.33 -20 791.66 -20 c 0,0,0
 567.31 -20 567.31 -20 406.635 68.835 c 0,0,0
 245.96 157.67 245.96 157.67 160.625 321.67 c 0,0,0
 75.29 485.67 75.29 485.67 75.29 711 c 0,0,0
 75.29 937 75.29 937 160.46 1098.335 c 0,0,0
 245.63 1259.67 245.63 1259.67 407.14 1344.835 c 0,0,0
 568.65 1430 568.65 1430 793.66 1430 c 0,0,0
 1023.02 1430 1023.02 1430 1183.695 1342.495 c 0,0,0
 1344.37 1254.99 1344.37 1254.99 1429.705 1093.655 c 0,0,0
 1515.04 932.32 1515.04 932.32 1515.04 711 c 0,0,0
1143.02 711 m 0,0,0
 1143.02 915.55 1143.02 915.55 1050.765 1031.315 c 0,0,0
 958.51 1147.08 958.51 1147.08 793.66 1147.08 c 0,0,0
 625.14 1147.08 625.14 1147.08 533.22 1031.645 c 0,0,0
 441.3 916.21 441.3 916.21 441.3 711 c 0,0,0
 441.3 571.74 441.3 571.74 484.6 471.465 c 0,0,0
 527.9 371.19 527.9 371.19 606.665 317.39 c 0,0,0
 685.43 263.59 685.43 263.59 791.66 263.59 c 0,0,0
 958.84 263.59 958.84 263.59 1050.93 379.855 c 0,0,0
 1143.02 496.12 1143.02 496.12 1143.02 711 c 0,0,0
EndSplineSet
EndChar

StartChar: P
Encoding: 80 80 51
Width: 1366
GlyphClass: 2
Flags: W
LayerCount: 2
Fore
SplineSet
1321.46 948.26 m 0,0,0
 1321.46 808.58 1321.46 808.58 1256.615 698.055 c 0,0,0
 1191.77 587.53 1191.77 587.53 1072.415 524.01 c 0,0,0
 953.06 460.49 953.06 460.49 788.03 460.49 c 2,0,0
 480.91 460.49 l 1,0,0
 480.91 0 l 1,0,0
 116.23 0 l 1,0,0
 116.23 1409 l 1,0,0
 776.03 1409 l 2,0,0
 1039.75 1409 1039.75 1409 1180.605 1288.815 c 0,0,0
 1321.46 1168.63 1321.46 1168.63 1321.46 948.26 c 0,0,0
954.11 941.25 m 0,0,0
 954.11 1129.08 954.11 1129.08 736.33 1129.08 c 2,0,0
 480.91 1129.08 l 1,0,0
 480.91 738.41 l 1,0,0
 744.33 738.41 l 2,0,0
 840.87 738.41 840.87 738.41 897.49 792.21 c 0,0,0
 954.11 846.01 954.11 846.01 954.11 941.25 c 0,0,0
EndSplineSet
EndChar

StartChar: Q
Encoding: 81 81 52
Width: 1593
GlyphClass: 2
Flags: W
LayerCount: 2
Fore
SplineSet
1515.04 711 m 0,0,0
 1515.04 529.7 1515.04 529.7 1455.89 386.72 c 0,0,0
 1396.74 243.74 1396.74 243.74 1286.44 147.57 c 0,0,0
 1176.14 51.4 1176.14 51.4 1019.85 10.7 c 1,0,0
 1049.16 -70.21 1049.16 -70.21 1107.31 -106.17 c 0,0,0
 1165.46 -142.13 1165.46 -142.13 1282.49 -142.13 c 0,0,0
 1347.84 -142.13 1347.84 -142.13 1404.17 -134.14 c 1,0,0
 1400.83 -381.7 l 1,0,0
 1254.72 -413.72 1254.72 -413.72 1115.95 -413.72 c 0,0,0
 944.91 -413.72 944.91 -413.72 831.545 -319.035 c 0,0,0
 718.18 -224.35 718.18 -224.35 651.17 -5.98 c 1,0,0
 469.21 17.38 469.21 17.38 340.57 109.38 c 0,0,0
 211.93 201.38 211.93 201.38 143.61 353.865 c 0,0,0
 75.29 506.35 75.29 506.35 75.29 711 c 0,0,0
 75.29 937 75.29 937 160.46 1098.335 c 0,0,0
 245.63 1259.67 245.63 1259.67 407.14 1344.835 c 0,0,0
 568.65 1430 568.65 1430 793.66 1430 c 0,0,0
 1019 1430 1019 1430 1180.01 1344.17 c 0,0,0
 1341.02 1258.34 1341.02 1258.34 1428.03 1097.34 c 0,0,0
 1515.04 936.34 1515.04 936.34 1515.04 711 c 0,0,0
1143.02 711 m 0,0,0
 1143.02 915.55 1143.02 915.55 1050.765 1031.315 c 0,0,0
 958.51 1147.08 958.51 1147.08 793.66 1147.08 c 0,0,0
 625.14 1147.08 625.14 1147.08 533.22 1031.645 c 0,0,0
 441.3 916.21 441.3 916.21 441.3 711 c 0,0,0
 441.3 571.74 441.3 571.74 483.765 470.63 c 0,0,0
 526.23 369.52 526.23 369.52 604.995 315.72 c 0,0,0
 683.76 261.92 683.76 261.92 791.66 261.92 c 0,0,0
 958.84 261.92 958.84 261.92 1050.93 378.185 c 0,0,0
 1143.02 494.45 1143.02 494.45 1143.02 711 c 0,0,0
EndSplineSet
EndChar

StartChar: R
Encoding: 82 82 53
Width: 1479
GlyphClass: 2
Flags: W
LayerCount: 2
Fore
SplineSet
480.91 501.5 m 1,0,0
 480.91 0 l 1,0,0
 116.23 0 l 1,0,0
 116.23 1409 l 1,0,0
 847.7 1409 l 2,0,0
 1109.08 1409 1109.08 1409 1251.105 1299.16 c 0,0,0
 1393.13 1189.32 1393.13 1189.32 1393.13 977.61 c 0,0,0
 1393.13 835.64 1393.13 835.64 1314.155 727.805 c 0,0,0
 1235.18 619.97 1235.18 619.97 1104.24 581.95 c 1,0,0
 1472.51 0 l 1,0,0
 1065.47 0 l 1,0,0
 764.6 501.5 l 1,0,0
 480.91 501.5 l 1,0,0
1025.78 958.91 m 0,0,0
 1025.78 1045.17 1025.78 1045.17 973.175 1087.125 c 0,0,0
 920.57 1129.08 920.57 1129.08 808.66 1129.08 c 2,0,0
 480.91 1129.08 l 1,0,0
 480.91 782.76 l 1,0,0
 816.66 782.76 l 2,0,0
 922.57 782.76 922.57 782.76 974.175 829.045 c 0,0,0
 1025.78 875.33 1025.78 875.33 1025.78 958.91 c 0,0,0
EndSplineSet
EndChar

StartChar: S
Encoding: 83 83 54
Width: 1366
GlyphClass: 2
Flags: W
LayerCount: 2
Fore
SplineSet
1295.38 417.39 m 0,0,0
 1295.38 202.35 1295.38 202.35 1141.21 91.175 c 0,0,0
 987.04 -20 987.04 -20 676.64 -20 c 0,0,0
 128.24 -20 128.24 -20 36.22 386.43 c 1,0,0
 388.22 440.13 l 1,0,0
 415.21 338.18 415.21 338.18 485.81 293.71 c 0,0,0
 556.41 249.24 556.41 249.24 685.31 249.24 c 0,0,0
 820.21 249.24 820.21 249.24 881.465 285.185 c 0,0,0
 942.72 321.13 942.72 321.13 942.72 395.7 c 0,0,0
 942.72 449.67 942.72 449.67 905.375 485.99 c 0,0,0
 868.03 522.31 868.03 522.31 797.67 546.97 c 0,0,0
 782.42 549.92 782.42 549.92 731.81 563.075 c 0,0,0
 681.2 576.23 681.2 576.23 591.88 593.22 c 0,0,0
 489.23 618.22 489.23 618.22 438.945 631.365 c 0,0,0
 388.66 644.51 388.66 644.51 360.7 654.31 c 0,0,0
 332.74 664.11 332.74 664.11 298.74 677.41 c 0,0,0
 206.99 721.74 206.99 721.74 154.605 806.12 c 0,0,0
 102.22 890.5 102.22 890.5 102.22 1024.61 c 0,0,0
 102.22 1222.31 102.22 1222.31 249.07 1326.155 c 0,0,0
 395.92 1430 395.92 1430 680.64 1430 c 0,0,0
 957.38 1430 957.38 1430 1091.895 1342.305 c 0,0,0
 1226.41 1254.61 1226.41 1254.61 1255.7 1057.57 c 1,0,0
 904.04 1014.55 l 1,0,0
 888.07 1091.48 888.07 1091.48 833.635 1134.465 c 0,0,0
 779.2 1177.45 779.2 1177.45 671.96 1177.45 c 0,0,0
 561.41 1177.45 561.41 1177.45 509.15 1144.83 c 0,0,0
 456.89 1112.21 456.89 1112.21 456.89 1046.3 c 0,0,0
 456.89 998 456.89 998 481.37 968.025 c 0,0,0
 505.85 938.05 505.85 938.05 555.82 915.73 c 0,0,0
 603.46 895.08 603.46 895.08 761.38 862.77 c 0,0,0
 875.78 838.76 875.78 838.76 944.76 819.93 c 0,0,0
 1013.74 801.1 1013.74 801.1 1040.32 791.81 c 0,0,0
 1086.33 771.47 1086.33 771.47 1118.82 752.815 c 0,0,0
 1151.31 734.16 1151.31 734.16 1174.3 715.52 c 0,0,0
 1234.01 661.83 1234.01 661.83 1264.695 587.295 c 0,0,0
 1295.38 512.76 1295.38 512.76 1295.38 417.39 c 0,0,0
EndSplineSet
EndChar

StartChar: T
Encoding: 84 84 55
Width: 1251
GlyphClass: 2
Flags: W
LayerCount: 2
Fore
SplineSet
808.51 1132.76 m 1,0,0
 808.51 0 l 1,0,0
 443.16 0 l 1,0,0
 443.16 1132.76 l 1,0,0
 7.59 1132.76 l 1,0,0
 7.59 1409 l 1,0,0
 1245.75 1409 l 1,0,0
 1245.75 1132.76 l 1,0,0
 808.51 1132.76 l 1,0,0
EndSplineSet
EndChar

StartChar: U
Encoding: 85 85 56
Width: 1479
GlyphClass: 2
Flags: W
LayerCount: 2
Fore
SplineSet
717.64 -20 m 0,0,0
 509.57 -20 509.57 -20 372.22 43.165 c 0,0,0
 234.87 106.33 234.87 106.33 167.21 231.175 c 0,0,0
 99.55 356.02 99.55 356.02 99.55 538.72 c 2,0,0
 99.55 1409 l 1,0,0
 464.23 1409 l 1,0,0
 464.23 566.41 l 2,0,0
 464.23 416.83 464.23 416.83 531.335 339.375 c 0,0,0
 598.44 261.92 598.44 261.92 731.67 261.92 c 0,0,0
 868.23 261.92 868.23 261.92 939.495 343.71 c 0,0,0
 1010.76 425.5 1010.76 425.5 1010.76 574.4 c 2,0,0
 1010.76 1409 l 1,0,0
 1376.11 1409 l 1,0,0
 1376.11 551.71 l 2,0,0
 1376.11 369.02 1376.11 369.02 1300.27 241.01 c 0,0,0
 1224.43 113 1224.43 113 1077.735 46.5 c 0,0,0
 931.04 -20 931.04 -20 717.64 -20 c 0,0,0
EndSplineSet
EndChar

StartChar: V
Encoding: 86 86 57
Width: 1366
GlyphClass: 2
Flags: W
LayerCount: 2
Fore
SplineSet
1348.65 1409 m 1,0,0
 868.84 0 l 1,0,0
 502.17 0 l 1,0,0
 17.35 1409 l 1,0,0
 397.04 1409 l 1,0,0
 620.04 562.29 l 2,0,0
 627.34 529.68 627.34 529.68 645.17 460.835 c 0,0,0
 663 391.99 663 391.99 687.34 284.9 c 1,0,0
 729.05 452.11 729.05 452.11 738.525 500.07 c 0,0,0
 748 548.03 748 548.03 751.3 562.29 c 2,0,0
 973.97 1409 l 1,0,0
 1348.65 1409 l 1,0,0
EndSplineSet
EndChar

StartChar: W
Encoding: 87 87 58
Width: 1933
GlyphClass: 2
Flags: W
LayerCount: 2
Fore
SplineSet
917.04 796.48 m 2,0,0
 757.21 0 l 1,0,0
 325.47 0 l 1,0,0
 -2.69 1409 l 1,0,0
 363.31 1409 l 1,0,0
 521.12 567.44 l 2,0,0
 527.42 531.87 527.42 531.87 539.57 469.585 c 0,0,0
 551.72 407.3 551.72 407.3 555.69 353.37 c 1,0,0
 567.03 407.07 567.03 407.07 572.18 440.85 c 0,0,0
 577.33 474.63 577.33 474.63 582.31 505.065 c 0,0,0
 587.29 535.5 587.29 535.5 595.95 578.5 c 2,0,0
 756.76 1409 l 1,0,0
 1185.25 1409 l 1,0,0
 1350.09 605.48 l 2,0,0
 1348.03 607.03 1348.03 607.03 1357.505 534.735 c 0,0,0
 1366.98 462.44 1366.98 462.44 1377.97 353.37 c 1,0,0
 1389.63 410.7 1389.63 410.7 1396.11 439.12 c 0,0,0
 1410.41 504 l 0,0,0
 1418.23 540.46 1418.23 540.46 1434.25 619.57 c 2,0,0
 1568.35 1409 l 1,0,0
 1934.35 1409 l 1,0,0
 1604.52 0 l 1,0,0
 1172.78 0 l 1,0,0
 1017.29 761.4 l 2,0,0
 996.94 853.5 996.94 853.5 983.615 928.5 c 0,0,0
 970.29 1003.5 970.29 1003.5 965.66 1062.4 c 1,0,0
 958.33 1026.1 958.33 1026.1 948.005 970.445 c 0,0,0
 937.68 914.79 937.68 914.79 929.19 866.13 c 0,0,0
 920.7 817.47 920.7 817.47 917.04 796.48 c 2,0,0
EndSplineSet
EndChar

StartChar: X
Encoding: 88 88 59
Width: 1366
GlyphClass: 2
Flags: W
LayerCount: 2
Fore
SplineSet
680.65 524.15 m 1,0,0
 378.91 0 l 1,0,0
 -0.76 0 l 1,0,0
 455.08 747.03 l 1,0,0
 40.24 1409 l 1,0,0
 419.91 1409 l 1,0,0
 679.98 947.85 l 1,0,0
 947.42 1409 l 1,0,0
 1323.75 1409 l 1,0,0
 931.93 742.34 l 1,0,0
 1364.75 0 l 1,0,0
 988.42 0 l 1,0,0
 680.65 524.15 l 1,0,0
EndSplineSet
EndChar

StartChar: Y
Encoding: 89 89 60
Width: 1366
GlyphClass: 2
Flags: W
LayerCount: 2
Fore
SplineSet
867.18 573.98 m 1,0,0
 867.18 0 l 1,0,0
 503.5 0 l 1,0,0
 503.5 573.98 l 1,0,0
 28.3 1409 l 1,0,0
 403.63 1409 l 1,0,0
 680.66 863.25 l 1,0,0
 965.71 1409 l 1,0,0
 1341.04 1409 l 1,0,0
 867.18 573.98 l 1,0,0
EndSplineSet
EndChar

StartChar: Z
Encoding: 90 90 61
Width: 1251
GlyphClass: 2
Flags: W
LayerCount: 2
Fore
SplineSet
1195.35 281.25 m 1,0,0
 1195.35 0 l 1,0,0
 58.32 0 l 1,0,0
 58.32 253.22 l 1,0,0
 756 1127.75 l 1,0,0
 136.33 1127.75 l 1,0,0
 136.33 1409 l 1,0,0
 1158.37 1409 l 1,0,0
 1158.37 1159.78 l 1,0,0
 460.69 281.25 l 1,0,0
 1195.35 281.25 l 1,0,0
EndSplineSet
EndChar

StartChar: bracketleft
Encoding: 91 91 62
Width: 757
GlyphClass: 2
Flags: W
LayerCount: 2
Fore
SplineSet
726.68 -192.46 m 1,0,0
 726.68 -425 l 1,0,0
 94.23 -425 l 1,0,0
 94.23 1484 l 1,0,0
 726.68 1484 l 1,0,0
 726.68 1253.13 l 1,0,0
 421.87 1253.13 l 1,0,0
 421.87 -192.46 l 1,0,0
 726.68 -192.46 l 1,0,0
EndSplineSet
EndChar

StartChar: backslash
Encoding: 92 92 63
Width: 569
GlyphClass: 2
Flags: W
LayerCount: 2
Fore
SplineSet
326.67 1485.67 m 1,0,0
 537.27 -55.07 l 1,0,0
 240 -55.07 l 1,0,0
 35.07 1485.67 l 1,0,0
 326.67 1485.67 l 1,0,0
EndSplineSet
EndChar

StartChar: bracketright
Encoding: 93 93 64
Width: 757
GlyphClass: 2
Flags: W
LayerCount: 2
Fore
SplineSet
663.48 1484 m 1,0,0
 663.48 -425 l 1,0,0
 31.03 -425 l 1,0,0
 31.03 -192.46 l 1,0,0
 339.18 -192.46 l 1,0,0
 339.18 1253.13 l 1,0,0
 31.03 1253.13 l 1,0,0
 31.03 1484 l 1,0,0
 663.48 1484 l 1,0,0
EndSplineSet
EndChar

StartChar: asciicircum
Encoding: 94 94 65
Width: 1353
GlyphClass: 2
Flags: W
LayerCount: 2
Fore
SplineSet
68.45 407.47 m 1,0,0
 474.86 1409 l 1,0,0
 876.59 1409 l 1,0,0
 1285 407.47 l 1,0,0
 1012.45 407.47 l 1,0,0
 675.06 1239.2 l 1,0,0
 339 407.47 l 1,0,0
 68.45 407.47 l 1,0,0
EndSplineSet
EndChar

StartChar: underscore
Encoding: 95 95 66
Width: 1139
GlyphClass: 2
Flags: W
LayerCount: 2
Fore
SplineSet
1153.65 -101.65 m 1,0,0
 1153.65 -144.81 l 1,0,0
 -12.63 -144.81 l 1,0,0
 -12.63 -101.65 l 1,0,0
 1153.65 -101.65 l 1,0,0
EndSplineSet
EndChar

StartChar: grave
Encoding: 96 96 67
Width: 682
GlyphClass: 2
Flags: W
LayerCount: 2
Fore
SplineSet
605.15 1209.31 m 1,0,0
 605.15 1170.94 l 1,0,0
 385.9 1170.94 l 1,0,0
 39.2 1445.6 l 1,0,0
 39.2 1497.98 l 1,0,0
 331.37 1497.98 l 1,0,0
 605.15 1209.31 l 1,0,0
EndSplineSet
EndChar

StartChar: a
Encoding: 97 97 68
Width: 1139
GlyphClass: 2
Flags: W
LayerCount: 2
Fore
SplineSet
378.93 -20 m 0,0,0
 225.95 -20 225.95 -20 133.93 65.165 c 0,0,0
 41.91 150.33 41.91 150.33 41.91 308.68 c 0,0,0
 41.91 476.68 41.91 476.68 150.74 561.67 c 0,0,0
 259.57 646.66 259.57 646.66 442.11 649.32 c 2,0,0
 668.41 653.32 l 1,0,0
 668.41 705.64 l 2,0,0
 668.41 794.22 668.41 794.22 644.14 842.035 c 0,0,0
 619.87 889.85 619.87 889.85 559.99 889.85 c 0,0,0
 510.8 889.85 510.8 889.85 486.695 858.035 c 0,0,0
 462.59 826.22 462.59 826.22 454.93 749.58 c 1,0,0
 91.58 761.57 l 1,0,0
 152.61 1102 152.61 1102 577.35 1102 c 0,0,0
 783.02 1102 783.02 1102 899.38 995.975 c 0,0,0
 1015.74 889.95 1015.74 889.95 1015.74 697.92 c 2,0,0
 1015.74 352.16 l 2,0,0
 1015.74 253.79 1015.74 253.79 1035.905 223.31 c 0,0,0
 1056.07 192.83 1056.07 192.83 1096.7 192.83 c 0,0,0
 1131.38 192.83 1131.38 192.83 1160.71 198.16 c 1,0,0
 1160.71 19.36 l 1,0,0
 1096.65 3.01 1096.65 3.01 1058.31 -5.165 c 0,0,0
 1019.97 -13.34 1019.97 -13.34 953.24 -13.34 c 0,0,0
 843.22 -13.34 843.22 -13.34 789.37 38.325 c 0,0,0
 735.52 89.99 735.52 89.99 722.84 183.62 c 1,0,0
 716.84 183.62 l 1,0,0
 664.54 89.68 664.54 89.68 577.215 34.84 c 0,0,0
 489.89 -20 489.89 -20 378.93 -20 c 0,0,0
668.41 478.89 m 1,0,0
 559.92 478.23 l 2,0,0
 479.01 470.55 479.01 470.55 456.43 460.58 c 0,0,0
 432.18 446.6 432.18 446.6 419.725 419.98 c 0,0,0
 407.27 393.36 407.27 393.36 407.27 347.43 c 0,0,0
 407.27 277.8 407.27 277.8 434.73 247.335 c 0,0,0
 462.19 216.87 462.19 216.87 501.76 216.87 c 0,0,0
 544.98 216.87 544.98 216.87 585.91 246.84 c 0,0,0
 624.5 276.81 624.5 276.81 646.455 330.26 c 0,0,0
 668.41 383.71 668.41 383.71 668.41 446.67 c 2,0,0
 668.41 478.89 l 1,0,0
EndSplineSet
EndChar

StartChar: b
Encoding: 98 98 69
Width: 1326
GlyphClass: 2
Flags: W
LayerCount: 2
Fore
SplineSet
1243.38 544.33 m 0,0,0
 1243.38 286.38 1243.38 286.38 1130.52 133.19 c 0,0,0
 1017.66 -20 1017.66 -20 816.99 -20 c 0,0,0
 707.35 -20 707.35 -20 621.675 33.685 c 0,0,0
 536 87.37 536 87.37 495.02 178.02 c 1,0,0
 493.02 178.02 l 1,0,0
 493.02 153.01 493.02 153.01 491.02 116.68 c 0,0,0
 489.02 80.35 489.02 80.35 485.35 47.85 c 0,0,0
 481.68 15.35 481.68 15.35 476.34 0 c 1,0,0
 137.01 0 l 1,0,0
 141.68 60.4 141.68 60.4 144.015 125.92 c 0,0,0
 146.35 191.44 146.35 191.44 146.35 263.08 c 2,0,0
 146.35 1484 l 1,0,0
 495.02 1484 l 1,0,0
 495.02 1076.03 l 2,0,0
 495.02 1023.99 495.02 1023.99 493.185 976.305 c 0,0,0
 491.35 928.62 491.35 928.62 491.02 884.62 c 1,0,0
 495.02 884.62 l 1,0,0
 540.01 988.62 540.01 988.62 630.025 1045.31 c 0,0,0
 720.04 1102 720.04 1102 847.05 1102 c 0,0,0
 1030.34 1102 1030.34 1102 1136.86 951.475 c 0,0,0
 1243.38 800.95 1243.38 800.95 1243.38 544.33 c 0,0,0
880.7 548.35 m 0,0,0
 880.7 703.54 880.7 703.54 830.72 786.51 c 0,0,0
 780.74 869.48 780.74 869.48 682.48 869.48 c 0,0,0
 593.94 869.48 593.94 869.48 541.14 779.675 c 0,0,0
 488.34 689.87 488.34 689.87 488.34 540.69 c 0,0,0
 488.34 396.16 488.34 396.16 540.475 303.845 c 0,0,0
 592.61 211.53 592.61 211.53 680.48 211.53 c 0,0,0
 776.4 211.53 776.4 211.53 828.55 299.505 c 0,0,0
 880.7 387.48 880.7 387.48 880.7 548.35 c 0,0,0
EndSplineSet
EndChar

StartChar: c
Encoding: 99 99 70
Width: 1216
GlyphClass: 2
Flags: W
LayerCount: 2
Fore
SplineSet
621.47 -20 m 0,0,0
 362.74 -20 362.74 -20 219.025 128.51 c 0,0,0
 75.31 277.02 75.31 277.02 75.31 530.31 c 0,0,0
 75.31 794.96 75.31 794.96 220.36 948.48 c 0,0,0
 365.41 1102 365.41 1102 629.49 1102 c 0,0,0
 837.24 1102 837.24 1102 972.625 999.3 c 0,0,0
 1108.01 896.6 1108.01 896.6 1142.69 715.54 c 1,0,0
 794.03 701.54 l 1,0,0
 783.37 779.85 783.37 779.85 741.4 827.005 c 0,0,0
 699.43 874.16 699.43 874.16 622.82 874.16 c 0,0,0
 536.6 874.16 536.6 874.16 489.3 786.675 c 0,0,0
 442 699.19 442 699.19 442 546 c 0,0,0
 442 378.43 442 378.43 489.125 291.965 c 0,0,0
 536.25 205.5 536.25 205.5 628.16 205.5 c 0,0,0
 697.44 205.5 697.44 205.5 744.405 254.995 c 0,0,0
 791.37 304.49 791.37 304.49 803.03 399.13 c 1,0,0
 1152.03 385.46 l 1,0,0
 1136.36 264.76 1136.36 264.76 1064.16 173.565 c 0,0,0
 991.96 82.37 991.96 82.37 877.575 31.185 c 0,0,0
 763.19 -20 763.19 -20 621.47 -20 c 0,0,0
EndSplineSet
EndChar

StartChar: d
Encoding: 100 100 71
Width: 1326
GlyphClass: 2
Flags: W
LayerCount: 2
Fore
SplineSet
850.03 0 m 1,0,0
 848.03 9.33 848.03 9.33 843.025 42.335 c 0,0,0
 838.02 75.34 838.02 75.34 834.85 114.01 c 0,0,0
 831.68 152.68 831.68 152.68 831.68 177.34 c 1,0,0
 827.68 177.34 l 1,0,0
 784.36 83.36 784.36 83.36 696.015 31.68 c 0,0,0
 607.67 -20 607.67 -20 475.65 -20 c 0,0,0
 297.37 -20 297.37 -20 190.015 133.865 c 0,0,0
 82.66 287.73 82.66 287.73 82.66 542.68 c 0,0,0
 82.66 802.3 82.66 802.3 197.19 952.15 c 0,0,0
 311.72 1102 311.72 1102 510.72 1102 c 0,0,0
 620.36 1102 620.36 1102 704.865 1051.99 c 0,0,0
 789.37 1001.98 789.37 1001.98 831.02 908.99 c 1,0,0
 833.02 908.99 l 1,0,0
 831.02 1125.18 l 1,0,0
 831.02 1484 l 1,0,0
 1179.69 1484 l 1,0,0
 1179.69 244.71 l 2,0,0
 1179.69 218.16 1179.69 218.16 1182.025 156.815 c 0,0,0
 1184.36 95.47 1184.36 95.47 1189.03 0 c 1,0,0
 850.03 0 l 1,0,0
445.34 538.66 m 0,0,0
 445.34 383.47 445.34 383.47 497.825 295.49 c 0,0,0
 550.31 207.51 550.31 207.51 643.56 207.51 c 0,0,0
 726.42 207.51 726.42 207.51 782.06 299.315 c 0,0,0
 837.7 391.12 837.7 391.12 837.7 542.31 c 0,0,0
 837.7 690.51 837.7 690.51 786.235 781.325 c 0,0,0
 734.77 872.14 734.77 872.14 645.56 872.14 c 0,0,0
 547.97 872.14 547.97 872.14 496.655 786.67 c 0,0,0
 445.34 701.2 445.34 701.2 445.34 538.66 c 0,0,0
EndSplineSet
EndChar

StartChar: e
Encoding: 101 101 72
Width: 1139
GlyphClass: 2
Flags: W
LayerCount: 2
Fore
SplineSet
441.33 476.28 m 1,0,0
 441.33 337.04 441.33 337.04 487.435 270.275 c 0,0,0
 533.54 203.51 533.54 203.51 614.74 203.51 c 0,0,0
 659.93 203.51 659.93 203.51 692.02 226.295 c 0,0,0
 724.11 249.08 724.11 249.08 739.09 307.72 c 1,0,0
 1075.78 299.46 l 1,0,0
 948.72 -20 948.72 -20 591.36 -20 c 0,0,0
 344.68 -20 344.68 -20 209.995 125.505 c 0,0,0
 75.31 271.01 75.31 271.01 75.31 544.66 c 0,0,0
 75.31 812.66 75.31 812.66 213.335 957.33 c 0,0,0
 351.36 1102 351.36 1102 602.73 1102 c 0,0,0
 831.71 1102 831.71 1102 957.39 940.465 c 0,0,0
 1083.07 778.93 1083.07 778.93 1083.07 473.56 c 2,0,0
 1083.07 476.28 l 1,0,0
 441.33 476.28 l 1,0,0
753.45 677.74 m 1,0,0
 750.14 781.94 750.14 781.94 706.53 838.73 c 0,0,0
 662.92 895.52 662.92 895.52 598.06 895.52 c 0,0,0
 520.5 895.52 520.5 895.52 482.41 838.915 c 0,0,0
 444.32 782.31 444.32 782.31 443.33 677.74 c 1,0,0
 753.45 677.74 l 1,0,0
EndSplineSet
EndChar

StartChar: f
Encoding: 102 102 73
Width: 757
GlyphClass: 2
Flags: W
LayerCount: 2
Fore
SplineSet
548.04 852.47 m 1,0,0
 548.04 0 l 1,0,0
 201.04 0 l 1,0,0
 201.04 852.47 l 1,0,0
 39.02 852.47 l 1,0,0
 39.02 1082 l 1,0,0
 201.04 1082 l 1,0,0
 201.04 1188.97 l 2,0,0
 201.04 1335.3 201.04 1335.3 287.75 1410.32 c 0,0,0
 374.46 1485.34 374.46 1485.34 550.21 1485.34 c 0,0,0
 636.9 1485.34 636.9 1485.34 762.38 1466.66 c 1,0,0
 762.38 1256.18 l 1,0,0
 727.74 1265.85 727.74 1265.85 679.04 1265.85 c 0,0,0
 605.03 1265.85 605.03 1265.85 576.535 1241.705 c 0,0,0
 548.04 1217.56 548.04 1217.56 548.04 1158.96 c 2,0,0
 548.04 1082 l 1,0,0
 762.38 1082 l 1,0,0
 762.38 852.47 l 1,0,0
 548.04 852.47 l 1,0,0
EndSplineSet
EndChar

StartChar: g
Encoding: 103 103 74
Width: 1326
GlyphClass: 2
Flags: W
LayerCount: 2
Fore
SplineSet
628.16 -440.03 m 0,0,0
 416.09 -440.03 416.09 -440.03 285.205 -360.51 c 0,0,0
 154.32 -280.99 154.32 -280.99 127.66 -132.95 c 1,0,0
 475.66 -95.26 l 1,0,0
 488.65 -153.56 488.65 -153.56 530.11 -188.215 c 0,0,0
 571.57 -222.87 571.57 -222.87 638.17 -222.87 c 0,0,0
 743.78 -222.87 743.78 -222.87 788.735 -155.56 c 0,0,0
 833.69 -88.25 833.69 -88.25 833.69 43.7 c 2,0,0
 837.03 201 l 1,0,0
 835.03 201 l 1,0,0
 792.38 103.68 792.38 103.68 706.72 56.19 c 0,0,0
 621.06 8.7 621.06 8.7 487.03 8.7 c 0,0,0
 304.73 8.7 304.73 8.7 193.695 157.4 c 0,0,0
 82.66 306.1 82.66 306.1 82.66 557.37 c 0,0,0
 82.66 807.63 82.66 807.63 194.015 956.655 c 0,0,0
 305.37 1105.68 305.37 1105.68 508.7 1105.68 c 0,0,0
 628.71 1105.68 628.71 1105.68 708.2 1059.86 c 0,0,0
 787.69 1014.04 787.69 1014.04 833.69 915.37 c 1,0,0
 840.7 915.37 l 1,0,0
 840.7 942.05 840.7 942.05 842.7 973.695 c 0,0,0
 844.7 1005.34 844.7 1005.34 848.535 1034.99 c 0,0,0
 852.37 1064.64 852.37 1064.64 856.04 1082 c 1,0,0
 1185.69 1082 l 1,0,0
 1179.69 937.82 1179.69 937.82 1179.69 814.58 c 2,0,0
 1179.69 34.34 l 2,0,0
 1179.69 -198.67 1179.69 -198.67 1036.63 -319.35 c 0,0,0
 893.57 -440.03 893.57 -440.03 628.16 -440.03 c 0,0,0
837.03 566.05 m 0,0,0
 837.03 712.95 837.03 712.95 791.6 793.05 c 0,0,0
 746.17 873.15 746.17 873.15 646.22 873.15 c 0,0,0
 551.64 873.15 551.64 873.15 499.495 789.85 c 0,0,0
 447.35 706.55 447.35 706.55 447.35 556.03 c 0,0,0
 447.35 410.85 447.35 410.85 500.505 328.045 c 0,0,0
 553.66 245.24 553.66 245.24 644.89 245.24 c 0,0,0
 746.17 245.24 746.17 245.24 791.6 326.68 c 0,0,0
 837.03 408.12 837.03 408.12 837.03 566.05 c 0,0,0
EndSplineSet
EndChar

StartChar: h
Encoding: 104 104 75
Width: 1326
GlyphClass: 2
Flags: W
LayerCount: 2
Fore
SplineSet
489.01 845.23 m 1,0,0
 545.34 981.29 545.34 981.29 634.355 1041.645 c 0,0,0
 723.37 1102 723.37 1102 838.35 1102 c 0,0,0
 1007.67 1102 1007.67 1102 1105.365 986.285 c 0,0,0
 1203.06 870.57 1203.06 870.57 1203.06 662.55 c 2,0,0
 1203.06 0 l 1,0,0
 856.73 0 l 1,0,0
 856.73 552.4 l 2,0,0
 856.73 692.72 856.73 692.72 811.075 767.74 c 0,0,0
 765.42 842.76 765.42 842.76 683.83 842.76 c 0,0,0
 598.58 842.76 598.58 842.76 545.46 755.595 c 0,0,0
 492.34 668.43 492.34 668.43 492.34 539.47 c 2,0,0
 492.34 0 l 1,0,0
 143.67 0 l 1,0,0
 143.67 1484 l 1,0,0
 492.34 1484 l 1,0,0
 492.34 1066.27 l 2,0,0
 492.34 1032.95 492.34 1032.95 492.01 1002.645 c 0,0,0
 491.68 972.34 491.68 972.34 490.18 935.665 c 0,0,0
 488.68 898.99 488.68 898.99 484.34 845.23 c 1,0,0
 489.01 845.23 l 1,0,0
EndSplineSet
EndChar

StartChar: i
Encoding: 105 105 76
Width: 645
GlyphClass: 2
Flags: W
LayerCount: 2
Fore
SplineSet
495.69 1484 m 1,0,0
 495.69 1253.55 l 1,0,0
 147.02 1253.55 l 1,0,0
 147.02 1484 l 1,0,0
 495.69 1484 l 1,0,0
495.69 1082 m 1,0,0
 495.69 0 l 1,0,0
 147.02 0 l 1,0,0
 147.02 1082 l 1,0,0
 495.69 1082 l 1,0,0
EndSplineSet
Substitution2: "Single Substitution lookup 3 subtable" dotlessi
EndChar

StartChar: j
Encoding: 106 106 77
Width: 645
GlyphClass: 2
Flags: W
LayerCount: 2
Fore
SplineSet
497.36 1484 m 1,0,0
 497.36 1253.55 l 1,0,0
 148.69 1253.55 l 1,0,0
 148.69 1484 l 1,0,0
 497.36 1484 l 1,0,0
178.87 -425 m 0,0,0
 65.8 -425 65.8 -425 -19.94 -416 c 1,0,0
 -19.94 -178.47 l 1,0,0
 -8.95 -178.8 -8.95 -178.8 1.875 -179.965 c 0,0,0
 12.7 -181.13 12.7 -181.13 23.69 -181.13 c 0,0,0
 97.7 -181.13 97.7 -181.13 123.195 -152.645 c 0,0,0
 148.69 -124.16 148.69 -124.16 148.69 -28.51 c 2,0,0
 148.69 1082 l 1,0,0
 497.36 1082 l 1,0,0
 497.36 -123.98 l 2,0,0
 497.36 -260.28 497.36 -260.28 416.485 -342.64 c 0,0,0
 335.61 -425 335.61 -425 178.87 -425 c 0,0,0
EndSplineSet
Substitution2: "Single Substitution lookup 3 subtable" uni0237
EndChar

StartChar: k
Encoding: 107 107 78
Width: 1216
GlyphClass: 2
Flags: W
LayerCount: 2
Fore
SplineSet
495.02 420.07 m 1,0,0
 495.02 0 l 1,0,0
 146.35 0 l 1,0,0
 146.35 1484 l 1,0,0
 495.02 1484 l 1,0,0
 495.02 685.59 l 1,0,0
 821.39 1082 l 1,0,0
 1184.36 1082 l 1,0,0
 843.89 688.81 l 1,0,0
 1217.38 0 l 1,0,0
 846.06 0 l 1,0,0
 608.65 487.32 l 1,0,0
 495.02 420.07 l 1,0,0
EndSplineSet
EndChar

StartChar: l
Encoding: 108 108 79
Width: 645
GlyphClass: 2
Flags: W
LayerCount: 2
Fore
SplineSet
495.02 1484 m 1,0,0
 495.02 0 l 1,0,0
 146.35 0 l 1,0,0
 146.35 1484 l 1,0,0
 495.02 1484 l 1,0,0
EndSplineSet
EndChar

StartChar: m
Encoding: 109 109 80
Width: 1898
GlyphClass: 2
Flags: W
LayerCount: 2
Fore
SplineSet
493.01 548.51 m 2,0,0
 493.01 0 l 1,0,0
 143.67 0 l 1,0,0
 143.67 832.63 l 2,0,0
 143.67 914.27 143.67 914.27 140.5 968.43 c 0,0,0
 137.33 1022.59 137.33 1022.59 134.33 1082 c 1,0,0
 467.99 1082 l 1,0,0
 469.99 1076.7 469.99 1076.7 473.66 1023.825 c 0,0,0
 477.33 970.95 477.33 970.95 480.835 916.41 c 0,0,0
 484.34 861.87 484.34 861.87 484.34 846.9 c 1,0,0
 489.01 846.9 l 1,0,0
 536.99 976.93 536.99 976.93 616.165 1040.3 c 0,0,0
 695.34 1103.67 695.34 1103.67 803.34 1103.67 c 0,0,0
 928.01 1103.67 928.01 1103.67 1006.19 1037.97 c 0,0,0
 1084.37 972.27 1084.37 972.27 1109.03 846.9 c 1,0,0
 1117.04 846.9 l 1,0,0
 1171.37 984.29 1171.37 984.29 1246.695 1043.98 c 0,0,0
 1322.02 1103.67 1322.02 1103.67 1445.04 1103.67 c 0,0,0
 1599.02 1103.67 1599.02 1103.67 1687.715 983.775 c 0,0,0
 1776.41 863.88 1776.41 863.88 1776.41 664.22 c 2,0,0
 1776.41 0 l 1,0,0
 1429.74 0 l 1,0,0
 1429.74 554.07 l 2,0,0
 1429.74 687.69 1429.74 687.69 1390.08 766.06 c 0,0,0
 1350.42 844.43 1350.42 844.43 1288.52 844.43 c 0,0,0
 1230.64 844.43 1230.64 844.43 1182.675 770.29 c 0,0,0
 1134.71 696.15 1134.71 696.15 1134.71 570.22 c 2,0,0
 1134.71 0 l 1,0,0
 788.04 0 l 1,0,0
 788.04 554.07 l 2,0,0
 788.04 687.69 788.04 687.69 748.38 766.06 c 0,0,0
 708.72 844.43 708.72 844.43 646.82 844.43 c 0,0,0
 581.92 844.43 581.92 844.43 537.465 758.1 c 0,0,0
 493.01 671.77 493.01 671.77 493.01 548.51 c 2,0,0
EndSplineSet
EndChar

StartChar: n
Encoding: 110 110 81
Width: 1326
GlyphClass: 2
Flags: W
LayerCount: 2
Fore
SplineSet
492.34 548.51 m 2,0,0
 492.34 0 l 1,0,0
 143.67 0 l 1,0,0
 143.67 832.63 l 2,0,0
 143.67 914.27 143.67 914.27 140.5 968.43 c 0,0,0
 137.33 1022.59 137.33 1022.59 134.33 1082 c 1,0,0
 467.99 1082 l 1,0,0
 469.99 1074.69 469.99 1074.69 473.995 1019.805 c 0,0,0
 478 964.92 478 964.92 481.505 910.715 c 0,0,0
 485.01 856.51 485.01 856.51 484.34 846.9 c 1,0,0
 489.01 846.9 l 1,0,0
 542.66 978.94 542.66 978.94 631.675 1041.305 c 0,0,0
 720.69 1103.67 720.69 1103.67 838.35 1103.67 c 0,0,0
 1006.33 1103.67 1006.33 1103.67 1104.695 987.62 c 0,0,0
 1203.06 871.57 1203.06 871.57 1203.06 664.22 c 2,0,0
 1203.06 0 l 1,0,0
 856.73 0 l 1,0,0
 856.73 554.07 l 2,0,0
 856.73 689.03 856.73 689.03 810.07 766.73 c 0,0,0
 763.41 844.43 763.41 844.43 683.83 844.43 c 0,0,0
 600.59 844.43 600.59 844.43 546.465 757.935 c 0,0,0
 492.34 671.44 492.34 671.44 492.34 548.51 c 2,0,0
EndSplineSet
EndChar

StartChar: o
Encoding: 111 111 82
Width: 1326
GlyphClass: 2
Flags: W
LayerCount: 2
Fore
SplineSet
1250.06 542 m 0,0,0
 1250.06 293.07 1250.06 293.07 1089.99 136.535 c 0,0,0
 929.92 -20 929.92 -20 658.52 -20 c 0,0,0
 394.8 -20 394.8 -20 235.39 133.685 c 0,0,0
 75.98 287.37 75.98 287.37 75.98 542 c 0,0,0
 75.98 790.27 75.98 790.27 235.055 946.135 c 0,0,0
 394.13 1102 394.13 1102 664.52 1102 c 0,0,0
 940.91 1102 940.91 1102 1095.485 952.14 c 0,0,0
 1250.06 802.28 1250.06 802.28 1250.06 542 c 0,0,0
885.71 542 m 0,0,0
 885.71 714.23 885.71 714.23 825.055 791.515 c 0,0,0
 764.4 868.8 764.4 868.8 669.19 868.8 c 0,0,0
 561.29 868.8 561.29 868.8 501.645 785.34 c 0,0,0
 442 701.88 442 701.88 442 542 c 0,0,0
 442 383.11 442 383.11 499.81 297.32 c 0,0,0
 557.62 211.53 557.62 211.53 654.85 211.53 c 0,0,0
 763.41 211.53 763.41 211.53 824.56 296.325 c 0,0,0
 885.71 381.12 885.71 381.12 885.71 542 c 0,0,0
EndSplineSet
EndChar

StartChar: p
Encoding: 112 112 83
Width: 1326
GlyphClass: 2
Flags: W
LayerCount: 2
Fore
SplineSet
1243.38 546 m 0,0,0
 1243.38 283.04 1243.38 283.04 1128.85 131.52 c 0,0,0
 1014.32 -20 1014.32 -20 816.99 -20 c 0,0,0
 592.04 -20 592.04 -20 494.35 174.68 c 1,0,0
 487.68 174.68 l 1,0,0
 495.02 129.27 495.02 129.27 495.02 -15.36 c 2,0,0
 495.02 -425 l 1,0,0
 146.35 -425 l 1,0,0
 146.35 814.24 l 2,0,0
 146.35 887.22 146.35 887.22 144.015 953.575 c 0,0,0
 141.68 1019.93 141.68 1019.93 137.01 1082 c 1,0,0
 476.34 1082 l 1,0,0
 482.35 1064.64 482.35 1064.64 484.85 1040.495 c 0,0,0
 487.35 1016.35 487.35 1016.35 488.515 983.365 c 0,0,0
 489.68 950.38 489.68 950.38 489.68 904.66 c 1,0,0
 493.68 904.66 l 1,0,0
 540.01 1004.66 540.01 1004.66 632.37 1056.17 c 0,0,0
 724.73 1107.68 724.73 1107.68 847.05 1107.68 c 0,0,0
 1028.68 1107.68 1028.68 1107.68 1136.03 954.475 c 0,0,0
 1243.38 801.27 1243.38 801.27 1243.38 546 c 0,0,0
880.7 548.68 m 0,0,0
 880.7 701.2 880.7 701.2 828.885 788.18 c 0,0,0
 777.07 875.16 777.07 875.16 679.14 875.16 c 0,0,0
 591.26 875.16 591.26 875.16 539.8 780.175 c 0,0,0
 488.34 685.19 488.34 685.19 488.34 544.7 c 0,0,0
 488.34 395.16 488.34 395.16 542.145 303.345 c 0,0,0
 595.95 211.53 595.95 211.53 677.14 211.53 c 0,0,0
 776.07 211.53 776.07 211.53 828.385 301.68 c 0,0,0
 880.7 391.83 880.7 391.83 880.7 548.68 c 0,0,0
EndSplineSet
EndChar

StartChar: q
Encoding: 113 113 84
Width: 1326
GlyphClass: 2
Flags: W
LayerCount: 2
Fore
SplineSet
82.66 542.68 m 0,0,0
 82.66 800.63 82.66 800.63 198.86 952.15 c 0,0,0
 315.06 1103.67 315.06 1103.67 514.06 1103.67 c 0,0,0
 628.71 1103.67 628.71 1103.67 710.545 1051.82 c 0,0,0
 792.38 999.97 792.38 999.97 833.02 903.98 c 1,0,0
 833.02 942.35 833.02 942.35 835.855 974.83 c 0,0,0
 838.69 1007.31 838.69 1007.31 843.36 1032.62 c 0,0,0
 848.03 1057.93 848.03 1057.93 850.03 1072.62 c 1,0,0
 1185.02 1072.62 l 1,0,0
 1182.69 1001.87 1182.69 1001.87 1181.19 947.91 c 0,0,0
 1179.69 893.95 1179.69 893.95 1179.69 854.44 c 2,0,0
 1179.69 -425 l 1,0,0
 834.36 -425 l 1,0,0
 834.36 32.37 l 1,0,0
 840.03 181.34 l 1,0,0
 838.03 181.34 l 1,0,0
 797.39 86.03 797.39 86.03 702.525 33.015 c 0,0,0
 607.66 -20 607.66 -20 475.65 -20 c 0,0,0
 298.04 -20 298.04 -20 190.35 133.195 c 0,0,0
 82.66 286.39 82.66 286.39 82.66 542.68 c 0,0,0
837.7 540.64 m 0,0,0
 837.7 688.18 837.7 688.18 787.07 779.325 c 0,0,0
 736.44 870.47 736.44 870.47 648.9 870.47 c 0,0,0
 553.65 870.47 553.65 870.47 499.495 784.335 c 0,0,0
 445.34 698.2 445.34 698.2 445.34 538.66 c 0,0,0
 445.34 383.47 445.34 383.47 497.49 295.49 c 0,0,0
 549.64 207.51 549.64 207.51 646.9 207.51 c 0,0,0
 728.09 207.51 728.09 207.51 782.895 297.305 c 0,0,0
 837.7 387.1 837.7 387.1 837.7 540.64 c 0,0,0
EndSplineSet
EndChar

StartChar: r
Encoding: 114 114 85
Width: 874
GlyphClass: 2
Flags: W
LayerCount: 2
Fore
SplineSet
492.34 508.89 m 2,0,0
 492.34 0 l 1,0,0
 143.67 0 l 1,0,0
 143.67 826.66 l 2,0,0
 143.67 937.1 143.67 937.1 140.5 994.255 c 0,0,0
 137.33 1051.41 137.33 1051.41 134.33 1082 c 1,0,0
 467.99 1082 l 1,0,0
 469.99 1097.79 469.99 1097.79 472.325 1070.81 c 0,0,0
 474.66 1043.83 474.66 1043.83 477.33 997.96 c 0,0,0
 480 952.09 480 952.09 482.17 907.705 c 0,0,0
 484.34 863.32 484.34 863.32 484.34 844.3 c 1,0,0
 488.34 844.3 l 1,0,0
 535.04 965.68 535.04 965.68 566.03 1011.33 c 0,0,0
 596.02 1056.32 596.02 1056.32 639.35 1079.995 c 0,0,0
 682.68 1103.67 682.68 1103.67 748.68 1103.67 c 0,0,0
 814.07 1103.67 814.07 1103.67 845.06 1085.32 c 1,0,0
 845.06 803.42 l 1,0,0
 755.95 821.77 755.95 821.77 708.98 821.77 c 0,0,0
 608.67 821.77 608.67 821.77 550.505 744.475 c 0,0,0
 492.34 667.18 492.34 667.18 492.34 508.89 c 2,0,0
EndSplineSet
EndChar

StartChar: s
Encoding: 115 115 86
Width: 1216
GlyphClass: 2
Flags: W
LayerCount: 2
Fore
SplineSet
1125.35 327.39 m 0,0,0
 1125.35 167.71 1125.35 167.71 988.14 73.855 c 0,0,0
 850.93 -20 850.93 -20 611.2 -20 c 0,0,0
 374.13 -20 374.13 -20 249.6 53.18 c 0,0,0
 125.07 126.36 125.07 126.36 82.05 280.72 c 1,0,0
 388.01 321.74 l 1,0,0
 407.67 251.44 407.67 251.44 445.435 225.135 c 0,0,0
 483.2 198.83 483.2 198.83 611.2 198.83 c 0,0,0
 716.47 198.83 716.47 198.83 764.105 220.79 c 0,0,0
 811.74 242.75 811.74 242.75 811.74 293.35 c 0,0,0
 811.74 337.31 811.74 337.31 768.575 361.445 c 0,0,0
 725.41 385.58 725.41 385.58 617.39 403.23 c 0,0,0
 563.18 409.18 563.18 409.18 504.7 420.83 c 0,0,0
 446.22 432.48 446.22 432.48 396.695 446.98 c 0,0,0
 347.17 461.48 347.17 461.48 315.15 474.48 c 0,0,0
 220.76 517.49 220.76 517.49 172.905 587.52 c 0,0,0
 125.05 657.55 125.05 657.55 125.05 760.93 c 0,0,0
 125.05 920.62 125.05 920.62 253.93 1013.15 c 0,0,0
 382.81 1105.68 382.81 1105.68 613.2 1105.68 c 0,0,0
 815.58 1105.68 815.58 1105.68 941.12 1022.64 c 0,0,0
 1066.66 939.6 1066.66 939.6 1096.33 795.59 c 1,0,0
 789.04 765.57 l 1,0,0
 779.05 827.55 779.05 827.55 744.445 856.03 c 0,0,0
 709.84 884.51 709.84 884.51 613.2 884.51 c 0,0,0
 527.94 884.51 527.94 884.51 483.3 866.715 c 0,0,0
 438.66 848.92 438.66 848.92 438.66 798.97 c 0,0,0
 438.66 757.33 438.66 757.33 480.845 735.19 c 0,0,0
 523.03 713.05 523.03 713.05 612.69 698.4 c 0,0,0
 741.03 675.08 741.03 675.08 829.815 652.94 c 0,0,0
 918.6 630.8 918.6 630.8 985.97 590.79 c 0,0,0
 1046.31 554.8 1046.31 554.8 1085.83 492.62 c 0,0,0
 1125.35 430.44 1125.35 430.44 1125.35 327.39 c 0,0,0
EndSplineSet
EndChar

StartChar: t
Encoding: 116 116 87
Width: 757
GlyphClass: 2
Flags: W
LayerCount: 2
Fore
SplineSet
726.01 21.36 m 1,0,0
 614.63 -19.34 614.63 -19.34 452.16 -19.34 c 0,0,0
 317.44 -19.34 317.44 -19.34 241.73 52.18 c 0,0,0
 166.02 123.7 166.02 123.7 166.02 270.75 c 2,0,0
 166.02 852.47 l 1,0,0
 20.98 852.47 l 1,0,0
 20.98 1082 l 1,0,0
 184.71 1082 l 1,0,0
 296.16 1344.04 l 1,0,0
 509.68 1344.04 l 1,0,0
 509.68 1082 l 1,0,0
 718.03 1082 l 1,0,0
 718.03 852.47 l 1,0,0
 509.68 852.47 l 1,0,0
 509.68 371.54 l 2,0,0
 509.68 291.87 509.68 291.87 542.695 250.35 c 0,0,0
 575.71 208.83 575.71 208.83 638.71 208.83 c 0,0,0
 666.03 208.83 666.03 208.83 726.01 222.83 c 1,0,0
 726.01 21.36 l 1,0,0
EndSplineSet
EndChar

StartChar: u
Encoding: 117 117 88
Width: 1326
GlyphClass: 2
Flags: W
LayerCount: 2
Fore
SplineSet
837.03 235.1 m 1,0,0
 785.05 104.73 785.05 104.73 695.2 42.365 c 0,0,0
 605.35 -20 605.35 -20 487.69 -20 c 0,0,0
 319.71 -20 319.71 -20 221.345 96.89 c 0,0,0
 122.98 213.78 122.98 213.78 122.98 417.78 c 2,0,0
 122.98 1082 l 1,0,0
 470.98 1082 l 1,0,0
 470.98 527.93 l 2,0,0
 470.98 399.33 470.98 399.33 517.305 318.45 c 0,0,0
 563.63 237.57 563.63 237.57 642.21 237.57 c 0,0,0
 725.45 237.57 725.45 237.57 779.575 324.065 c 0,0,0
 833.7 410.56 833.7 410.56 833.7 533.49 c 2,0,0
 833.7 1082 l 1,0,0
 1182.37 1082 l 1,0,0
 1182.37 249.37 l 2,0,0
 1182.37 197.12 1182.37 197.12 1184.705 134.945 c 0,0,0
 1187.04 72.77 1187.04 72.77 1191.71 0 c 1,0,0
 858.05 0 l 1,0,0
 848.7 116.89 848.7 116.89 845.365 178.93 c 0,0,0
 842.03 240.97 842.03 240.97 843.37 235.1 c 1,0,0
 837.03 235.1 l 1,0,0
EndSplineSet
EndChar

StartChar: v
Encoding: 118 118 89
Width: 1216
GlyphClass: 2
Flags: W
LayerCount: 2
Fore
SplineSet
1205.71 1082 m 1,0,0
 810.06 0 l 1,0,0
 391.65 0 l 1,0,0
 8.67 1082 l 1,0,0
 376.02 1082 l 1,0,0
 532.19 543.33 l 2,0,0
 540.86 514.98 540.86 514.98 558.695 450.47 c 0,0,0
 576.53 385.96 576.53 385.96 604.53 284.62 c 1,0,0
 602.5 281.87 602.5 281.87 615 323.535 c 0,0,0
 627.5 365.2 627.5 365.2 644.175 421.9 c 0,0,0
 660.85 478.6 660.85 478.6 671.85 514.61 c 2,0,0
 842.7 1082 l 1,0,0
 1205.71 1082 l 1,0,0
EndSplineSet
EndChar

StartChar: w
Encoding: 119 119 90
Width: 1669
GlyphClass: 2
Flags: W
LayerCount: 2
Fore
SplineSet
772.47 586.31 m 2,0,0
 613.21 0 l 1,0,0
 256.58 0 l 1,0,0
 -8.01 1082 l 1,0,0
 313.61 1082 l 1,0,0
 419.45 515.03 l 2,0,0
 430.79 459.65 430.79 459.65 440.12 413.99 c 0,0,0
 459.45 326.02 l 1,0,0
 468.78 374.69 468.78 374.69 474.435 423.36 c 0,0,0
 480.09 472.03 480.09 472.03 493.76 519.7 c 2,0,0
 645.67 1082 l 1,0,0
 1019.03 1082 l 1,0,0
 1169.62 517.69 l 2,0,0
 1173.27 505.76 1173.27 505.76 1183.1 458.595 c 0,0,0
 1192.93 411.43 1192.93 411.43 1207.27 326.02 c 1,0,0
 1218.27 374.02 1218.27 374.02 1228.1 418.17 c 0,0,0
 1237.93 462.32 1237.93 462.32 1247.93 515.68 c 2,0,0
 1356.43 1082 l 1,0,0
 1672.71 1082 l 1,0,0
 1406.13 0 l 1,0,0
 1050.17 0 l 1,0,0
 889.56 589.65 l 2,0,0
 886.24 599.92 886.24 599.92 871.895 664.13 c 0,0,0
 857.55 728.34 857.55 728.34 835.19 847.16 c 1,0,0
 816.16 768.38 816.16 768.38 803.155 710.035 c 0,0,0
 790.15 651.69 790.15 651.69 772.47 586.31 c 2,0,0
EndSplineSet
EndChar

StartChar: x
Encoding: 120 120 91
Width: 1216
GlyphClass: 2
Flags: W
LayerCount: 2
Fore
SplineSet
605.19 357.16 m 1,0,0
 377.32 0 l 1,0,0
 7.97 0 l 1,0,0
 411.34 561.01 l 1,0,0
 27.64 1082 l 1,0,0
 400.32 1082 l 1,0,0
 605.19 772.89 l 1,0,0
 809.73 1082 l 1,0,0
 1184.41 1082 l 1,0,0
 800.71 564.68 l 1,0,0
 1205.74 0 l 1,0,0
 831.06 0 l 1,0,0
 605.19 357.16 l 1,0,0
EndSplineSet
EndChar

StartChar: y
Encoding: 121 121 92
Width: 1216
GlyphClass: 2
Flags: W
LayerCount: 2
Fore
SplineSet
344.64 -425 m 0,0,0
 220.87 -425 220.87 -425 132.13 -410.66 c 1,0,0
 132.13 -167.11 l 1,0,0
 200.19 -176.45 200.19 -176.45 237.84 -176.45 c 0,0,0
 345.22 -176.45 345.22 -176.45 378.31 -129.815 c 0,0,0
 411.4 -83.18 411.4 -83.18 450.7 15.02 c 1,0,0
 23.37 1082 l 1,0,0
 390.72 1082 l 1,0,0
 521.86 635.97 l 2,0,0
 538.51 587 538.51 587 561.165 502.66 c 0,0,0
 583.82 418.32 583.82 418.32 624.87 271.15 c 1,0,0
 646.53 377.22 646.53 377.22 664.515 460.58 c 0,0,0
 682.5 543.94 682.5 543.94 708.17 633.98 c 2,0,0
 836.68 1082 l 1,0,0
 1200.36 1082 l 1,0,0
 764.32 -95.19 l 2,0,0
 743.68 -152.8 743.68 -152.8 716.02 -198.095 c 0,0,0
 688.36 -243.39 688.36 -243.39 657.69 -283.72 c 0,0,0
 594.68 -365.38 594.68 -365.38 521.675 -395.19 c 0,0,0
 448.67 -425 448.67 -425 344.64 -425 c 0,0,0
EndSplineSet
EndChar

StartChar: z
Encoding: 122 122 93
Width: 1024
GlyphClass: 2
Flags: W
LayerCount: 2
Fore
SplineSet
968.76 249.22 m 1,0,0
 968.76 0 l 1,0,0
 81.33 0 l 1,0,0
 81.33 240.54 l 1,0,0
 526.01 836.12 l 1,0,0
 127.02 836.12 l 1,0,0
 127.02 1082 l 1,0,0
 901 1082 l 1,0,0
 901 838.12 l 1,0,0
 462 249.22 l 1,0,0
 968.76 249.22 l 1,0,0
EndSplineSet
EndChar

StartChar: braceleft
Encoding: 123 123 94
Width: 872
GlyphClass: 2
Flags: W
LayerCount: 2
Fore
SplineSet
586.48 -425 m 2,0,0
 447.79 -425 447.79 -425 359.25 -345.495 c 0,0,0
 270.71 -265.99 270.71 -265.99 270.71 -121.98 c 2,0,0
 270.71 183.91 l 2,0,0
 270.71 295.9 270.71 295.9 214.035 351.73 c 0,0,0
 157.36 407.56 157.36 407.56 32.33 407.55 c 1,0,0
 32.33 648.11 l 1,0,0
 161.37 653.78 161.37 653.78 216.04 709.61 c 0,0,0
 270.71 765.44 270.71 765.44 270.71 875.76 c 2,0,0
 270.71 1180.98 l 2,0,0
 270.71 1330.33 270.71 1330.33 357.25 1407.165 c 0,0,0
 443.79 1484 443.79 1484 586.48 1484 c 2,0,0
 825.02 1484 l 1,0,0
 825.02 1253.13 l 1,0,0
 770.37 1253.13 l 2,0,0
 679.37 1253.13 679.37 1253.13 637.53 1202.135 c 0,0,0
 595.69 1151.14 595.69 1151.14 595.69 1048.15 c 2,0,0
 595.69 784 l 2,0,0
 595.69 688.33 595.69 688.33 535.175 618.995 c 0,0,0
 474.66 549.66 474.66 549.66 379.98 532 c 1,0,0
 379.98 526.66 l 1,0,0
 479 503.99 479 503.99 537.345 435.155 c 0,0,0
 595.69 366.32 595.69 366.32 595.69 276 c 2,0,0
 595.69 12.52 l 2,0,0
 595.69 -93.48 595.69 -93.48 637.53 -142.97 c 0,0,0
 679.37 -192.46 679.37 -192.46 770.37 -192.46 c 2,0,0
 825.02 -192.46 l 1,0,0
 825.02 -425 l 1,0,0
 586.48 -425 l 2,0,0
EndSplineSet
EndChar

StartChar: bar
Encoding: 124 124 95
Width: 600
GlyphClass: 2
Flags: W
LayerCount: 2
Fore
SplineSet
464.23 1484 m 1,0,0
 464.23 -469.07 l 1,0,0
 137.91 -469.07 l 1,0,0
 137.91 1484 l 1,0,0
 464.23 1484 l 1,0,0
EndSplineSet
EndChar

StartChar: braceright
Encoding: 125 125 96
Width: 872
GlyphClass: 2
Flags: W
LayerCount: 2
Fore
SplineSet
49.03 -192.46 m 1,0,0
 104.02 -192.46 l 2,0,0
 198.36 -192.46 198.36 -192.46 237.86 -142.97 c 0,0,0
 277.36 -93.48 277.36 -93.48 277.36 12.52 c 2,0,0
 277.36 276 l 2,0,0
 277.36 363.98 277.36 363.98 336.875 433.65 c 0,0,0
 396.39 503.32 396.39 503.32 493.74 526.66 c 1,0,0
 493.74 532 l 1,0,0
 399.39 550.33 399.39 550.33 338.375 619.5 c 0,0,0
 277.36 688.67 277.36 688.67 277.36 784 c 2,0,0
 277.36 1048.15 l 2,0,0
 277.36 1151.14 277.36 1151.14 237.86 1202.135 c 0,0,0
 198.36 1253.13 198.36 1253.13 104.02 1253.13 c 2,0,0
 49.03 1253.13 l 1,0,0
 49.03 1484 l 1,0,0
 289.58 1484 l 2,0,0
 432.27 1484 432.27 1484 518.81 1407.165 c 0,0,0
 605.35 1330.33 605.35 1330.33 605.35 1180.98 c 2,0,0
 605.35 875.76 l 2,0,0
 605.35 766.44 605.35 766.44 661.69 710.11 c 0,0,0
 718.03 653.78 718.03 653.78 845.73 648.11 c 1,0,0
 845.73 407.55 l 1,0,0
 718.7 406.89 718.7 406.89 662.025 348.89 c 0,0,0
 605.35 290.89 605.35 290.89 605.35 183.91 c 2,0,0
 605.35 -121.98 l 2,0,0
 605.35 -264.99 605.35 -264.99 517.645 -344.995 c 0,0,0
 429.94 -425 429.94 -425 289.58 -425 c 2,0,0
 49.03 -425 l 1,0,0
 49.03 -192.46 l 1,0,0
EndSplineSet
EndChar

StartChar: asciitilde
Encoding: 126 126 97
Width: 1196
GlyphClass: 2
Flags: W
LayerCount: 2
Fore
SplineSet
857.36 491.21 m 0,0,0
 778.34 491.21 778.34 491.21 705.84 511.54 c 0,0,0
 633.34 531.87 633.34 531.87 557 557.87 c 0,0,0
 416.31 606.21 416.31 606.21 333.32 606.21 c 0,0,0
 259.64 606.21 259.64 606.21 199.135 584.04 c 0,0,0
 138.63 561.87 138.63 561.87 73.63 518.21 c 1,0,0
 73.63 778.11 l 1,0,0
 187.97 862.11 187.97 862.11 349.99 862.11 c 0,0,0
 487.49 862.11 487.49 862.11 676.41 792.33 c 0,0,0
 765.19 758.61 765.19 758.61 809.015 744.11 c 0,0,0
 852.84 729.61 852.84 729.61 851.04 735 c 0,0,0
 872.02 733.02 872.02 733.02 871.9 739.065 c 0,0,0
 871.78 745.11 871.78 745.11 878.37 745.11 c 0,0,0
 1014.05 745.11 1014.05 745.11 1129.05 837.11 c 1,0,0
 1129.05 571.21 l 1,0,0
 1061.03 525.87 1061.03 525.87 1002.53 508.54 c 0,0,0
 944.03 491.21 944.03 491.21 857.36 491.21 c 0,0,0
EndSplineSet
EndChar

StartChar: exclamdown
Encoding: 161 161 99
Width: 682
GlyphClass: 2
Flags: W
LayerCount: 2
Fore
SplineSet
520.16 1082 m 1,0,0
 520.16 765.77 l 1,0,0
 169.18 765.77 l 1,0,0
 169.18 1082 l 1,0,0
 520.16 1082 l 1,0,0
161.84 -327 m 1,0,0
 199.2 633.23 l 1,0,0
 484.14 633.23 l 1,0,0
 521.5 -327 l 1,0,0
 161.84 -327 l 1,0,0
EndSplineSet
EndChar

StartChar: cent
Encoding: 162 162 100
Width: 1139
GlyphClass: 2
Flags: W
LayerCount: 2
Fore
SplineSet
582.64 382.21 m 0,0,0
 665.28 382.21 665.28 382.21 721.43 438.385 c 0,0,0
 777.58 494.56 777.58 494.56 790.91 589.2 c 1,0,0
 1141.58 577.2 l 1,0,0
 1117.57 418.17 1117.57 418.17 994.18 309.635 c 0,0,0
 870.79 201.1 870.79 201.1 672.02 175.41 c 1,0,0
 672.02 -31 l 1,0,0
 484.56 -31 l 1,0,0
 484.56 172.07 l 1,0,0
 258.84 195.08 258.84 195.08 126.78 326.725 c 0,0,0
 -5.28 458.37 -5.28 458.37 -5.28 678.63 c 0,0,0
 -5.28 896.56 -5.28 896.56 122.605 1035.885 c 0,0,0
 250.49 1175.21 250.49 1175.21 484.56 1205.57 c 1,0,0
 484.56 1409 l 1,0,0
 672.02 1409 l 1,0,0
 672.02 1205.57 l 1,0,0
 858.44 1183.89 858.44 1183.89 980.17 1083.355 c 0,0,0
 1101.9 982.82 1101.9 982.82 1130.57 823.78 c 1,0,0
 783.58 809.78 l 1,0,0
 767.91 901.45 767.91 901.45 712.58 948.605 c 0,0,0
 657.25 995.76 657.25 995.76 580.64 995.76 c 0,0,0
 469.37 995.76 469.37 995.76 405.37 905.77 c 0,0,0
 341.37 815.78 341.37 815.78 341.37 692.65 c 0,0,0
 341.37 546.79 341.37 546.79 406.865 464.5 c 0,0,0
 472.36 382.21 472.36 382.21 582.64 382.21 c 0,0,0
EndSplineSet
EndChar

StartChar: sterling
Encoding: 163 163 101
Width: 1139
GlyphClass: 2
Flags: W
LayerCount: 2
Fore
SplineSet
1076.72 0 m 1,0,0
 7.21 0 l 1,0,0
 7.21 239.17 l 1,0,0
 117.92 305.21 117.92 305.21 151.735 371.85 c 0,0,0
 185.55 438.49 185.55 438.49 185.55 532.77 c 2,0,0
 185.55 589.93 l 1,0,0
 -3.79 589.93 l 1,0,0
 -3.79 787.4 l 1,0,0
 168.85 787.4 l 1,0,0
 168.85 1013.96 l 2,0,0
 168.85 1218.98 168.85 1218.98 278.53 1324.49 c 0,0,0
 388.21 1430 388.21 1430 610.93 1430 c 0,0,0
 794.67 1430 794.67 1430 889.66 1355.305 c 0,0,0
 984.65 1280.61 984.65 1280.61 1035.35 1098.13 c 1,0,0
 762.82 1057.83 l 1,0,0
 741.82 1143.54 741.82 1143.54 710.535 1176.865 c 0,0,0
 679.25 1210.19 679.25 1210.19 616.6 1210.19 c 0,0,0
 541.01 1210.19 541.01 1210.19 511.73 1152.69 c 0,0,0
 482.45 1095.19 482.45 1095.19 482.45 970.19 c 2,0,0
 482.45 787.4 l 1,0,0
 686.71 787.4 l 1,0,0
 686.71 589.93 l 1,0,0
 482.45 589.93 l 1,0,0
 482.45 524.05 l 2,0,0
 482.45 431.77 482.45 431.77 444.8 372.17 c 0,0,0
 407.15 312.57 407.15 312.57 291.74 246.52 c 1,0,0
 1076.72 246.52 l 1,0,0
 1076.72 0 l 1,0,0
EndSplineSet
EndChar

StartChar: currency
Encoding: 164 164 102
Width: 1139
GlyphClass: 2
Flags: W
LayerCount: 2
Fore
SplineSet
131.99 684 m 0,0,0
 131.99 793.61 131.99 793.61 179.93 884.23 c 1,0,0
 24.82 1039.34 l 1,0,0
 217.33 1230.85 l 1,0,0
 369.77 1076.41 l 1,0,0
 462.73 1120 462.73 1120 566.99 1120 c 0,0,0
 677.94 1120 677.94 1120 764.55 1075.07 c 1,0,0
 925.01 1235.53 l 1,0,0
 1119.19 1042.02 l 1,0,0
 956.39 880.89 l 1,0,0
 1002.99 794.62 1002.99 794.62 1002.99 684 c 0,0,0
 1002.99 578.4 1002.99 578.4 961.07 490.45 c 1,0,0
 1117.85 335.34 l 1,0,0
 922.33 138.49 l 1,0,0
 767.89 296.27 l 1,0,0
 675.6 250 675.6 250 566.99 250 c 0,0,0
 458.39 250 458.39 250 368.43 291.59 c 1,0,0
 213.33 133.15 l 1,0,0
 19.48 326.66 l 1,0,0
 176.59 487.11 l 1,0,0
 131.99 574.39 131.99 574.39 131.99 684 c 0,0,0
406.23 686 m 0,0,0
 406.23 643.07 406.23 643.07 427.195 606.29 c 0,0,0
 448.16 569.51 448.16 569.51 484.605 547.04 c 0,0,0
 521.05 524.57 521.05 524.57 566.99 524.57 c 0,0,0
 611.26 524.57 611.26 524.57 647.205 547.04 c 0,0,0
 683.15 569.51 683.15 569.51 704.95 607.125 c 0,0,0
 726.75 644.74 726.75 644.74 726.75 686 c 0,0,0
 726.75 730.6 726.75 730.6 705.785 766.21 c 0,0,0
 684.82 801.82 684.82 801.82 648.875 824.29 c 0,0,0
 612.93 846.76 612.93 846.76 566.99 846.76 c 0,0,0
 521.05 846.76 521.05 846.76 485.105 825.125 c 0,0,0
 449.16 803.49 449.16 803.49 427.695 766.71 c 0,0,0
 406.23 729.93 406.23 729.93 406.23 686 c 0,0,0
EndSplineSet
EndChar

StartChar: yen
Encoding: 165 165 103
Width: 1139
GlyphClass: 2
Flags: W
LayerCount: 2
Fore
SplineSet
734.82 191.11 m 1,0,0
 734.82 0 l 1,0,0
 399.84 0 l 1,0,0
 399.84 191.11 l 1,0,0
 93.99 191.11 l 1,0,0
 93.99 351.51 l 1,0,0
 399.84 351.51 l 1,0,0
 401.84 518.87 l 1,0,0
 93.99 518.87 l 1,0,0
 93.99 678.94 l 1,0,0
 340.51 678.94 l 1,0,0
 14.7 1409 l 1,0,0
 364 1409 l 1,0,0
 566.33 847.17 l 1,0,0
 772.66 1409 l 1,0,0
 1121.96 1409 l 1,0,0
 796.82 678.94 l 1,0,0
 1042.67 678.94 l 1,0,0
 1042.67 518.87 l 1,0,0
 734.82 518.87 l 1,0,0
 734.82 351.51 l 1,0,0
 1042.67 351.51 l 1,0,0
 1042.67 191.11 l 1,0,0
 734.82 191.11 l 1,0,0
EndSplineSet
EndChar

StartChar: brokenbar
Encoding: 166 166 104
Width: 600
GlyphClass: 2
Flags: W
LayerCount: 2
Fore
SplineSet
464.23 1433.9 m 1,0,0
 464.23 655.9 l 1,0,0
 137.91 655.9 l 1,0,0
 137.91 1433.9 l 1,0,0
 464.23 1433.9 l 1,0,0
464.23 309.93 m 1,0,0
 464.23 -469.07 l 1,0,0
 137.91 -469.07 l 1,0,0
 137.91 309.93 l 1,0,0
 464.23 309.93 l 1,0,0
EndSplineSet
EndChar

StartChar: section
Encoding: 167 167 105
Width: 1139
GlyphClass: 2
Flags: W
LayerCount: 2
Fore
SplineSet
566.29 1388.81 m 0,0,0
 774.36 1388.81 774.36 1388.81 899.23 1315.63 c 0,0,0
 1024.1 1242.45 1024.1 1242.45 1051.1 1105.43 c 1,0,0
 759.84 1077.08 l 1,0,0
 746.84 1130.37 746.84 1130.37 693.86 1161.19 c 0,0,0
 640.88 1192.01 640.88 1192.01 566.29 1192.01 c 0,0,0
 463 1192.01 463 1192.01 418.54 1169.21 c 0,0,0
 374.08 1146.41 374.08 1146.41 374.08 1085.43 c 0,0,0
 374.08 1049.12 374.08 1049.12 399.57 1024.975 c 0,0,0
 425.06 1000.83 425.06 1000.83 470.04 983.18 c 0,0,0
 515.35 963.86 515.35 963.86 646.69 936.2 c 0,0,0
 824.76 897.19 824.76 897.19 911.77 855.19 c 0,0,0
 993.11 814.86 993.11 814.86 1035.275 752.52 c 0,0,0
 1077.44 690.18 1077.44 690.18 1077.44 599.16 c 0,0,0
 1077.44 510.18 1077.44 510.18 1025.455 441.025 c 0,0,0
 973.47 371.87 973.47 371.87 895.18 342.86 c 1,0,0
 972.11 308.22 972.11 308.22 1013.425 245.39 c 0,0,0
 1054.74 182.56 1054.74 182.56 1054.74 94.9 c 0,0,0
 1054.74 -84.83 1054.74 -84.83 922.54 -176.01 c 0,0,0
 790.34 -267.19 790.34 -267.19 541.93 -267.19 c 0,0,0
 309.55 -267.19 309.55 -267.19 181.68 -195.68 c 0,0,0
 53.81 -124.17 53.81 -124.17 11.46 31.53 c 1,0,0
 299.38 72.55 l 1,0,0
 319.38 -0.75 319.38 -0.75 376.525 -35.905 c 0,0,0
 433.67 -71.06 433.67 -71.06 541.93 -71.06 c 0,0,0
 654.55 -71.06 654.55 -71.06 711.185 -46.265 c 0,0,0
 767.82 -21.47 767.82 -21.47 767.82 57.19 c 0,0,0
 767.82 99.16 767.82 99.16 749.515 124.3 c 0,0,0
 731.21 149.44 731.21 149.44 687.58 166.75 c 0,0,0
 641.61 185.73 641.61 185.73 434.5 232.75 c 0,0,0
 220.46 284.43 220.46 284.43 134.96 362.43 c 0,0,0
 49.46 440.43 49.46 440.43 49.46 552.43 c 0,0,0
 49.46 648.11 49.46 648.11 100.105 705.41 c 0,0,0
 150.75 762.71 150.75 762.71 252.41 801.06 c 1,0,0
 166.43 843.08 166.43 843.08 121.785 911.75 c 0,0,0
 77.14 980.42 77.14 980.42 77.14 1063.08 c 0,0,0
 77.14 1218.78 77.14 1218.78 202.68 1303.795 c 0,0,0
 328.22 1388.81 328.22 1388.81 566.29 1388.81 c 0,0,0
785.84 557.79 m 0,0,0
 785.84 628.12 785.84 628.12 733.54 656.74 c 0,0,0
 678.57 684.69 678.57 684.69 509.25 713 c 1,0,0
 420.29 698.65 420.29 698.65 383.345 669.865 c 0,0,0
 346.4 641.08 346.4 641.08 346.4 588.81 c 0,0,0
 346.4 553.17 346.4 553.17 371.39 531.7 c 0,0,0
 396.38 510.23 396.38 510.23 443.03 493.25 c 0,0,0
 484 477.94 484 477.94 630.37 446.61 c 1,0,0
 714.3 453.62 714.3 453.62 750.07 479.07 c 0,0,0
 785.84 504.52 785.84 504.52 785.84 557.79 c 0,0,0
EndSplineSet
EndChar

StartChar: dieresis
Encoding: 168 168 106
Width: 682
GlyphClass: 2
Flags: W
LayerCount: 2
Fore
SplineSet
710.55 1428.05 m 1,0,0
 710.55 1185.6 l 1,0,0
 457.37 1185.6 l 1,0,0
 457.37 1428.05 l 1,0,0
 710.55 1428.05 l 1,0,0
243.4 1428.05 m 1,0,0
 243.4 1185.6 l 1,0,0
 -3.43 1185.6 l 1,0,0
 -3.43 1428.05 l 1,0,0
 243.4 1428.05 l 1,0,0
EndSplineSet
EndChar

StartChar: copyright
Encoding: 169 169 107
Width: 1509
GlyphClass: 2
Flags: W
LayerCount: 2
Fore
SplineSet
1478.67 707 m 0,0,0
 1478.67 514 1478.67 514 1382.67 346 c 0,0,0
 1285.67 177 1285.67 177 1117.17 80.5 c 0,0,0
 948.67 -16 948.67 -16 755.67 -16 c 0,0,0
 559.67 -16 559.67 -16 389.67 85 c 0,0,0
 220.67 186 220.67 186 126.67 352 c 0,0,0
 32.67 518 32.67 518 32.67 707 c 0,0,0
 32.67 901 32.67 901 129.67 1068 c 0,0,0
 226.67 1236 226.67 1236 394.67 1333 c 0,0,0
 562.67 1430 562.67 1430 755.67 1430 c 0,0,0
 949.67 1430 949.67 1430 1118.67 1333 c 0,0,0
 1286.67 1236 1286.67 1236 1382.67 1068.5 c 0,0,0
 1478.67 901 1478.67 901 1478.67 707 c 0,0,0
1353.27 707 m 0,0,0
 1353.27 867.65 1353.27 867.65 1272.61 1004.3 c 0,0,0
 1191.95 1141.62 1191.95 1141.62 1052.965 1221.61 c 0,0,0
 913.98 1301.6 913.98 1301.6 755.67 1301.6 c 0,0,0
 606.04 1301.6 606.04 1301.6 470.06 1227.62 c 0,0,0
 334.08 1154.31 334.08 1154.31 247.575 1015.825 c 0,0,0
 161.07 877.34 161.07 877.34 161.07 707 c 0,0,0
 161.07 548.69 161.07 548.69 241.06 408.7 c 0,0,0
 320.05 269.38 320.05 269.38 457.535 188.72 c 0,0,0
 595.02 108.06 595.02 108.06 755.67 108.06 c 0,0,0
 916.32 108.06 916.32 108.06 1054.97 188.72 c 0,0,0
 1193.62 269.38 1193.62 269.38 1273.445 408.7 c 0,0,0
 1353.27 548.02 1353.27 548.02 1353.27 707 c 0,0,0
574.82 709 m 0,0,0
 574.82 587.4 574.82 587.4 625.78 521.105 c 0,0,0
 676.74 454.81 676.74 454.81 770.01 454.81 c 0,0,0
 894.61 454.81 894.61 454.81 941.22 589.1 c 1,0,0
 1131.37 534.06 l 1,0,0
 1076.05 406.38 1076.05 406.38 987.375 347.7 c 0,0,0
 898.7 289.02 898.7 289.02 770.01 289.02 c 0,0,0
 573.66 289.02 573.66 289.02 467.155 398.68 c 0,0,0
 360.65 508.34 360.65 508.34 360.65 709 c 0,0,0
 360.65 912 360.65 912 463.99 1014.985 c 0,0,0
 567.33 1117.97 567.33 1117.97 759.67 1117.97 c 0,0,0
 1028.72 1117.97 1028.72 1117.97 1121.38 875.57 c 1,0,0
 937.24 829.21 l 1,0,0
 915.26 884.85 915.26 884.85 873.125 918.85 c 0,0,0
 830.99 952.85 830.99 952.85 766.68 952.85 c 0,0,0
 669.74 952.85 669.74 952.85 622.28 889.885 c 0,0,0
 574.82 826.92 574.82 826.92 574.82 709 c 0,0,0
EndSplineSet
EndChar

StartChar: ordfeminine
Encoding: 170 170 108
Width: 758
GlyphClass: 2
Flags: W
LayerCount: 2
Fore
SplineSet
254.99 774.58 m 0,0,0
 165.36 774.58 165.36 774.58 111.545 823.395 c 0,0,0
 57.73 872.21 57.73 872.21 57.73 965.19 c 0,0,0
 57.73 1150.42 57.73 1150.42 322.97 1155.42 c 2,0,0
 449.2 1156.08 l 1,0,0
 449.2 1186.02 l 2,0,0
 449.2 1230.28 449.2 1230.28 429.23 1255.59 c 0,0,0
 409.26 1280.9 409.26 1280.9 376.69 1280.9 c 0,0,0
 336.41 1280.9 336.41 1280.9 316.785 1261.42 c 0,0,0
 297.16 1241.94 297.16 1241.94 294.84 1214.37 c 1,0,0
 77.37 1222.7 l 1,0,0
 96.71 1315.34 96.71 1315.34 174.54 1362.815 c 0,0,0
 252.37 1410.29 252.37 1410.29 376.36 1410.29 c 0,0,0
 509.67 1410.29 509.67 1410.29 583.5 1350.295 c 0,0,0
 657.33 1290.3 657.33 1290.3 657.33 1185.34 c 2,0,0
 657.33 995.91 l 2,0,0
 657.33 954.61 657.33 954.61 662.98 929.61 c 0,0,0
 668.63 904.61 668.63 904.61 700.29 906.28 c 0,0,0
 713.63 907.95 713.63 907.95 727.47 909.115 c 0,0,0
 741.31 910.28 741.31 910.28 753.31 909.27 c 1,0,0
 753.31 796.92 l 1,0,0
 678.59 775.57 678.59 775.57 610.19 775.57 c 0,0,0
 540.53 775.57 540.53 775.57 500.03 811.065 c 0,0,0
 459.53 846.56 459.53 846.56 453.86 904.88 c 1,0,0
 451.53 904.88 l 1,0,0
 380.2 774.58 380.2 774.58 254.99 774.58 c 0,0,0
347.43 918.98 m 0,0,0
 389 918.98 389 918.98 419.1 959.61 c 0,0,0
 449.2 1000.24 449.2 1000.24 449.2 1055.86 c 2,0,0
 449.2 1057.4 l 1,0,0
 388.02 1056.74 l 2,0,0
 320.12 1055.75 320.12 1055.75 296.49 1037.78 c 0,0,0
 272.86 1019.81 272.86 1019.81 272.86 979.86 c 0,0,0
 272.86 918.98 272.86 918.98 347.43 918.98 c 0,0,0
EndSplineSet
EndChar

StartChar: guillemotleft
Encoding: 171 171 109
Width: 1139
GlyphClass: 2
Flags: W
LayerCount: 2
Fore
SplineSet
1040.97 180.02 m 1,0,0
 1040.97 141 l 1,0,0
 754.07 141 l 1,0,0
 553.01 499.32 l 1,0,0
 553.01 575.68 l 1,0,0
 754.07 940 l 1,0,0
 1038.97 940 l 1,0,0
 1038.97 898.98 l 1,0,0
 841.25 537 l 1,0,0
 1040.97 180.02 l 1,0,0
588 180.02 m 1,0,0
 588 141 l 1,0,0
 303.77 141 l 1,0,0
 98.03 499.32 l 1,0,0
 98.03 575.68 l 1,0,0
 303.77 940 l 1,0,0
 586 940 l 1,0,0
 586 898.98 l 1,0,0
 386.27 537 l 1,0,0
 588 180.02 l 1,0,0
EndSplineSet
EndChar

StartChar: logicalnot
Encoding: 172 172 110
Width: 1196
GlyphClass: 2
Flags: W
LayerCount: 2
Fore
SplineSet
1121.72 819.13 m 1,0,0
 1121.72 114.87 l 1,0,0
 844.79 114.87 l 1,0,0
 844.79 542.87 l 1,0,0
 73.28 542.87 l 1,0,0
 73.28 819.13 l 1,0,0
 1121.72 819.13 l 1,0,0
EndSplineSet
EndChar

StartChar: registered
Encoding: 174 174 111
Width: 1509
GlyphClass: 2
Flags: W
LayerCount: 2
Fore
SplineSet
1478.67 707 m 0,0,0
 1478.67 514 1478.67 514 1382.67 346 c 0,0,0
 1285.67 177 1285.67 177 1117.17 80.5 c 0,0,0
 948.67 -16 948.67 -16 755.67 -16 c 0,0,0
 559.67 -16 559.67 -16 389.67 85 c 0,0,0
 220.67 186 220.67 186 126.67 352 c 0,0,0
 32.67 518 32.67 518 32.67 707 c 0,0,0
 32.67 901 32.67 901 129.67 1068 c 0,0,0
 226.67 1236 226.67 1236 394.67 1333 c 0,0,0
 562.67 1430 562.67 1430 755.67 1430 c 0,0,0
 949.67 1430 949.67 1430 1118.67 1333 c 0,0,0
 1286.67 1236 1286.67 1236 1382.67 1068.5 c 0,0,0
 1478.67 901 1478.67 901 1478.67 707 c 0,0,0
1353.27 707 m 0,0,0
 1353.27 867.65 1353.27 867.65 1272.61 1004.3 c 0,0,0
 1191.95 1141.62 1191.95 1141.62 1052.965 1221.61 c 0,0,0
 913.98 1301.6 913.98 1301.6 755.67 1301.6 c 0,0,0
 606.04 1301.6 606.04 1301.6 470.06 1227.62 c 0,0,0
 334.08 1154.31 334.08 1154.31 247.575 1015.825 c 0,0,0
 161.07 877.34 161.07 877.34 161.07 707 c 0,0,0
 161.07 548.69 161.07 548.69 241.06 408.7 c 0,0,0
 320.05 269.38 320.05 269.38 457.535 188.72 c 0,0,0
 595.02 108.06 595.02 108.06 755.67 108.06 c 0,0,0
 916.32 108.06 916.32 108.06 1054.97 188.72 c 0,0,0
 1193.62 269.38 1193.62 269.38 1273.445 408.7 c 0,0,0
 1353.27 548.02 1353.27 548.02 1353.27 707 c 0,0,0
650.11 599.95 m 1,0,0
 650.11 302.36 l 1,0,0
 437.94 302.36 l 1,0,0
 437.94 1106.64 l 1,0,0
 783.35 1106.64 l 2,0,0
 943.72 1106.64 943.72 1106.64 1020.055 1041.135 c 0,0,0
 1096.39 975.63 1096.39 975.63 1096.39 861.29 c 0,0,0
 1096.39 772.65 1096.39 772.65 1051.07 715.325 c 0,0,0
 1005.75 658 1005.75 658 932.44 628.98 c 1,0,0
 1140.08 302.36 l 1,0,0
 901.56 302.36 l 1,0,0
 737.63 599.95 l 1,0,0
 650.11 599.95 l 1,0,0
880.88 859.29 m 0,0,0
 880.88 908.25 880.88 908.25 850.08 934.23 c 0,0,0
 819.28 960.21 819.28 960.21 758.32 960.21 c 2,0,0
 650.11 960.21 l 1,0,0
 650.11 751.06 l 1,0,0
 768.65 751.06 l 2,0,0
 825.27 751.06 825.27 751.06 853.075 781.87 c 0,0,0
 880.88 812.68 880.88 812.68 880.88 859.29 c 0,0,0
EndSplineSet
EndChar

StartChar: macron
Encoding: 175 175 112
Width: 1131
GlyphClass: 2
Flags: W
LayerCount: 2
Fore
SplineSet
1148 1546 m 1,0,0
 1148 1452 l 1,0,0
 -17 1452 l 1,0,0
 -17 1546 l 1,0,0
 1148 1546 l 1,0,0
EndSplineSet
EndChar

StartChar: degree
Encoding: 176 176 113
Width: 819
GlyphClass: 2
Flags: W
LayerCount: 2
Fore
SplineSet
754.45 1091.56 m 0,0,0
 754.45 1000.87 754.45 1000.87 708.77 923.345 c 0,0,0
 663.09 845.82 663.09 845.82 585.565 798.635 c 0,0,0
 508.04 751.45 508.04 751.45 410.67 751.45 c 0,0,0
 315.97 751.45 315.97 751.45 238.78 795.46 c 0,0,0
 161.59 839.47 161.59 839.47 115.075 915.66 c 0,0,0
 68.56 991.85 68.56 991.85 68.56 1086.55 c 0,0,0
 68.56 1179.58 68.56 1179.58 114.575 1255.435 c 0,0,0
 160.59 1331.29 160.59 1331.29 238.95 1376.47 c 0,0,0
 317.31 1421.65 317.31 1421.65 410.67 1421.65 c 0,0,0
 507.37 1421.65 507.37 1421.65 584.895 1376.97 c 0,0,0
 662.42 1332.29 662.42 1332.29 708.435 1257.77 c 0,0,0
 754.45 1183.25 754.45 1183.25 754.45 1091.56 c 0,0,0
563.62 1086.55 m 0,0,0
 563.62 1152.53 563.62 1152.53 520.47 1197.85 c 0,0,0
 477.32 1243.17 477.32 1243.17 410.67 1243.17 c 0,0,0
 342.35 1243.17 342.35 1243.17 297.53 1197.685 c 0,0,0
 252.71 1152.2 252.71 1152.2 252.71 1086.55 c 0,0,0
 252.71 1020.9 252.71 1020.9 299.365 973.745 c 0,0,0
 346.02 926.59 346.02 926.59 410.67 926.59 c 0,0,0
 472.98 926.59 472.98 926.59 518.3 973.245 c 0,0,0
 563.62 1019.9 563.62 1019.9 563.62 1086.55 c 0,0,0
EndSplineSet
EndChar

StartChar: plusminus
Encoding: 177 177 114
Width: 1124
GlyphClass: 2
Flags: W
LayerCount: 2
Fore
SplineSet
699.46 725.09 m 1,0,0
 699.46 420.27 l 1,0,0
 423.87 420.27 l 1,0,0
 423.87 725.09 l 1,0,0
 38.28 725.09 l 1,0,0
 38.28 1000.35 l 1,0,0
 423.87 1000.35 l 1,0,0
 423.87 1304.17 l 1,0,0
 699.46 1304.17 l 1,0,0
 699.46 1000.35 l 1,0,0
 1086.72 1000.35 l 1,0,0
 1086.72 725.09 l 1,0,0
 699.46 725.09 l 1,0,0
1086.72 275.26 m 1,0,0
 1086.72 0 l 1,0,0
 38.28 0 l 1,0,0
 38.28 275.26 l 1,0,0
 1086.72 275.26 l 1,0,0
EndSplineSet
EndChar

StartChar: uni00B2
Encoding: 178 178 115
Width: 682
GlyphClass: 2
Flags: W
LayerCount: 2
Fore
SplineSet
636.32 936.52 m 1,0,0
 636.32 781.77 l 1,0,0
 59.7 781.77 l 1,0,0
 57.7 914.83 l 1,0,0
 85.36 970.47 85.36 970.47 130.655 1014.26 c 0,0,0
 175.95 1058.05 175.95 1058.05 256.23 1107 c 0,0,0
 334.86 1154.96 334.86 1154.96 359.655 1177.56 c 0,0,0
 384.45 1200.16 384.45 1200.16 384.45 1228.1 c 0,0,0
 384.45 1263.38 384.45 1263.38 374.835 1275.83 c 0,0,0
 365.22 1288.28 365.22 1288.28 346.33 1288.28 c 0,0,0
 320.08 1288.28 320.08 1288.28 310.315 1271.82 c 0,0,0
 300.55 1255.36 300.55 1255.36 297.56 1219.09 c 1,0,0
 62.69 1222.08 l 1,0,0
 75.69 1315.72 75.69 1315.72 148.675 1372.535 c 0,0,0
 221.66 1429.35 221.66 1429.35 342.31 1429.35 c 0,0,0
 475.99 1429.35 475.99 1429.35 549.655 1377.87 c 0,0,0
 623.32 1326.39 623.32 1326.39 623.32 1234.76 c 0,0,0
 623.32 1124.5 623.32 1124.5 493.77 1053.3 c 0,0,0
 447.8 1028.34 447.8 1028.34 418.16 1011.04 c 0,0,0
 388.52 993.74 388.52 993.74 373.54 982.43 c 0,0,0
 343.25 962.82 343.25 962.82 328.59 936.52 c 1,0,0
 636.32 936.52 l 1,0,0
EndSplineSet
EndChar

StartChar: uni00B3
Encoding: 179 179 116
Width: 682
GlyphClass: 2
Flags: W
LayerCount: 2
Fore
SplineSet
635.32 962 m 0,0,0
 635.32 874.39 635.32 874.39 561.995 823.75 c 0,0,0
 488.67 773.11 488.67 773.11 353.35 773.11 c 0,0,0
 223.71 773.11 223.71 773.11 145.045 821.76 c 0,0,0
 66.38 870.41 66.38 870.41 55.39 968.38 c 1,0,0
 279.9 979.71 l 1,0,0
 286.21 915.52 286.21 915.52 348.34 915.52 c 0,0,0
 411.48 915.52 411.48 915.52 411.48 976.68 c 0,0,0
 411.48 1040.2 411.48 1040.2 305.98 1040.2 c 2,0,0
 253.33 1040.2 l 1,0,0
 253.33 1177.59 l 1,0,0
 300.31 1177.59 l 2,0,0
 351.92 1177.59 351.92 1177.59 374.54 1192.715 c 0,0,0
 397.16 1207.84 397.16 1207.84 397.16 1236.1 c 0,0,0
 397.16 1261.03 397.16 1261.03 383.54 1274.655 c 0,0,0
 369.92 1288.28 369.92 1288.28 345.68 1288.28 c 0,0,0
 317.76 1288.28 317.76 1288.28 304.985 1274.155 c 0,0,0
 292.21 1260.03 292.21 1260.03 287.88 1230.1 c 1,0,0
 67.71 1242.1 l 1,0,0
 77.37 1326.05 77.37 1326.05 152.53 1377.7 c 0,0,0
 227.69 1429.35 227.69 1429.35 351.35 1429.35 c 0,0,0
 478.01 1429.35 478.01 1429.35 547.835 1383.21 c 0,0,0
 617.66 1337.07 617.66 1337.07 617.66 1260.78 c 0,0,0
 617.66 1204.15 617.66 1204.15 585.515 1165.015 c 0,0,0
 553.37 1125.88 553.37 1125.88 481.74 1112.56 c 1,0,0
 481.74 1110.56 l 1,0,0
 559.38 1101.56 559.38 1101.56 597.35 1059.915 c 0,0,0
 635.32 1018.27 635.32 1018.27 635.32 962 c 0,0,0
EndSplineSet
EndChar

StartChar: acute
Encoding: 180 180 117
Width: 682
GlyphClass: 2
Flags: W
LayerCount: 2
Fore
SplineSet
664.67 1445.6 m 1,0,0
 317.97 1170.94 l 1,0,0
 97.05 1170.94 l 1,0,0
 97.05 1209.31 l 1,0,0
 372.5 1497.98 l 1,0,0
 664.67 1497.98 l 1,0,0
 664.67 1445.6 l 1,0,0
EndSplineSet
EndChar

StartChar: mu
Encoding: 181 181 118
Width: 1261
GlyphClass: 2
Flags: W
LayerCount: 2
Fore
SplineSet
129.98 -426.67 m 1,0,0
 129.98 1082 l 1,0,0
 477.98 1082 l 1,0,0
 477.98 531.27 l 2,0,0
 477.98 373.23 477.98 373.23 513.11 307.905 c 0,0,0
 548.24 242.58 548.24 242.58 618.81 242.58 c 0,0,0
 681.68 242.58 681.68 242.58 707.085 311.21 c 0,0,0
 732.49 379.84 732.49 379.84 732.49 536.83 c 2,0,0
 732.49 1082 l 1,0,0
 1081.16 1082 l 1,0,0
 1077.82 356.18 l 2,0,0
 1077.82 255.13 1077.82 255.13 1099.995 220.63 c 0,0,0
 1122.17 186.13 1122.17 186.13 1174.19 186.13 c 0,0,0
 1211.55 186.13 1211.55 186.13 1241.55 190.79 c 1,0,0
 1241.55 23.38 l 1,0,0
 1176.15 8.37 1176.15 8.37 1133.455 0.865 c 0,0,0
 1090.76 -6.64 1090.76 -6.64 1016.66 -6.64 c 0,0,0
 900.61 -6.64 900.61 -6.64 848.1 36.185 c 0,0,0
 795.59 79.01 795.59 79.01 782.24 180.68 c 1,0,0
 774.23 180.68 l 1,0,0
 754.63 58.63 754.63 58.63 711.025 19.315 c 0,0,0
 667.42 -20 667.42 -20 600.48 -20 c 0,0,0
 558.53 -20 558.53 -20 527.41 6.345 c 0,0,0
 496.29 32.69 496.29 32.69 478.65 77.37 c 1,0,0
 478.65 -426.67 l 1,0,0
 129.98 -426.67 l 1,0,0
EndSplineSet
EndChar

StartChar: paragraph
Encoding: 182 182 119
Width: 1165
GlyphClass: 2
Flags: W
LayerCount: 2
Fore
SplineSet
611.78 1238.53 m 1,0,0
 611.78 -264 l 1,0,0
 428.64 -264 l 1,0,0
 428.64 694 l 1,0,0
 258.97 694 258.97 694 161.97 786.5 c 0,0,0
 64.97 879 64.97 879 64.97 1049 c 0,0,0
 64.97 1218 64.97 1218 163.47 1313.5 c 0,0,0
 261.97 1409 261.97 1409 436.64 1409 c 2,0,0
 1109.86 1409 l 1,0,0
 1109.86 1238.53 l 1,0,0
 977.52 1238.53 l 1,0,0
 977.52 -264 l 1,0,0
 792.04 -264 l 1,0,0
 792.04 1238.53 l 1,0,0
 611.78 1238.53 l 1,0,0
EndSplineSet
EndChar

StartChar: periodcentered
Encoding: 183 183 120
Width: 682
GlyphClass: 2
Flags: W
LayerCount: 2
Fore
SplineSet
422.97 949.9 m 1,0,0
 422.97 587.95 l 1,0,0
 72.66 587.95 l 1,0,0
 72.66 949.9 l 1,0,0
 422.97 949.9 l 1,0,0
EndSplineSet
EndChar

StartChar: cedilla
Encoding: 184 184 121
Width: 682
GlyphClass: 2
Flags: W
LayerCount: 2
Fore
SplineSet
511.39 -222.94 m 0,0,0
 511.39 -318.95 511.39 -318.95 427.025 -368.96 c 0,0,0
 342.66 -418.97 342.66 -418.97 188.96 -418.97 c 0,0,0
 154.68 -418.97 154.68 -418.97 80.59 -411.63 c 1,0,0
 80.59 -280.23 l 1,0,0
 100.53 -287.9 100.53 -287.9 163.25 -287.9 c 0,0,0
 293.55 -287.9 293.55 -287.9 293.55 -226.94 c 0,0,0
 293.55 -193.95 293.55 -193.95 268.9 -178.625 c 0,0,0
 244.25 -163.3 244.25 -163.3 178.92 -163.3 c 0,0,0
 161.93 -163.3 161.93 -163.3 149.6 -163.8 c 0,0,0
 137.27 -164.3 137.27 -164.3 130.27 -165.3 c 1,0,0
 190.26 0 l 1,0,0
 357.38 0 l 1,0,0
 328.4 -69.94 l 1,0,0
 422.4 -76.28 422.4 -76.28 466.895 -117.615 c 0,0,0
 511.39 -158.95 511.39 -158.95 511.39 -222.94 c 0,0,0
EndSplineSet
EndChar

StartChar: uni00B9
Encoding: 185 185 122
Width: 682
GlyphClass: 2
Flags: W
LayerCount: 2
Fore
SplineSet
605.27 912.15 m 1,0,0
 605.27 781.77 l 1,0,0
 83.34 781.77 l 1,0,0
 83.34 912.15 l 1,0,0
 249.25 912.15 l 1,0,0
 249.25 1278.31 l 1,0,0
 95.68 1190.41 l 1,0,0
 95.68 1313.75 l 1,0,0
 255.58 1417.35 l 1,0,0
 465.42 1417.35 l 1,0,0
 465.42 912.15 l 1,0,0
 605.27 912.15 l 1,0,0
EndSplineSet
EndChar

StartChar: ordmasculine
Encoding: 186 186 123
Width: 748
GlyphClass: 2
Flags: W
LayerCount: 2
Fore
SplineSet
706.3 1093.77 m 0,0,0
 706.3 949.19 706.3 949.19 615.795 861.885 c 0,0,0
 525.29 774.58 525.29 774.58 377.01 774.58 c 0,0,0
 235.73 774.58 235.73 774.58 146.395 860.885 c 0,0,0
 57.06 947.19 57.06 947.19 57.06 1093.77 c 0,0,0
 57.06 1237.68 57.06 1237.68 144.39 1323.985 c 0,0,0
 231.72 1410.29 231.72 1410.29 381.01 1410.29 c 0,0,0
 532.3 1410.29 532.3 1410.29 619.3 1326.985 c 0,0,0
 706.3 1243.68 706.3 1243.68 706.3 1093.77 c 0,0,0
472.13 1093.77 m 0,0,0
 472.13 1167.61 472.13 1167.61 453.35 1204.72 c 0,0,0
 434.57 1241.83 434.57 1241.83 382.34 1241.83 c 0,0,0
 332.79 1241.83 332.79 1241.83 309.335 1204.39 c 0,0,0
 285.88 1166.95 285.88 1166.95 285.88 1093.77 c 0,0,0
 285.88 1013.9 285.88 1013.9 308.835 975.965 c 0,0,0
 331.79 938.03 331.79 938.03 376.01 938.03 c 0,0,0
 426.89 938.03 426.89 938.03 449.51 976.135 c 0,0,0
 472.13 1014.24 472.13 1014.24 472.13 1093.77 c 0,0,0
EndSplineSet
EndChar

StartChar: guillemotright
Encoding: 187 187 124
Width: 1139
GlyphClass: 2
Flags: W
LayerCount: 2
Fore
SplineSet
838.24 141 m 1,0,0
 553.34 141 l 1,0,0
 553.34 180.02 l 1,0,0
 754.4 537 l 1,0,0
 555.34 898.98 l 1,0,0
 555.34 940 l 1,0,0
 838.24 940 l 1,0,0
 1042.64 575.68 l 1,0,0
 1042.64 499.32 l 1,0,0
 838.24 141 l 1,0,0
386.6 141 m 1,0,0
 99.7 141 l 1,0,0
 99.7 180.02 l 1,0,0
 300.76 537 l 1,0,0
 101.7 898.98 l 1,0,0
 101.7 940 l 1,0,0
 386.6 940 l 1,0,0
 589.67 575.68 l 1,0,0
 589.67 499.32 l 1,0,0
 386.6 141 l 1,0,0
EndSplineSet
EndChar

StartChar: questiondown
Encoding: 191 191 128
Width: 1251
GlyphClass: 2
Flags: W
LayerCount: 2
Fore
SplineSet
844.51 1082 m 1,0,0
 844.51 765.77 l 1,0,0
 492.53 765.77 l 1,0,0
 492.53 1082 l 1,0,0
 844.51 1082 l 1,0,0
102.61 60.02 m 0,0,0
 102.61 146.3 102.61 146.3 141.755 220.955 c 0,0,0
 180.9 295.61 180.9 295.61 299.9 379.27 c 2,0,0
 374.22 431.59 l 2,0,0
 498.52 523.57 498.52 523.57 507.87 623.17 c 1,0,0
 836.51 623.17 l 1,0,0
 831.17 571.25 831.17 571.25 812.365 516.265 c 0,0,0
 793.56 461.28 793.56 461.28 751.575 406.76 c 0,0,0
 709.59 352.24 709.59 352.24 635.55 300.88 c 0,0,0
 555.17 244.85 555.17 244.85 515.855 204.015 c 0,0,0
 476.54 163.18 476.54 163.18 464.91 132.39 c 0,0,0
 453.28 101.6 453.28 101.6 453.28 74.7 c 0,0,0
 453.28 4.12 453.28 4.12 497.38 -36.83 c 0,0,0
 541.48 -77.78 541.48 -77.78 624.7 -77.78 c 0,0,0
 699.57 -77.78 699.57 -77.78 759.025 -26.15 c 0,0,0
 818.48 25.48 818.48 25.48 829.14 105.73 c 1,0,0
 1181.81 93.73 l 1,0,0
 1154.14 -112.62 1154.14 -112.62 1007.44 -230.31 c 0,0,0
 860.74 -348 860.74 -348 630.04 -348 c 0,0,0
 383.66 -348 383.66 -348 243.135 -239.16 c 0,0,0
 102.61 -130.32 102.61 -130.32 102.61 60.02 c 0,0,0
EndSplineSet
EndChar

StartChar: AE
Encoding: 198 198 135
Width: 2048
GlyphClass: 2
Flags: W
LayerCount: 2
Fore
SplineSet
521.2 325.16 m 1,0,0
 366.62 0 l 1,0,0
 -9.4 0 l 1,0,0
 699.98 1409 l 1,0,0
 1932.36 1409 l 1,0,0
 1932.36 1134.43 l 1,0,0
 1270.22 1134.43 l 1,0,0
 1270.22 844.42 l 1,0,0
 1869.02 844.42 l 1,0,0
 1869.02 578.53 l 1,0,0
 1270.22 578.53 l 1,0,0
 1270.22 274.57 l 1,0,0
 1973.36 274.57 l 1,0,0
 1973.36 0 l 1,0,0
 905.54 0 l 1,0,0
 905.54 325.16 l 1,0,0
 521.2 325.16 l 1,0,0
644.64 596.07 m 1,0,0
 905.54 596.07 l 1,0,0
 905.54 1145.1 l 1,0,0
 904.84 1145.1 l 1,0,0
 644.64 596.07 l 1,0,0
EndSplineSet
EndChar

StartChar: Eth
Encoding: 208 208 145
Width: 1479
GlyphClass: 2
Flags: W
LayerCount: 2
Fore
SplineSet
1401.04 712.32 m 0,0,0
 1401.04 486.65 1401.04 486.65 1312.87 327.32 c 0,0,0
 1224.7 167.99 1224.7 167.99 1070.2 83.995 c 0,0,0
 915.7 0 915.7 0 715.04 0 c 2,0,0
 116.23 0 l 1,0,0
 116.23 558.49 l 1,0,0
 3.98 558.49 l 1,0,0
 3.98 821.04 l 1,0,0
 116.23 821.04 l 1,0,0
 116.23 1409 l 1,0,0
 655.71 1409 l 2,0,0
 1010.37 1409 1010.37 1409 1205.705 1229.5 c 0,0,0
 1401.04 1050 1401.04 1050 1401.04 712.32 c 0,0,0
1033.69 712.32 m 0,0,0
 1033.69 912.53 1033.69 912.53 934.445 1019.135 c 0,0,0
 835.2 1125.74 835.2 1125.74 648.37 1125.74 c 2,0,0
 480.91 1125.74 l 1,0,0
 480.91 821.04 l 1,0,0
 803.41 821.04 l 1,0,0
 803.41 558.49 l 1,0,0
 480.91 558.49 l 1,0,0
 480.91 283.26 l 1,0,0
 688.03 283.26 l 2,0,0
 795.26 283.26 795.26 283.26 872.015 334.725 c 0,0,0
 948.77 386.19 948.77 386.19 991.23 482.295 c 0,0,0
 1033.69 578.4 1033.69 578.4 1033.69 712.32 c 0,0,0
EndSplineSet
EndChar

StartChar: multiply
Encoding: 215 215 152
Width: 1196
GlyphClass: 2
Flags: W
LayerCount: 2
Fore
SplineSet
600 489.82 m 1,0,0
 244 129.81 l 1,0,0
 48.48 323.32 l 1,0,0
 405.82 684 l 1,0,0
 53.82 1036 l 1,0,0
 248 1227.51 l 1,0,0
 601.34 879.52 l 1,0,0
 954.68 1232.19 l 1,0,0
 1148.19 1038.68 l 1,0,0
 794.85 680.66 l 1,0,0
 1146.85 332 l 1,0,0
 951.33 135.15 l 1,0,0
 600 489.82 l 1,0,0
EndSplineSet
EndChar

StartChar: Oslash
Encoding: 216 216 153
Width: 1593
GlyphClass: 2
Flags: W
LayerCount: 2
Fore
SplineSet
1516.71 711 m 0,0,0
 1516.71 489.33 1516.71 489.33 1427.035 324.83 c 0,0,0
 1337.36 160.33 1337.36 160.33 1174.515 70.165 c 0,0,0
 1011.67 -20 1011.67 -20 791.66 -20 c 0,0,0
 604.78 -20 604.78 -20 467.84 33.55 c 1,0,0
 396.27 -84.73 l 1,0,0
 197.92 -86.4 l 1,0,0
 321.1 116.19 l 1,0,0
 75.29 314.87 75.29 314.87 75.29 711 c 0,0,0
 75.29 937 75.29 937 160.46 1098.335 c 0,0,0
 245.63 1259.67 245.63 1259.67 407.14 1344.835 c 0,0,0
 568.65 1430 568.65 1430 793.66 1430 c 0,0,0
 957.16 1430 957.16 1430 1107.46 1380.12 c 1,0,0
 1163.33 1477.69 l 1,0,0
 1357 1477.69 l 1,0,0
 1254.53 1300.82 l 1,0,0
 1383.95 1207.49 1383.95 1207.49 1450.33 1055.61 c 0,0,0
 1516.71 903.73 1516.71 903.73 1516.71 711 c 0,0,0
441.3 711 m 0,0,0
 441.3 523.75 441.3 523.75 513.91 409.82 c 1,0,0
 940.35 1120.87 l 1,0,0
 871.46 1147.08 871.46 1147.08 793.66 1147.08 c 0,0,0
 625.14 1147.08 625.14 1147.08 533.22 1031.645 c 0,0,0
 441.3 916.21 441.3 916.21 441.3 711 c 0,0,0
1144.69 711 m 0,0,0
 1144.69 898.93 1144.69 898.93 1066.73 1010.53 c 1,0,0
 638.29 292.8 l 1,0,0
 709.19 261.92 709.19 261.92 791.66 261.92 c 0,0,0
 960.51 261.92 960.51 261.92 1052.6 379.02 c 0,0,0
 1144.69 496.12 1144.69 496.12 1144.69 711 c 0,0,0
EndSplineSet
EndChar

StartChar: Thorn
Encoding: 222 222 159
Width: 1366
GlyphClass: 2
Flags: W
LayerCount: 2
Fore
SplineSet
1321.46 738.34 m 0,0,0
 1321.46 601.32 1321.46 601.32 1257.115 496.475 c 0,0,0
 1192.77 391.63 1192.77 391.63 1073.75 332.625 c 0,0,0
 954.73 273.62 954.73 273.62 788.03 273.62 c 2,0,0
 480.91 273.62 l 1,0,0
 480.91 0 l 1,0,0
 116.23 0 l 1,0,0
 116.23 1409 l 1,0,0
 480.91 1409 l 1,0,0
 480.91 1188.73 l 1,0,0
 776.03 1188.73 l 2,0,0
 1040.08 1188.73 1040.08 1188.73 1180.77 1073.555 c 0,0,0
 1321.46 958.38 1321.46 958.38 1321.46 738.34 c 0,0,0
954.11 734.34 m 0,0,0
 954.11 828.26 954.11 828.26 899.665 881.885 c 0,0,0
 845.22 935.51 845.22 935.51 736.33 935.51 c 2,0,0
 480.91 935.51 l 1,0,0
 480.91 528.18 l 1,0,0
 744.33 528.18 l 2,0,0
 843.89 528.18 843.89 528.18 899 582.3 c 0,0,0
 954.11 636.42 954.11 636.42 954.11 734.34 c 0,0,0
EndSplineSet
EndChar

StartChar: germandbls
Encoding: 223 223 160
Width: 1251
GlyphClass: 2
Flags: W
LayerCount: 2
Fore
SplineSet
1210.42 323.39 m 0,0,0
 1210.42 153.35 1210.42 153.35 1105.565 66.675 c 0,0,0
 1000.71 -20 1000.71 -20 803.99 -20 c 0,0,0
 672.07 -20 672.07 -20 556.06 18.98 c 1,0,0
 557.4 253.12 l 1,0,0
 606.06 234.14 606.06 234.14 665.185 217.48 c 0,0,0
 724.31 200.82 724.31 200.82 756.57 200.82 c 0,0,0
 830.2 200.82 830.2 200.82 859.16 229.625 c 0,0,0
 888.12 258.43 888.12 258.43 888.12 300.69 c 0,0,0
 888.12 344.65 888.12 344.65 853.135 384.795 c 0,0,0
 818.15 424.94 818.15 424.94 727.83 487.95 c 0,0,0
 647.52 543.62 647.52 543.62 607.865 608.785 c 0,0,0
 568.21 673.95 568.21 673.95 568.21 743.25 c 0,0,0
 568.21 792.56 568.21 792.56 595.04 837.55 c 0,0,0
 621.87 882.54 621.87 882.54 680.88 935.89 c 0,0,0
 743.89 993.91 743.89 993.91 767.885 1033.405 c 0,0,0
 791.88 1072.9 791.88 1072.9 791.88 1114.55 c 0,0,0
 791.88 1171.51 791.88 1171.51 759.115 1205.485 c 0,0,0
 726.35 1239.46 726.35 1239.46 652.42 1239.46 c 0,0,0
 579.57 1239.46 579.57 1239.46 535.955 1187.015 c 0,0,0
 492.34 1134.57 492.34 1134.57 492.34 1007.64 c 2,0,0
 492.34 0 l 1,0,0
 143.67 0 l 1,0,0
 143.67 993.6 l 2,0,0
 143.67 1232.29 143.67 1232.29 277.87 1358.145 c 0,0,0
 412.07 1484 412.07 1484 657.43 1484 c 0,0,0
 874.15 1484 874.15 1484 997.505 1387.635 c 0,0,0
 1120.86 1291.27 1120.86 1291.27 1120.86 1123.54 c 0,0,0
 1120.86 1034.17 1120.86 1034.17 1083.175 982.69 c 0,0,0
 1045.49 931.21 1045.49 931.21 1009.53 897.58 c 0,0,0
 1005.63 893.67 1005.63 893.67 977.12 872.345 c 0,0,0
 948.61 851.02 948.61 851.02 922.57 823.83 c 0,0,0
 896.53 796.64 896.53 796.64 896.53 775.97 c 0,0,0
 896.53 772.7 896.53 772.7 888.795 770.59 c 0,0,0
 881.06 768.48 881.06 768.48 911.37 740.315 c 0,0,0
 941.68 712.15 941.68 712.15 1053.14 626.71 c 0,0,0
 1210.42 502.71 1210.42 502.71 1210.42 323.39 c 0,0,0
EndSplineSet
EndChar

StartChar: ae
Encoding: 230 230 167
Width: 1821
GlyphClass: 2
Flags: W
LayerCount: 2
Fore
SplineSet
1732.73 299.46 m 1,0,0
 1605.67 -20 1605.67 -20 1248.31 -20 c 0,0,0
 945.68 -20 945.68 -20 806.94 190.24 c 1,0,0
 747.98 91.99 747.98 91.99 646.32 35.995 c 0,0,0
 544.66 -20 544.66 -20 408.68 -20 c 0,0,0
 251.7 -20 251.7 -20 158.85 66 c 0,0,0
 66 152 66 152 66 308.68 c 0,0,0
 66 635.64 66 635.64 479.2 649.32 c 2,0,0
 719.2 653.32 l 1,0,0
 719.2 705.64 l 2,0,0
 719.2 795.55 719.2 795.55 689.585 842.7 c 0,0,0
 659.97 889.85 659.97 889.85 594.08 889.85 c 0,0,0
 536.55 889.85 536.55 889.85 510.945 854.86 c 0,0,0
 485.34 819.87 485.34 819.87 479.02 749.58 c 1,0,0
 115.67 761.57 l 1,0,0
 143.68 925.94 143.68 925.94 267.205 1013.97 c 0,0,0
 390.73 1102 390.73 1102 604.76 1102 c 0,0,0
 799.65 1102 799.65 1102 927.04 1016.44 c 1,0,0
 1066.75 1102 1066.75 1102 1259.68 1102 c 0,0,0
 1488.66 1102 1488.66 1102 1614.34 940.465 c 0,0,0
 1740.02 778.93 1740.02 778.93 1740.02 473.56 c 2,0,0
 1740.02 457.91 l 1,0,0
 1091.58 457.91 l 1,0,0
 1091.58 344.07 1091.58 344.07 1139.19 273.79 c 0,0,0
 1186.8 203.51 1186.8 203.51 1271.69 203.51 c 0,0,0
 1316.88 203.51 1316.88 203.51 1348.97 226.295 c 0,0,0
 1381.06 249.08 1381.06 249.08 1396.04 307.72 c 1,0,0
 1732.73 299.46 l 1,0,0
1410.4 677.74 m 1,0,0
 1407.09 781.94 1407.09 781.94 1363.48 838.73 c 0,0,0
 1319.87 895.52 1319.87 895.52 1255.01 895.52 c 0,0,0
 1174.77 895.52 1174.77 895.52 1134.67 837.575 c 0,0,0
 1094.57 779.63 1094.57 779.63 1093.58 677.74 c 1,0,0
 1410.4 677.74 l 1,0,0
431.36 347.43 m 0,0,0
 431.36 277.13 431.36 277.13 460.485 247 c 0,0,0
 489.61 216.87 489.61 216.87 530.84 216.87 c 0,0,0
 577.06 216.87 577.06 216.87 623 251.85 c 0,0,0
 668.27 287.5 668.27 287.5 693.735 344.125 c 0,0,0
 719.2 400.75 719.2 400.75 719.2 463.37 c 2,0,0
 719.2 478.89 l 1,0,0
 596.01 478.23 l 2,0,0
 511.77 473.56 511.77 473.56 486.53 462.59 c 0,0,0
 461.62 450.62 461.62 450.62 446.49 424.335 c 0,0,0
 431.36 398.05 431.36 398.05 431.36 347.43 c 0,0,0
EndSplineSet
EndChar

StartChar: eth
Encoding: 240 240 177
Width: 1326
GlyphClass: 2
Flags: W
LayerCount: 2
Fore
SplineSet
661.19 -16.66 m 0,0,0
 397.46 -16.66 397.46 -16.66 236.72 119.02 c 0,0,0
 75.98 254.7 75.98 254.7 75.98 477.66 c 0,0,0
 75.98 701.62 75.98 701.62 234.215 835.3 c 0,0,0
 392.45 968.98 392.45 968.98 663.18 968.98 c 0,0,0
 745.74 968.98 745.74 968.98 780.62 955.07 c 1,0,0
 746.77 1035.13 746.77 1035.13 686.9 1125.75 c 1,0,0
 400.93 1011.12 l 1,0,0
 400.93 1242.02 l 1,0,0
 532.09 1295.94 l 1,0,0
 495.46 1324.91 495.46 1324.91 427.945 1372.76 c 0,0,0
 360.43 1420.61 360.43 1420.61 263.37 1484 c 1,0,0
 612.65 1484 l 1,0,0
 720.37 1428.63 720.37 1428.63 765.95 1395.36 c 1,0,0
 1008.49 1495.63 l 1,0,0
 1009.16 1256.71 l 1,0,0
 948.46 1236.52 l 1,0,0
 1097.75 1073.84 1097.75 1073.84 1170.555 907.58 c 0,0,0
 1243.36 741.32 1243.36 741.32 1243.36 557.75 c 0,0,0
 1243.36 294.42 1243.36 294.42 1085.46 138.88 c 0,0,0
 927.56 -16.66 927.56 -16.66 661.19 -16.66 c 0,0,0
879.01 474.32 m 0,0,0
 879.01 612.88 879.01 612.88 821.035 674.33 c 0,0,0
 763.06 735.78 763.06 735.78 667.18 735.78 c 0,0,0
 558.61 735.78 558.61 735.78 500.305 667.985 c 0,0,0
 442 600.19 442 600.19 442 474.32 c 0,0,0
 442 354.46 442 354.46 497.3 282.995 c 0,0,0
 552.6 211.53 552.6 211.53 654.18 211.53 c 0,0,0
 755.06 211.53 755.06 211.53 817.035 273.145 c 0,0,0
 879.01 334.76 879.01 334.76 879.01 474.32 c 0,0,0
EndSplineSet
EndChar

StartChar: divide
Encoding: 247 247 184
Width: 1124
GlyphClass: 2
Flags: W
LayerCount: 2
Fore
SplineSet
702.78 1229.51 m 1,0,0
 702.78 963.01 l 1,0,0
 417.88 963.01 l 1,0,0
 417.88 1229.51 l 1,0,0
 702.78 1229.51 l 1,0,0
1086.72 819.13 m 1,0,0
 1086.72 542.87 l 1,0,0
 38.28 542.87 l 1,0,0
 38.28 819.13 l 1,0,0
 1086.72 819.13 l 1,0,0
702.78 400.99 m 1,0,0
 702.78 134.49 l 1,0,0
 417.88 134.49 l 1,0,0
 417.88 400.99 l 1,0,0
 702.78 400.99 l 1,0,0
EndSplineSet
EndChar

StartChar: oslash
Encoding: 248 248 185
Width: 1251
GlyphClass: 2
Flags: W
LayerCount: 2
Fore
SplineSet
1210.53 542 m 0,0,0
 1210.53 293.07 1210.53 293.07 1050.46 136.535 c 0,0,0
 890.39 -20 890.39 -20 618.99 -20 c 0,0,0
 430 -20 430 -20 287.62 62.97 c 1,0,0
 165.91 -66.39 l 1,0,0
 -27.81 -66.39 l 1,0,0
 177.9 149.28 l 1,0,0
 36.45 298.3 36.45 298.3 36.45 542 c 0,0,0
 36.45 790.27 36.45 790.27 195.525 946.135 c 0,0,0
 354.6 1102 354.6 1102 624.99 1102 c 0,0,0
 822.65 1102 822.65 1102 964.37 1024.36 c 1,0,0
 1072.07 1144.39 l 1,0,0
 1267.46 1144.39 l 1,0,0
 1076.09 935.04 l 1,0,0
 1210.53 785.34 1210.53 785.34 1210.53 542 c 0,0,0
402.47 542 m 0,0,0
 402.47 478.13 402.47 478.13 414.78 413.84 c 1,0,0
 771.53 807.84 l 1,0,0
 716.22 868.8 716.22 868.8 629.66 868.8 c 0,0,0
 521.76 868.8 521.76 868.8 462.115 785.34 c 0,0,0
 402.47 701.88 402.47 701.88 402.47 542 c 0,0,0
846.18 542 m 0,0,0
 846.18 618.9 846.18 618.9 834.87 664.47 c 1,0,0
 478.79 272.81 l 1,0,0
 537.44 211.53 537.44 211.53 615.32 211.53 c 0,0,0
 723.88 211.53 723.88 211.53 785.03 296.325 c 0,0,0
 846.18 381.12 846.18 381.12 846.18 542 c 0,0,0
EndSplineSet
EndChar

StartChar: thorn
Encoding: 254 254 191
Width: 1326
GlyphClass: 2
Flags: W
LayerCount: 2
Fore
SplineSet
495.02 -15.36 m 2,0,0
 495.02 -425 l 1,0,0
 146.35 -425 l 1,0,0
 146.35 1484 l 1,0,0
 495.02 1484 l 1,0,0
 495.02 995.87 l 2,0,0
 495.02 947.17 495.02 947.17 493.185 902.825 c 0,0,0
 491.35 858.48 491.35 858.48 491.02 817.82 c 1,0,0
 493.68 817.82 l 1,0,0
 540.01 917.82 540.01 917.82 632.37 969.33 c 0,0,0
 724.73 1020.84 724.73 1020.84 847.05 1020.84 c 0,0,0
 1032.02 1020.84 1032.02 1020.84 1137.7 875.985 c 0,0,0
 1243.38 731.13 1243.38 731.13 1243.38 502.58 c 0,0,0
 1243.38 263 1243.38 263 1128.85 121.5 c 0,0,0
 1014.32 -20 1014.32 -20 816.99 -20 c 0,0,0
 592.04 -20 592.04 -20 494.35 174.68 c 1,0,0
 487.68 174.68 l 1,0,0
 495.02 129.27 495.02 129.27 495.02 -15.36 c 2,0,0
880.7 505.26 m 0,0,0
 880.7 641.08 880.7 641.08 828.885 714.7 c 0,0,0
 777.07 788.32 777.07 788.32 679.14 788.32 c 0,0,0
 591.6 788.32 591.6 788.32 539.97 704.19 c 0,0,0
 488.34 620.06 488.34 620.06 488.34 501.28 c 0,0,0
 488.34 371.78 488.34 371.78 542.145 291.655 c 0,0,0
 595.95 211.53 595.95 211.53 677.14 211.53 c 0,0,0
 776.07 211.53 776.07 211.53 828.385 290.825 c 0,0,0
 880.7 370.12 880.7 370.12 880.7 505.26 c 0,0,0
EndSplineSet
EndChar

StartChar: dcroat
Encoding: 273 273 210
Width: 1326
GlyphClass: 2
Flags: W
LayerCount: 2
Fore
SplineSet
831.02 1350.36 m 1,0,0
 831.02 1484 l 1,0,0
 1181.36 1484 l 1,0,0
 1181.36 1350.36 l 1,0,0
 1313.36 1350.36 l 1,0,0
 1313.36 1154.23 l 1,0,0
 1181.36 1154.23 l 1,0,0
 1181.36 244.71 l 2,0,0
 1181.36 218.16 1181.36 218.16 1183.695 156.815 c 0,0,0
 1186.03 95.47 1186.03 95.47 1190.7 0 c 1,0,0
 851.7 0 l 1,0,0
 849.7 9.33 849.7 9.33 844.695 42.335 c 0,0,0
 839.69 75.34 839.69 75.34 836.52 114.01 c 0,0,0
 833.35 152.68 833.35 152.68 833.35 177.34 c 1,0,0
 829.35 177.34 l 1,0,0
 786.03 83.36 786.03 83.36 696.85 31.68 c 0,0,0
 607.67 -20 607.67 -20 475.65 -20 c 0,0,0
 299.04 -20 299.04 -20 190.85 123.845 c 0,0,0
 82.66 267.69 82.66 267.69 82.66 510.95 c 0,0,0
 82.66 755.54 82.66 755.54 196.355 895.37 c 0,0,0
 310.05 1035.2 310.05 1035.2 510.72 1035.2 c 0,0,0
 620.36 1035.2 620.36 1035.2 704.865 985.19 c 0,0,0
 789.37 935.18 789.37 935.18 831.02 842.19 c 1,0,0
 833.02 842.19 l 1,0,0
 831.02 1058.38 l 1,0,0
 831.02 1154.23 l 1,0,0
 554.4 1154.23 l 1,0,0
 554.4 1350.36 l 1,0,0
 831.02 1350.36 l 1,0,0
445.34 508.6 m 0,0,0
 445.34 368.44 445.34 368.44 497.825 287.975 c 0,0,0
 550.31 207.51 550.31 207.51 643.56 207.51 c 0,0,0
 729.76 207.51 729.76 207.51 783.73 292.635 c 0,0,0
 837.7 377.76 837.7 377.76 837.7 512.25 c 0,0,0
 837.7 647.09 837.7 647.09 787.07 728.72 c 0,0,0
 736.44 810.35 736.44 810.35 645.56 810.35 c 0,0,0
 547.97 810.35 547.97 810.35 496.655 735.735 c 0,0,0
 445.34 661.12 445.34 661.12 445.34 508.6 c 0,0,0
EndSplineSet
EndChar

StartChar: Hbar
Encoding: 294 294 231
Width: 1479
GlyphClass: 2
Flags: W
LayerCount: 2
Fore
SplineSet
480.91 571.17 m 1,0,0
 480.91 0 l 1,0,0
 116.23 0 l 1,0,0
 116.23 1058.4 l 1,0,0
 14 1058.4 l 1,0,0
 14 1239.12 l 1,0,0
 116.23 1239.12 l 1,0,0
 116.23 1409 l 1,0,0
 480.91 1409 l 1,0,0
 480.91 1239.12 l 1,0,0
 1010.77 1239.12 l 1,0,0
 1010.77 1409 l 1,0,0
 1360.43 1409 l 1,0,0
 1360.43 1239.12 l 1,0,0
 1465 1239.12 l 1,0,0
 1465 1058.4 l 1,0,0
 1360.43 1058.4 l 1,0,0
 1360.43 0 l 1,0,0
 1010.77 0 l 1,0,0
 1010.77 571.17 l 1,0,0
 480.91 571.17 l 1,0,0
480.91 871.45 m 1,0,0
 1010.77 871.45 l 1,0,0
 1010.77 1058.4 l 1,0,0
 480.91 1058.4 l 1,0,0
 480.91 871.45 l 1,0,0
EndSplineSet
EndChar

StartChar: hbar
Encoding: 295 295 232
Width: 1326
GlyphClass: 2
Flags: W
LayerCount: 2
Fore
SplineSet
489.01 805.23 m 1,0,0
 545.34 941.29 545.34 941.29 634.355 1001.645 c 0,0,0
 723.37 1062 723.37 1062 838.35 1062 c 0,0,0
 1007.67 1062 1007.67 1062 1105.365 947.96 c 0,0,0
 1203.06 833.92 1203.06 833.92 1203.06 622.55 c 2,0,0
 1203.06 0 l 1,0,0
 856.73 0 l 1,0,0
 856.73 512.4 l 2,0,0
 856.73 654.06 856.73 654.06 808.395 728.41 c 0,0,0
 760.06 802.76 760.06 802.76 683.83 802.76 c 0,0,0
 598.58 802.76 598.58 802.76 545.46 715.595 c 0,0,0
 492.34 628.43 492.34 628.43 492.34 499.47 c 2,0,0
 492.34 0 l 1,0,0
 143.67 0 l 1,0,0
 143.67 1154.23 l 1,0,0
 10 1154.23 l 1,0,0
 10 1350.36 l 1,0,0
 143.67 1350.36 l 1,0,0
 143.67 1484 l 1,0,0
 492.34 1484 l 1,0,0
 492.34 1350.36 l 1,0,0
 802.36 1350.36 l 1,0,0
 802.36 1154.23 l 1,0,0
 492.34 1154.23 l 1,0,0
 492.34 1026.27 l 2,0,0
 492.34 992.95 492.34 992.95 492.01 962.645 c 0,0,0
 491.68 932.34 491.68 932.34 490.18 895.665 c 0,0,0
 488.68 858.99 488.68 858.99 484.34 805.23 c 1,0,0
 489.01 805.23 l 1,0,0
EndSplineSet
EndChar

StartChar: dotlessi
Encoding: 305 305 242
Width: 569
GlyphClass: 2
Flags: W
LayerCount: 2
Fore
SplineSet
460.84 1082 m 1,0,0
 460.84 0 l 1,0,0
 112.17 0 l 1,0,0
 112.17 1082 l 1,0,0
 460.84 1082 l 1,0,0
EndSplineSet
EndChar

StartChar: jcircumflex
Encoding: 309 309 246
Width: 645
GlyphClass: 2
Flags: W
LayerCount: 2
Fore
SplineSet
313.16 1378.35 m 1,0,0
 116.23 1170.94 l 1,0,0
 -81.29 1170.94 l 1,0,0
 -81.29 1204.3 l 1,0,0
 192.79 1554.46 l 1,0,0
 438.54 1554.46 l 1,0,0
 705.96 1204.3 l 1,0,0
 705.96 1170.94 l 1,0,0
 510.78 1170.94 l 1,0,0
 318.5 1378.35 l 1,0,0
 313.16 1378.35 l 1,0,0
178.87 -425 m 0,0,0
 65.8 -425 65.8 -425 -19.94 -416 c 1,0,0
 -19.94 -178.47 l 1,0,0
 23.69 -181.13 l 1,0,0
 97.7 -181.13 97.7 -181.13 123.195 -152.645 c 0,0,0
 148.69 -124.16 148.69 -124.16 148.69 -28.51 c 2,0,0
 148.69 1082 l 1,0,0
 497.36 1082 l 1,0,0
 497.36 -123.98 l 2,0,0
 497.36 -260.28 497.36 -260.28 416.485 -342.64 c 0,0,0
 335.61 -425 335.61 -425 178.87 -425 c 0,0,0
EndSplineSet
EndChar

StartChar: kgreenlandic
Encoding: 312 312 249
Width: 1216
GlyphClass: 2
Flags: W
LayerCount: 2
Fore
SplineSet
495.02 419.4 m 1,0,0
 495.02 0 l 1,0,0
 146.35 0 l 1,0,0
 146.35 1082 l 1,0,0
 495.02 1082 l 1,0,0
 495.02 685.59 l 1,0,0
 821.39 1082 l 1,0,0
 1184.36 1082 l 1,0,0
 843.89 688.81 l 1,0,0
 1217.38 0 l 1,0,0
 846.06 0 l 1,0,0
 608.65 487.32 l 1,0,0
 495.02 419.4 l 1,0,0
EndSplineSet
EndChar

StartChar: Lslash
Encoding: 321 321 258
Width: 1326
GlyphClass: 2
Flags: W
LayerCount: 2
Fore
SplineSet
114.56 0 m 1,0,0
 116.23 446.15 l 1,0,0
 -13.4 394.55 l 1,0,0
 -13.4 664.44 l 1,0,0
 116.23 717.71 l 1,0,0
 116.23 1409 l 1,0,0
 480.91 1409 l 1,0,0
 480.91 879.48 l 1,0,0
 821.41 1025.81 l 1,0,0
 821.41 758.59 l 1,0,0
 480.91 612.93 l 1,0,0
 480.91 281.25 l 1,0,0
 1266.39 281.25 l 1,0,0
 1266.39 0 l 1,0,0
 114.56 0 l 1,0,0
EndSplineSet
EndChar

StartChar: lslash
Encoding: 322 322 259
Width: 645
GlyphClass: 2
Flags: W
LayerCount: 2
Fore
SplineSet
146.35 0 m 1,0,0
 146.35 573.73 l 1,0,0
 19.34 504.06 l 1,0,0
 19.34 757.25 l 1,0,0
 146.35 826.92 l 1,0,0
 146.35 1484 l 1,0,0
 495.02 1484 l 1,0,0
 495.02 1017.76 l 1,0,0
 627.37 1093.1 l 1,0,0
 627.37 843.92 l 1,0,0
 495.02 764.57 l 1,0,0
 495.02 0 l 1,0,0
 146.35 0 l 1,0,0
EndSplineSet
EndChar

StartChar: eng
Encoding: 331 331 267
Width: 1326
GlyphClass: 2
Flags: W
LayerCount: 2
Fore
SplineSet
882.56 -425 m 0,0,0
 768.82 -425 768.82 -425 683.75 -416 c 1,0,0
 683.75 -178.47 l 1,0,0
 727.38 -181.13 l 1,0,0
 804.73 -181.13 804.73 -181.13 829.39 -150.975 c 0,0,0
 854.05 -120.82 854.05 -120.82 854.05 -28.51 c 2,0,0
 854.05 554.07 l 2,0,0
 854.05 695.06 854.05 695.06 804.04 769.745 c 0,0,0
 754.03 844.43 754.03 844.43 681.15 844.43 c 0,0,0
 597.91 844.43 597.91 844.43 543.785 757.935 c 0,0,0
 489.66 671.44 489.66 671.44 489.66 548.51 c 2,0,0
 489.66 0 l 1,0,0
 140.99 0 l 1,0,0
 140.99 832.63 l 2,0,0
 140.99 914.27 140.99 914.27 137.82 968.43 c 0,0,0
 134.65 1022.59 134.65 1022.59 131.65 1082 c 1,0,0
 465.31 1082 l 1,0,0
 467.98 1063.97 467.98 1063.97 472.32 1002.72 c 0,0,0
 476.66 941.47 476.66 941.47 479.495 890.28 c 0,0,0
 482.33 839.09 482.33 839.09 481.66 846.9 c 1,0,0
 486.33 846.9 l 1,0,0
 539.98 978.94 539.98 978.94 628.995 1041.305 c 0,0,0
 718.01 1103.67 718.01 1103.67 835.67 1103.67 c 0,0,0
 1003.65 1103.67 1003.65 1103.67 1102.015 985.945 c 0,0,0
 1200.38 868.22 1200.38 868.22 1200.38 664.22 c 2,0,0
 1200.38 -123.98 l 2,0,0
 1200.38 -261.62 1200.38 -261.62 1119.505 -343.31 c 0,0,0
 1038.63 -425 1038.63 -425 882.56 -425 c 0,0,0
EndSplineSet
EndChar

StartChar: OE
Encoding: 338 338 274
Width: 2048
GlyphClass: 2
Flags: W
LayerCount: 2
Fore
SplineSet
987.31 0 m 1,0,0
 946.63 0.01 946.63 0.01 891.625 -4.995 c 0,0,0
 836.62 -10 836.62 -10 795.68 -10 c 0,0,0
 568.99 -10 568.99 -10 407.645 76.165 c 0,0,0
 246.3 162.33 246.3 162.33 160.795 322.66 c 0,0,0
 75.29 482.99 75.29 482.99 75.29 711 c 0,0,0
 75.29 939.68 75.29 939.68 160.795 1097.345 c 0,0,0
 246.3 1255.01 246.3 1255.01 407.645 1337.505 c 0,0,0
 568.99 1420 568.99 1420 797.68 1420 c 0,0,0
 820.62 1420 820.62 1420 869.945 1417 c 0,0,0
 919.27 1414 919.27 1414 994.65 1409 c 1,0,0
 1933.7 1409 l 1,0,0
 1933.7 1134.43 l 1,0,0
 1357.82 1134.43 l 1,0,0
 1357.82 844.42 l 1,0,0
 1872.03 844.42 l 1,0,0
 1872.03 578.53 l 1,0,0
 1357.82 578.53 l 1,0,0
 1357.82 274.57 l 1,0,0
 1974.7 274.57 l 1,0,0
 1974.7 0 l 1,0,0
 987.31 0 l 1,0,0
989.8 1108.03 m 1,0,0
 961.5 1122.05 961.5 1122.05 915.48 1129.565 c 0,0,0
 869.46 1137.08 869.46 1137.08 797.68 1137.08 c 0,0,0
 627.83 1137.08 627.83 1137.08 534.565 1024.975 c 0,0,0
 441.3 912.87 441.3 912.87 441.3 711 c 0,0,0
 441.3 508.13 441.3 508.13 536.06 390.86 c 0,0,0
 630.82 273.59 630.82 273.59 795.68 273.59 c 0,0,0
 865.07 273.59 865.07 273.59 913.6 281.27 c 0,0,0
 962.13 288.95 962.13 288.95 989.8 304.31 c 1,0,0
 989.8 1108.03 l 1,0,0
EndSplineSet
EndChar

StartChar: oe
Encoding: 339 339 275
Width: 1933
GlyphClass: 2
Flags: W
LayerCount: 2
Fore
SplineSet
1242.01 457.91 m 1,0,0
 1242.01 338.71 1242.01 338.71 1288.95 271.11 c 0,0,0
 1335.89 203.51 1335.89 203.51 1415.42 203.51 c 0,0,0
 1460.61 203.51 1460.61 203.51 1492.7 226.295 c 0,0,0
 1524.79 249.08 1524.79 249.08 1539.77 307.72 c 1,0,0
 1876.46 299.46 l 1,0,0
 1749.4 -20 1749.4 -20 1392.04 -20 c 0,0,0
 1178.16 -20 1178.16 -20 1041.13 122.92 c 1,0,0
 883.73 -20 883.73 -20 651.82 -20 c 0,0,0
 388.77 -20 388.77 -20 232.375 133.685 c 0,0,0
 75.98 287.37 75.98 287.37 75.98 542 c 0,0,0
 75.98 790.94 75.98 790.94 231.705 946.47 c 0,0,0
 387.43 1102 387.43 1102 657.82 1102 c 0,0,0
 897.07 1102 897.07 1102 1049.14 965.08 c 1,0,0
 1188.5 1102 1188.5 1102 1403.41 1102 c 0,0,0
 1632.39 1102 1632.39 1102 1758.07 940.465 c 0,0,0
 1883.75 778.93 1883.75 778.93 1883.75 473.56 c 2,0,0
 1883.75 457.91 l 1,0,0
 1242.01 457.91 l 1,0,0
874.32 542 m 0,0,0
 874.32 717.58 874.32 717.58 815.34 793.19 c 0,0,0
 756.36 868.8 756.36 868.8 662.49 868.8 c 0,0,0
 557.27 868.8 557.27 868.8 499.635 787.35 c 0,0,0
 442 705.9 442 705.9 442 542 c 0,0,0
 442 383.11 442 383.11 496.46 297.32 c 0,0,0
 550.92 211.53 550.92 211.53 648.15 211.53 c 0,0,0
 755.37 211.53 755.37 211.53 814.845 296.325 c 0,0,0
 874.32 381.12 874.32 381.12 874.32 542 c 0,0,0
1398.74 895.52 m 0,0,0
 1321.18 895.52 1321.18 895.52 1283.09 838.915 c 0,0,0
 1245 782.31 1245 782.31 1244.01 677.74 c 1,0,0
 1554.13 677.74 l 1,0,0
 1550.82 781.94 1550.82 781.94 1507.21 838.73 c 0,0,0
 1463.6 895.52 1463.6 895.52 1398.74 895.52 c 0,0,0
EndSplineSet
EndChar

StartChar: Tbar
Encoding: 358 358 294
Width: 1251
GlyphClass: 2
Flags: W
LayerCount: 2
Fore
SplineSet
808.51 611.93 m 1,0,0
 808.51 0 l 1,0,0
 443.16 0 l 1,0,0
 443.16 611.93 l 1,0,0
 251 611.93 l 1,0,0
 251 826.05 l 1,0,0
 443.16 826.05 l 1,0,0
 443.16 1132.76 l 1,0,0
 7.59 1132.76 l 1,0,0
 7.59 1409 l 1,0,0
 1245.75 1409 l 1,0,0
 1245.75 1132.76 l 1,0,0
 808.51 1132.76 l 1,0,0
 808.51 826.05 l 1,0,0
 1001 826.05 l 1,0,0
 1001 611.93 l 1,0,0
 808.51 611.93 l 1,0,0
EndSplineSet
EndChar

StartChar: tbar
Encoding: 359 359 295
Width: 757
GlyphClass: 2
Flags: W
LayerCount: 2
Fore
SplineSet
452.16 -19.34 m 0,0,0
 317.44 -19.34 317.44 -19.34 241.73 52.18 c 0,0,0
 166.02 123.7 166.02 123.7 166.02 270.75 c 2,0,0
 166.02 444.19 l 1,0,0
 37.68 444.19 l 1,0,0
 37.68 673.72 l 1,0,0
 166.02 673.72 l 1,0,0
 166.02 852.47 l 1,0,0
 20.98 852.47 l 1,0,0
 20.98 1082 l 1,0,0
 184.71 1082 l 1,0,0
 296.16 1344.04 l 1,0,0
 509.68 1344.04 l 1,0,0
 509.68 1082 l 1,0,0
 718.03 1082 l 1,0,0
 718.03 852.47 l 1,0,0
 509.68 852.47 l 1,0,0
 509.68 673.72 l 1,0,0
 684.63 673.72 l 1,0,0
 684.63 444.19 l 1,0,0
 509.68 444.19 l 1,0,0
 509.68 371.54 l 2,0,0
 509.68 291.87 509.68 291.87 542.695 250.35 c 0,0,0
 575.71 208.83 575.71 208.83 638.71 208.83 c 0,0,0
 666.03 208.83 666.03 208.83 726.01 222.83 c 1,0,0
 726.01 21.36 l 1,0,0
 614.63 -19.34 614.63 -19.34 452.16 -19.34 c 0,0,0
EndSplineSet
EndChar

StartChar: longs
Encoding: 383 383 319
Width: 645
GlyphClass: 2
Flags: W
LayerCount: 2
Fore
SplineSet
491.68 1158.96 m 2,0,0
 491.68 0 l 1,0,0
 144.68 0 l 1,0,0
 144.68 1188.97 l 2,0,0
 144.68 1335.3 144.68 1335.3 231.39 1410.32 c 0,0,0
 318.1 1485.34 318.1 1485.34 493.85 1485.34 c 0,0,0
 580.54 1485.34 580.54 1485.34 706.02 1466.66 c 1,0,0
 706.02 1256.18 l 1,0,0
 671.38 1265.85 671.38 1265.85 622.68 1265.85 c 0,0,0
 548.67 1265.85 548.67 1265.85 520.175 1241.705 c 0,0,0
 491.68 1217.56 491.68 1217.56 491.68 1158.96 c 2,0,0
EndSplineSet
EndChar

StartChar: uni0180
Encoding: 384 384 320
Width: 1326
GlyphClass: 2
Flags: W
LayerCount: 2
Fore
SplineSet
1243.38 510.93 m 0,0,0
 1243.38 259.66 1243.38 259.66 1132.19 119.83 c 0,0,0
 1021 -20 1021 -20 816.99 -20 c 0,0,0
 705.68 -20 705.68 -20 619.17 34.52 c 0,0,0
 532.66 89.04 532.66 89.04 495.02 178.02 c 1,0,0
 493.02 178.02 l 1,0,0
 493.02 153.01 493.02 153.01 491.02 116.68 c 0,0,0
 489.02 80.35 489.02 80.35 485.35 47.85 c 0,0,0
 481.68 15.35 481.68 15.35 476.34 0 c 1,0,0
 137.01 0 l 1,0,0
 141.68 60.4 141.68 60.4 144.015 125.92 c 0,0,0
 146.35 191.44 146.35 191.44 146.35 263.08 c 2,0,0
 146.35 1154.23 l 1,0,0
 9.33 1154.23 l 1,0,0
 9.33 1350.36 l 1,0,0
 146.35 1350.36 l 1,0,0
 146.35 1484 l 1,0,0
 495.02 1484 l 1,0,0
 495.02 1350.36 l 1,0,0
 808.37 1350.36 l 1,0,0
 808.37 1154.23 l 1,0,0
 495.02 1154.23 l 1,0,0
 495.02 1009.23 l 2,0,0
 495.02 957.19 495.02 957.19 493.185 909.505 c 0,0,0
 491.35 861.82 491.35 861.82 491.02 817.82 c 1,0,0
 495.02 817.82 l 1,0,0
 540.01 921.82 540.01 921.82 630.025 978.51 c 0,0,0
 720.04 1035.2 720.04 1035.2 847.05 1035.2 c 0,0,0
 1033.68 1035.2 1033.68 1035.2 1138.53 898.035 c 0,0,0
 1243.38 760.87 1243.38 760.87 1243.38 510.93 c 0,0,0
880.7 514.95 m 0,0,0
 880.7 660.12 880.7 660.12 832.39 731.4 c 0,0,0
 784.08 802.68 784.08 802.68 682.48 802.68 c 0,0,0
 583.92 802.68 583.92 802.68 536.13 722.895 c 0,0,0
 488.34 643.11 488.34 643.11 488.34 507.29 c 0,0,0
 488.34 371.11 488.34 371.11 535.465 291.32 c 0,0,0
 582.59 211.53 582.59 211.53 680.48 211.53 c 0,0,0
 783.08 211.53 783.08 211.53 831.89 287.815 c 0,0,0
 880.7 364.1 880.7 364.1 880.7 514.95 c 0,0,0
EndSplineSet
EndChar

StartChar: uni0181
Encoding: 385 385 321
Width: 1820
GlyphClass: 2
Flags: W
LayerCount: 2
Fore
SplineSet
1748.29 405.35 m 0,0,0
 1748.29 210.67 1748.29 210.67 1599.6 105.335 c 0,0,0
 1450.91 0 1450.91 0 1186.87 0 c 2,0,0
 392.76 0 l 1,0,0
 392.76 1150.78 l 1,0,0
 365.43 1150.78 l 2,0,0
 305.13 1150.78 305.13 1150.78 272.13 1127.635 c 0,0,0
 239.13 1104.49 239.13 1104.49 239.13 1060.21 c 0,0,0
 239.13 1004.53 239.13 1004.53 278.84 906.78 c 1,0,0
 25.31 889.78 l 1,0,0
 -13.4 1014.21 -13.4 1014.21 -13.4 1135 c 0,0,0
 -13.4 1259.99 -13.4 1259.99 81.785 1334.495 c 0,0,0
 176.97 1409 176.97 1409 325.96 1409 c 2,0,0
 1126.87 1409 l 2,0,0
 1667.96 1409 1667.96 1409 1667.96 1046.96 c 0,0,0
 1667.96 930.31 1667.96 930.31 1603.805 849.485 c 0,0,0
 1539.65 768.66 1539.65 768.66 1398.29 739.66 c 1,0,0
 1571.3 719.66 1571.3 719.66 1659.795 635.51 c 0,0,0
 1748.29 551.36 1748.29 551.36 1748.29 405.35 c 0,0,0
1300.61 995.57 m 0,0,0
 1300.61 1077.84 1300.61 1077.84 1251 1111.81 c 0,0,0
 1201.39 1145.78 1201.39 1145.78 1103.49 1145.78 c 2,0,0
 757.44 1145.78 l 1,0,0
 757.44 861.77 l 1,0,0
 1106.83 861.77 l 2,0,0
 1213.07 861.77 1213.07 861.77 1256.84 895.89 c 0,0,0
 1300.61 930.01 1300.61 930.01 1300.61 995.57 c 0,0,0
1383.28 433.71 m 0,0,0
 1383.28 597.54 1383.28 597.54 1143.5 597.54 c 2,0,0
 757.44 597.54 l 1,0,0
 757.44 263.22 l 1,0,0
 1151.82 263.22 l 2,0,0
 1270.04 263.22 1270.04 263.22 1326.66 305.675 c 0,0,0
 1383.28 348.13 1383.28 348.13 1383.28 433.71 c 0,0,0
EndSplineSet
EndChar

StartChar: uni0182
Encoding: 386 386 322
Width: 1557
GlyphClass: 2
Flags: W
LayerCount: 2
Fore
SplineSet
1475.09 443.06 m 0,0,0
 1475.09 314.05 1475.09 314.05 1408.74 213.535 c 0,0,0
 1342.39 113.02 1342.39 113.02 1219.695 56.51 c 0,0,0
 1097 0 1097 0 929.97 0 c 2,0,0
 116.23 0 l 1,0,0
 116.23 1409 l 1,0,0
 1250.93 1409 l 1,0,0
 1250.93 1134.43 l 1,0,0
 480.91 1134.43 l 1,0,0
 480.91 859.76 l 1,0,0
 991.45 859.76 l 2,0,0
 1229.12 859.76 1229.12 859.76 1352.105 750.585 c 0,0,0
 1475.09 641.41 1475.09 641.41 1475.09 443.06 c 0,0,0
1104.4 434.38 m 0,0,0
 1104.4 508.62 1104.4 508.62 1044.11 553.08 c 0,0,0
 983.82 597.54 983.82 597.54 863.24 597.54 c 2,0,0
 480.91 597.54 l 1,0,0
 480.91 264.56 l 1,0,0
 867.9 264.56 l 2,0,0
 983.47 264.56 983.47 264.56 1043.935 305.005 c 0,0,0
 1104.4 345.45 1104.4 345.45 1104.4 434.38 c 0,0,0
EndSplineSet
EndChar

StartChar: uni0183
Encoding: 387 387 323
Width: 1326
GlyphClass: 2
Flags: W
LayerCount: 2
Fore
SplineSet
1243.38 510.93 m 0,0,0
 1243.38 269.68 1243.38 269.68 1127.18 124.84 c 0,0,0
 1010.98 -20 1010.98 -20 816.99 -20 c 0,0,0
 705.68 -20 705.68 -20 619.17 34.52 c 0,0,0
 532.66 89.04 532.66 89.04 495.02 178.02 c 1,0,0
 493.02 178.02 l 1,0,0
 493.02 153.01 493.02 153.01 491.02 116.68 c 0,0,0
 489.02 80.35 489.02 80.35 485.35 47.85 c 0,0,0
 481.68 15.35 481.68 15.35 476.34 0 c 1,0,0
 137.01 0 l 1,0,0
 141.68 60.4 141.68 60.4 144.015 125.92 c 0,0,0
 146.35 191.44 146.35 191.44 146.35 263.08 c 2,0,0
 146.35 1484 l 1,0,0
 887.01 1484 l 1,0,0
 887.01 1234.82 l 1,0,0
 495.02 1234.82 l 1,0,0
 495.02 1009.23 l 2,0,0
 495.02 957.19 495.02 957.19 493.185 909.505 c 0,0,0
 491.35 861.82 491.35 861.82 491.02 817.82 c 1,0,0
 495.02 817.82 l 1,0,0
 540.01 921.82 540.01 921.82 630.025 978.51 c 0,0,0
 720.04 1035.2 720.04 1035.2 847.05 1035.2 c 0,0,0
 1023.66 1035.2 1023.66 1035.2 1133.52 893.025 c 0,0,0
 1243.38 750.85 1243.38 750.85 1243.38 510.93 c 0,0,0
880.7 514.95 m 0,0,0
 880.7 648.43 880.7 648.43 828.215 725.555 c 0,0,0
 775.73 802.68 775.73 802.68 682.48 802.68 c 0,0,0
 598.95 802.68 598.95 802.68 543.645 721.225 c 0,0,0
 488.34 639.77 488.34 639.77 488.34 507.29 c 0,0,0
 488.34 377.79 488.34 377.79 542.145 294.66 c 0,0,0
 595.95 211.53 595.95 211.53 680.48 211.53 c 0,0,0
 776.4 211.53 776.4 211.53 828.55 291.99 c 0,0,0
 880.7 372.45 880.7 372.45 880.7 514.95 c 0,0,0
EndSplineSet
EndChar

StartChar: uni0184
Encoding: 388 388 324
Width: 1557
GlyphClass: 2
Flags: W
LayerCount: 2
Fore
SplineSet
1475.09 439.71 m 0,0,0
 1475.09 309.03 1475.09 309.03 1412.08 210.02 c 0,0,0
 1349.07 111.68 1349.07 111.68 1224.04 55.84 c 0,0,0
 1099.01 0 1099.01 0 929.97 0 c 2,0,0
 116.23 0 l 1,0,0
 116.23 997.64 l 1,0,0
 -6.7 1125.9 l 1,0,0
 -6.7 1163.91 l 1,0,0
 393.18 1409 l 1,0,0
 480.91 1409 l 1,0,0
 480.91 853.06 l 1,0,0
 991.45 853.06 l 2,0,0
 1228.45 853.06 1228.45 853.06 1351.77 745.56 c 0,0,0
 1475.09 638.06 1475.09 638.06 1475.09 439.71 c 0,0,0
1104.4 431.03 m 0,0,0
 1104.4 505.94 1104.4 505.94 1044.445 548.39 c 0,0,0
 984.49 590.84 984.49 590.84 863.24 590.84 c 2,0,0
 480.91 590.84 l 1,0,0
 480.91 264.56 l 1,0,0
 867.9 264.56 l 2,0,0
 983.47 264.56 983.47 264.56 1043.935 303.33 c 0,0,0
 1104.4 342.1 1104.4 342.1 1104.4 431.03 c 0,0,0
EndSplineSet
EndChar

StartChar: uni0185
Encoding: 389 389 325
Width: 1326
GlyphClass: 2
Flags: W
LayerCount: 2
Fore
SplineSet
1243.38 544.33 m 0,0,0
 1243.38 286.38 1243.38 286.38 1130.52 133.19 c 0,0,0
 1017.66 -20 1017.66 -20 816.99 -20 c 0,0,0
 705.68 -20 705.68 -20 619.17 34.52 c 0,0,0
 532.66 89.04 532.66 89.04 495.02 178.02 c 1,0,0
 493.02 178.02 l 1,0,0
 493.02 153.01 493.02 153.01 491.02 116.68 c 0,0,0
 489.02 80.35 489.02 80.35 485.35 47.85 c 0,0,0
 481.68 15.35 481.68 15.35 476.34 0 c 1,0,0
 137.01 0 l 1,0,0
 141.68 60.4 141.68 60.4 144.015 125.92 c 0,0,0
 146.35 191.44 146.35 191.44 146.35 263.08 c 2,0,0
 146.35 1104.37 l 1,0,0
 -6.7 1222.58 l 1,0,0
 -6.7 1260.59 l 1,0,0
 403.94 1484 l 1,0,0
 495.02 1484 l 1,0,0
 495.02 1076.03 l 2,0,0
 495.02 1023.99 495.02 1023.99 494.02 976.305 c 0,0,0
 493.02 928.62 493.02 928.62 491.02 884.62 c 1,0,0
 495.02 884.62 l 1,0,0
 540.01 988.62 540.01 988.62 630.025 1045.31 c 0,0,0
 720.04 1102 720.04 1102 847.05 1102 c 0,0,0
 1030.34 1102 1030.34 1102 1136.86 951.475 c 0,0,0
 1243.38 800.95 1243.38 800.95 1243.38 544.33 c 0,0,0
880.7 548.35 m 0,0,0
 880.7 703.54 880.7 703.54 830.72 786.51 c 0,0,0
 780.74 869.48 780.74 869.48 682.48 869.48 c 0,0,0
 593.94 869.48 593.94 869.48 541.14 779.675 c 0,0,0
 488.34 689.87 488.34 689.87 488.34 540.69 c 0,0,0
 488.34 396.16 488.34 396.16 540.475 303.845 c 0,0,0
 592.61 211.53 592.61 211.53 680.48 211.53 c 0,0,0
 776.4 211.53 776.4 211.53 828.55 299.505 c 0,0,0
 880.7 387.48 880.7 387.48 880.7 548.35 c 0,0,0
EndSplineSet
EndChar

StartChar: uni0186
Encoding: 390 390 326
Width: 1479
GlyphClass: 2
Flags: W
LayerCount: 2
Fore
SplineSet
686.98 262.92 m 0,0,0
 864.87 262.92 864.87 262.92 951.285 370.17 c 0,0,0
 1037.7 477.42 1037.7 477.42 1037.7 699 c 0,0,0
 1037.7 852.96 1037.7 852.96 999.245 952.735 c 0,0,0
 960.79 1052.51 960.79 1052.51 881.02 1100.13 c 0,0,0
 801.25 1147.75 801.25 1147.75 680.65 1147.75 c 0,0,0
 427.39 1147.75 427.39 1147.75 357.22 896.5 c 1,0,0
 32.55 1006.23 l 1,0,0
 112.2 1224.97 112.2 1224.97 276.05 1327.485 c 0,0,0
 439.9 1430 439.9 1430 674.62 1430 c 0,0,0
 909.66 1430 909.66 1430 1071.845 1344.84 c 0,0,0
 1234.03 1259.68 1234.03 1259.68 1318.87 1096.515 c 0,0,0
 1403.71 933.35 1403.71 933.35 1403.71 699 c 0,0,0
 1403.71 462.98 1403.71 462.98 1324.715 303.315 c 0,0,0
 1245.72 143.65 1245.72 143.65 1088.545 61.825 c 0,0,0
 931.37 -20 931.37 -20 695.66 -20 c 0,0,0
 432.92 -20 432.92 -20 272.23 87.875 c 0,0,0
 111.54 195.75 111.54 195.75 53.9 400.81 c 1,0,0
 366.83 479.18 l 1,0,0
 391.79 382.56 391.79 382.56 480.585 322.74 c 0,0,0
 569.38 262.92 569.38 262.92 686.98 262.92 c 0,0,0
EndSplineSet
EndChar

StartChar: uni0187
Encoding: 391 391 327
Width: 1479
GlyphClass: 2
Flags: W
LayerCount: 2
Fore
SplineSet
1103.46 930.82 m 1,0,0
 1081.18 1025.43 1081.18 1025.43 992.72 1086.255 c 0,0,0
 904.26 1147.08 904.26 1147.08 785.32 1147.08 c 0,0,0
 608.1 1147.08 608.1 1147.08 522.355 1040.835 c 0,0,0
 436.61 934.59 436.61 934.59 436.61 711 c 0,0,0
 436.61 555.7 436.61 555.7 474.73 457.095 c 0,0,0
 512.85 358.49 512.85 358.49 591.95 310.37 c 0,0,0
 671.05 262.25 671.05 262.25 791.65 262.25 c 0,0,0
 904.58 262.25 904.58 262.25 985.185 318.215 c 0,0,0
 1065.79 374.18 1065.79 374.18 1113.07 513.5 c 1,0,0
 1437.74 403.77 l 1,0,0
 1360.76 188.37 1360.76 188.37 1197.415 84.185 c 0,0,0
 1034.07 -20 1034.07 -20 797.68 -20 c 0,0,0
 563.64 -20 563.64 -20 401.29 64.825 c 0,0,0
 238.94 149.65 238.94 149.65 154.77 313.315 c 0,0,0
 70.6 476.98 70.6 476.98 70.6 711 c 0,0,0
 70.6 947.69 70.6 947.69 149.26 1107.02 c 0,0,0
 227.92 1266.35 227.92 1266.35 385.26 1348.175 c 0,0,0
 542.6 1430 542.6 1430 776.64 1430 c 0,0,0
 945.76 1430 945.76 1430 1078.03 1397.2 c 1,0,0
 1078.03 1481.99 l 2,0,0
 1078.03 1626.67 1078.03 1626.67 1170.745 1697.32 c 0,0,0
 1263.46 1767.97 1263.46 1767.97 1428.88 1767.97 c 0,0,0
 1514.61 1767.97 1514.61 1767.97 1602.32 1749.63 c 1,0,0
 1602.32 1514.14 l 1,0,0
 1542.31 1522.12 1542.31 1522.12 1514.32 1522.12 c 0,0,0
 1463.36 1522.12 1463.36 1522.12 1439.875 1488.29 c 0,0,0
 1416.39 1454.46 1416.39 1454.46 1416.39 1385.81 c 2,0,0
 1416.39 1009.19 l 1,0,0
 1103.46 930.82 l 1,0,0
EndSplineSet
EndChar

StartChar: uni0188
Encoding: 392 392 328
Width: 1216
GlyphClass: 2
Flags: W
LayerCount: 2
Fore
SplineSet
794.03 701.54 m 1,0,0
 783.37 779.85 783.37 779.85 741.4 827.005 c 0,0,0
 699.43 874.16 699.43 874.16 622.82 874.16 c 0,0,0
 536.6 874.16 536.6 874.16 489.3 786.675 c 0,0,0
 442 699.19 442 699.19 442 546 c 0,0,0
 442 378.43 442 378.43 489.125 291.965 c 0,0,0
 536.25 205.5 536.25 205.5 628.16 205.5 c 0,0,0
 697.44 205.5 697.44 205.5 744.405 254.995 c 0,0,0
 791.37 304.49 791.37 304.49 803.03 399.13 c 1,0,0
 1152.03 385.46 l 1,0,0
 1136.36 269.77 1136.36 269.77 1066.665 178.575 c 0,0,0
 996.97 87.38 996.97 87.38 882.585 33.69 c 0,0,0
 768.2 -20 768.2 -20 621.47 -20 c 0,0,0
 362.74 -20 362.74 -20 219.025 128.51 c 0,0,0
 75.31 277.02 75.31 277.02 75.31 530.31 c 0,0,0
 75.31 794.96 75.31 794.96 220.36 948.48 c 0,0,0
 365.41 1102 365.41 1102 629.49 1102 c 0,0,0
 721.04 1102 721.04 1102 815.35 1086.78 c 1,0,0
 822.68 1224.48 822.68 1224.48 909.89 1291.315 c 0,0,0
 997.1 1358.15 997.1 1358.15 1155.18 1358.15 c 0,0,0
 1245.6 1358.15 1245.6 1358.15 1342.69 1337.8 c 1,0,0
 1342.69 1102.63 l 1,0,0
 1269.28 1111.95 1269.28 1111.95 1248.66 1111.95 c 0,0,0
 1194.35 1111.95 1194.35 1111.95 1168.52 1078.12 c 0,0,0
 1142.69 1044.29 1142.69 1044.29 1142.69 975.64 c 2,0,0
 1142.69 715.54 l 1,0,0
 794.03 701.54 l 1,0,0
EndSplineSet
EndChar

StartChar: uni018A
Encoding: 394 394 330
Width: 1753
GlyphClass: 2
Flags: W
LayerCount: 2
Fore
SplineSet
1677.57 712.32 m 0,0,0
 1677.57 492.65 1677.57 492.65 1592.57 332.99 c 0,0,0
 1507.57 169.99 1507.57 169.99 1349.9 84.995 c 0,0,0
 1192.23 0 1192.23 0 991.57 0 c 2,0,0
 392.76 0 l 1,0,0
 392.76 1150.78 l 1,0,0
 365.43 1150.78 l 2,0,0
 305.13 1150.78 305.13 1150.78 272.13 1127.635 c 0,0,0
 239.13 1104.49 239.13 1104.49 239.13 1060.21 c 0,0,0
 239.13 1004.53 239.13 1004.53 278.84 906.78 c 1,0,0
 25.31 889.78 l 1,0,0
 -13.4 1014.21 -13.4 1014.21 -13.4 1135 c 0,0,0
 -13.4 1259.99 -13.4 1259.99 81.785 1334.495 c 0,0,0
 176.97 1409 176.97 1409 325.96 1409 c 2,0,0
 932.24 1409 l 2,0,0
 1286.9 1409 1286.9 1409 1482.235 1227.83 c 0,0,0
 1677.57 1046.66 1677.57 1046.66 1677.57 712.32 c 0,0,0
1310.22 712.32 m 0,0,0
 1310.22 915.87 1310.22 915.87 1209.305 1023.31 c 0,0,0
 1108.39 1130.75 1108.39 1130.75 924.9 1130.75 c 2,0,0
 757.44 1130.75 l 1,0,0
 757.44 278.25 l 1,0,0
 964.56 278.25 l 2,0,0
 1072.8 278.25 1072.8 278.25 1149.555 331.385 c 0,0,0
 1226.31 384.52 1226.31 384.52 1268.265 481.46 c 0,0,0
 1310.22 578.4 1310.22 578.4 1310.22 712.32 c 0,0,0
EndSplineSet
EndChar

StartChar: uni018B
Encoding: 395 395 331
Width: 1557
GlyphClass: 2
Flags: W
LayerCount: 2
Fore
SplineSet
92.69 443.06 m 0,0,0
 92.69 641.41 92.69 641.41 216.51 750.585 c 0,0,0
 340.33 859.76 340.33 859.76 576.33 859.76 c 2,0,0
 1086.87 859.76 l 1,0,0
 1086.87 1134.43 l 1,0,0
 316.85 1134.43 l 1,0,0
 316.85 1409 l 1,0,0
 1451.55 1409 l 1,0,0
 1451.55 0 l 1,0,0
 637.81 0 l 2,0,0
 390.1 0 390.1 0 241.395 118.01 c 0,0,0
 92.69 236.02 92.69 236.02 92.69 443.06 c 0,0,0
463.38 434.38 m 0,0,0
 463.38 345.45 463.38 345.45 523.845 305.005 c 0,0,0
 584.31 264.56 584.31 264.56 699.88 264.56 c 2,0,0
 1086.87 264.56 l 1,0,0
 1086.87 597.54 l 1,0,0
 704.54 597.54 l 2,0,0
 583.96 597.54 583.96 597.54 523.67 553.08 c 0,0,0
 463.38 508.62 463.38 508.62 463.38 434.38 c 0,0,0
EndSplineSet
EndChar

StartChar: uni018C
Encoding: 396 396 332
Width: 1326
GlyphClass: 2
Flags: W
LayerCount: 2
Fore
SplineSet
85.34 510.93 m 0,0,0
 85.34 749.18 85.34 749.18 195.2 892.19 c 0,0,0
 305.06 1035.2 305.06 1035.2 481.67 1035.2 c 0,0,0
 608.68 1035.2 608.68 1035.2 698.695 978.51 c 0,0,0
 788.71 921.82 788.71 921.82 833.7 817.82 c 1,0,0
 837.7 817.82 l 1,0,0
 837.37 861.82 837.37 861.82 835.535 909.505 c 0,0,0
 833.7 957.19 833.7 957.19 833.7 1009.23 c 2,0,0
 833.7 1234.82 l 1,0,0
 441.71 1234.82 l 1,0,0
 441.71 1484 l 1,0,0
 1182.37 1484 l 1,0,0
 1182.37 263.08 l 2,0,0
 1182.37 191.44 1182.37 191.44 1184.705 125.92 c 0,0,0
 1187.04 60.4 1187.04 60.4 1191.71 0 c 1,0,0
 852.38 0 l 1,0,0
 848.04 14.35 848.04 14.35 843.87 46.515 c 0,0,0
 839.7 78.68 839.7 78.68 837.7 115.01 c 0,0,0
 835.7 151.34 835.7 151.34 835.7 178.02 c 1,0,0
 833.7 178.02 l 1,0,0
 791.05 85.7 791.05 85.7 706.21 32.85 c 0,0,0
 621.37 -20 621.37 -20 511.73 -20 c 0,0,0
 319.41 -20 319.41 -20 202.375 124.84 c 0,0,0
 85.34 269.68 85.34 269.68 85.34 510.93 c 0,0,0
448.02 514.95 m 0,0,0
 448.02 371.78 448.02 371.78 500.17 291.655 c 0,0,0
 552.32 211.53 552.32 211.53 648.24 211.53 c 0,0,0
 734.11 211.53 734.11 211.53 787.245 295.83 c 0,0,0
 840.38 380.13 840.38 380.13 840.38 507.29 c 0,0,0
 840.38 639.44 840.38 639.44 785.575 721.06 c 0,0,0
 730.77 802.68 730.77 802.68 646.24 802.68 c 0,0,0
 552.99 802.68 552.99 802.68 500.505 725.89 c 0,0,0
 448.02 649.1 448.02 649.1 448.02 514.95 c 0,0,0
EndSplineSet
EndChar

StartChar: uni018D
Encoding: 397 397 333
Width: 1310
GlyphClass: 2
Flags: W
LayerCount: 2
Fore
SplineSet
1250.06 548.65 m 0,0,0
 1250.06 354.12 1250.06 354.12 1138.225 207.77 c 0,0,0
 1026.39 61.42 1026.39 61.42 831.11 11.68 c 1,0,0
 1172.08 -211.17 l 1,0,0
 1172.08 -423.33 l 1,0,0
 150.59 -423.33 l 1,0,0
 150.59 -181.47 l 1,0,0
 699.65 -181.47 l 1,0,0
 292.69 82.69 l 2,0,0
 203.39 139.63 203.39 139.63 139.685 259.305 c 0,0,0
 75.98 378.98 75.98 378.98 75.98 548.65 c 0,0,0
 75.98 702.92 75.98 702.92 150.02 828.43 c 0,0,0
 224.06 953.94 224.06 953.94 356.275 1027.97 c 0,0,0
 488.49 1102 488.49 1102 664.52 1102 c 0,0,0
 937.23 1102 937.23 1102 1093.645 953.465 c 0,0,0
 1250.06 804.93 1250.06 804.93 1250.06 548.65 c 0,0,0
885.71 548.65 m 0,0,0
 885.71 700.18 885.71 700.18 826.555 784.49 c 0,0,0
 767.4 868.8 767.4 868.8 669.19 868.8 c 0,0,0
 563.3 868.8 563.3 868.8 502.65 785.83 c 0,0,0
 442 702.86 442 702.86 442 548.65 c 0,0,0
 442 396.77 442 396.77 502.15 312.81 c 0,0,0
 562.3 228.85 562.3 228.85 654.85 228.85 c 0,0,0
 760.06 228.85 760.06 228.85 822.885 308.13 c 0,0,0
 885.71 387.41 885.71 387.41 885.71 548.65 c 0,0,0
EndSplineSet
EndChar

StartChar: uni018E
Encoding: 398 398 334
Width: 1366
GlyphClass: 2
Flags: W
LayerCount: 2
Fore
SplineSet
1249.1 1409 m 1,0,0
 1249.1 0 l 1,0,0
 73.97 0 l 1,0,0
 73.97 276.24 l 1,0,0
 884.42 276.24 l 1,0,0
 884.42 566.84 l 1,0,0
 176.64 566.84 l 1,0,0
 176.64 844.42 l 1,0,0
 884.42 844.42 l 1,0,0
 884.42 1132.76 l 1,0,0
 114.97 1132.76 l 1,0,0
 114.97 1409 l 1,0,0
 1249.1 1409 l 1,0,0
EndSplineSet
EndChar

StartChar: uni018F
Encoding: 399 399 335
Width: 1450
GlyphClass: 2
Flags: W
LayerCount: 2
Fore
SplineSet
981.79 873.46 m 1,0,0
 966.81 1007.96 966.81 1007.96 905.61 1083.365 c 0,0,0
 844.41 1158.77 844.41 1158.77 720.56 1158.77 c 0,0,0
 620.67 1158.77 620.67 1158.77 565.94 1118.155 c 0,0,0
 511.21 1077.54 511.21 1077.54 475.92 981.59 c 1,0,0
 156.98 1065.31 l 1,0,0
 213.27 1253.35 213.27 1253.35 353.41 1341.675 c 0,0,0
 493.55 1430 493.55 1430 722.23 1430 c 0,0,0
 977.99 1430 977.99 1430 1144.02 1299.58 c 0,0,0
 1254.27 1209.24 1254.27 1209.24 1313.895 1061.605 c 0,0,0
 1373.52 913.97 1373.52 913.97 1373.52 711 c 0,0,0
 1373.52 489.33 1373.52 489.33 1294.86 322.66 c 0,0,0
 1216.2 156.66 1216.2 156.66 1068.21 68.33 c 0,0,0
 920.22 -20 920.22 -20 720.23 -20 c 0,0,0
 517.24 -20 517.24 -20 373.26 67.33 c 0,0,0
 230.95 152.99 230.95 152.99 154.125 317.82 c 0,0,0
 77.3 482.65 77.3 482.65 77.3 711 c 0,0,0
 77.3 761.73 77.3 761.73 80.47 802.095 c 0,0,0
 83.64 842.46 83.64 842.46 88.98 873.46 c 1,0,0
 981.79 873.46 l 1,0,0
720.23 259.6 m 0,0,0
 837.01 259.6 837.01 259.6 904.895 341.99 c 0,0,0
 972.78 424.38 972.78 424.38 985.45 586.87 c 1,0,0
 459.7 586.87 l 1,0,0
 468.35 426.71 468.35 426.71 538.23 343.155 c 0,0,0
 608.11 259.6 608.11 259.6 720.23 259.6 c 0,0,0
EndSplineSet
EndChar

StartChar: uni0190
Encoding: 400 400 336
Width: 1313
GlyphClass: 2
Flags: W
LayerCount: 2
Fore
SplineSet
653.09 -20 m 0,0,0
 472.7 -20 472.7 -20 348.52 29.66 c 0,0,0
 224.34 79.32 224.34 79.32 161.18 174.825 c 0,0,0
 98.02 270.33 98.02 270.33 98.02 406.03 c 0,0,0
 98.02 531.33 98.02 531.33 183.36 614.985 c 0,0,0
 268.7 698.64 268.7 698.64 410 719.3 c 1,0,0
 130 799.35 130 799.35 130 1049.33 c 0,0,0
 130 1159.99 130 1159.99 196.515 1245.825 c 0,0,0
 263.03 1331.66 263.03 1331.66 384.395 1380.33 c 0,0,0
 505.76 1429 505.76 1429 669.14 1429 c 0,0,0
 899.87 1429 899.87 1429 1039.885 1324.96 c 0,0,0
 1179.9 1220.92 1179.9 1220.92 1246.56 1001.16 c 1,0,0
 918.26 940.16 l 1,0,0
 889.97 1052.46 889.97 1052.46 828.52 1111.46 c 0,0,0
 767.07 1170.46 767.07 1170.46 672.8 1170.46 c 0,0,0
 579.54 1170.46 579.54 1170.46 528.76 1129.16 c 0,0,0
 477.98 1087.86 477.98 1087.86 477.98 1003.56 c 0,0,0
 477.98 847.09 477.98 847.09 733.45 847.09 c 2,0,0
 784.41 847.09 l 1,0,0
 784.41 567.16 l 1,0,0
 733.45 567.16 l 2,0,0
 586.56 567.16 586.56 567.16 518.115 532.375 c 0,0,0
 449.67 497.59 449.67 497.59 449.67 418.03 c 0,0,0
 449.67 341.8 449.67 341.8 501.595 300.025 c 0,0,0
 553.52 258.25 553.52 258.25 665.1 258.25 c 0,0,0
 884.68 258.25 884.68 258.25 956.92 498.52 c 1,0,0
 1287.25 394.8 l 1,0,0
 1230.64 190.43 1230.64 190.43 1071.755 85.215 c 0,0,0
 912.87 -20 912.87 -20 653.09 -20 c 0,0,0
EndSplineSet
EndChar

StartChar: uni0191
Encoding: 401 401 337
Width: 1251
GlyphClass: 2
Flags: W
LayerCount: 2
Fore
SplineSet
480.91 33.66 m 2,0,0
 480.91 -197.85 480.91 -197.85 386.03 -311.425 c 0,0,0
 291.15 -425 291.15 -425 91.68 -425 c 0,0,0
 11.97 -425 11.97 -425 -88.06 -405 c 1,0,0
 -111.51 -142.12 l 1,0,0
 -38.47 -152.44 -38.47 -152.44 -11.15 -152.44 c 0,0,0
 62.56 -152.44 62.56 -152.44 89.395 -114.275 c 0,0,0
 116.23 -76.11 116.23 -76.11 116.23 2.89 c 2,0,0
 116.23 1409 l 1,0,0
 1180.69 1409 l 1,0,0
 1180.69 1132.76 l 1,0,0
 480.91 1132.76 l 1,0,0
 480.91 755.72 l 1,0,0
 1158.36 755.72 l 1,0,0
 1158.36 480.82 l 1,0,0
 480.91 480.82 l 1,0,0
 480.91 33.66 l 2,0,0
EndSplineSet
EndChar

StartChar: florin
Encoding: 402 402 338
Width: 1139
GlyphClass: 2
Flags: W
LayerCount: 2
Fore
SplineSet
905.77 1253.55 m 1,0,0
 880.42 1261.89 880.42 1261.89 847.75 1266.89 c 0,0,0
 815.08 1271.89 815.08 1271.89 803.79 1271.89 c 0,0,0
 752.48 1271.89 752.48 1271.89 729.995 1252.595 c 0,0,0
 707.51 1233.3 707.51 1233.3 707.51 1172.36 c 2,0,0
 707.51 1122.2 l 1,0,0
 921.85 1122.2 l 1,0,0
 921.85 892.67 l 1,0,0
 708.85 892.67 l 1,0,0
 708.85 -404.23 l 1,0,0
 361.85 -404.23 l 1,0,0
 361.85 892.67 l 1,0,0
 199.83 892.67 l 1,0,0
 199.83 1122.2 l 1,0,0
 361.18 1122.2 l 1,0,0
 361.18 1222.47 l 2,0,0
 361.18 1365.77 361.18 1365.77 445.385 1434.935 c 0,0,0
 529.59 1504.1 529.59 1504.1 702.67 1504.1 c 0,0,0
 762.05 1504.1 762.05 1504.1 817.245 1495.76 c 0,0,0
 872.44 1487.42 872.44 1487.42 905.77 1472.41 c 1,0,0
 905.77 1253.55 l 1,0,0
EndSplineSet
EndChar

StartChar: uni0193
Encoding: 403 403 339
Width: 1593
GlyphClass: 2
Flags: W
LayerCount: 2
Fore
SplineSet
1121.79 938.79 m 1,0,0
 1088.51 1037.08 1088.51 1037.08 1002.215 1092.08 c 0,0,0
 915.92 1147.08 915.92 1147.08 809.02 1147.08 c 0,0,0
 625.14 1147.08 625.14 1147.08 531.21 1035.485 c 0,0,0
 437.28 923.89 437.28 923.89 437.28 711 c 0,0,0
 437.28 490.76 437.28 490.76 531.695 376.34 c 0,0,0
 626.11 261.92 626.11 261.92 801.31 261.92 c 0,0,0
 900.9 261.92 900.9 261.92 1001.195 289.725 c 0,0,0
 1101.49 317.53 1101.49 317.53 1150.44 356.13 c 1,0,0
 1150.44 511.6 l 1,0,0
 858.03 511.6 l 1,0,0
 858.03 768.46 l 1,0,0
 1483.42 768.46 l 1,0,0
 1483.42 229.02 l 1,0,0
 1371.42 113.35 1371.42 113.35 1180.53 46.675 c 0,0,0
 989.64 -20 989.64 -20 787.95 -20 c 0,0,0
 552.92 -20 552.92 -20 393.085 63.155 c 0,0,0
 233.25 146.31 233.25 146.31 152.26 309.14 c 0,0,0
 71.27 471.97 71.27 471.97 71.27 711 c 0,0,0
 71.27 1062.35 71.27 1062.35 258.61 1246.175 c 0,0,0
 445.95 1430 445.95 1430 805.67 1430 c 0,0,0
 973.76 1430 973.76 1430 1115.73 1392.17 c 1,0,0
 1115.73 1470.6 l 2,0,0
 1115.73 1615.28 1115.73 1615.28 1208.445 1685.93 c 0,0,0
 1301.16 1756.58 1301.16 1756.58 1466.58 1756.58 c 0,0,0
 1552.31 1756.58 1552.31 1756.58 1640.02 1738.24 c 1,0,0
 1640.02 1502.75 l 1,0,0
 1580.01 1510.73 1580.01 1510.73 1552.02 1510.73 c 0,0,0
 1501.06 1510.73 1501.06 1510.73 1477.575 1476.9 c 0,0,0
 1454.09 1443.07 1454.09 1443.07 1454.09 1374.42 c 2,0,0
 1454.09 1039.55 l 1,0,0
 1121.79 938.79 l 1,0,0
EndSplineSet
EndChar

StartChar: uni0194
Encoding: 404 404 340
Width: 1321
GlyphClass: 2
Flags: W
LayerCount: 2
Fore
SplineSet
16.68 1409 m 1,0,0
 396.37 1409 l 1,0,0
 666.72 633.45 l 1,0,0
 933.4 1409 l 1,0,0
 1308.08 1409 l 1,0,0
 848.22 285.41 l 1,0,0
 903.91 186.04 903.91 186.04 940.255 113.02 c 0,0,0
 976.6 40 976.6 40 992.6 -3.33 c 0,0,0
 1025.27 -94 1025.27 -94 1025.27 -144.97 c 0,0,0
 1025.27 -286.01 1025.27 -286.01 932.05 -355.505 c 0,0,0
 838.83 -425 838.83 -425 666.05 -425 c 0,0,0
 495.94 -425 495.94 -425 401.885 -351.83 c 0,0,0
 307.83 -278.66 307.83 -278.66 307.83 -143.3 c 0,0,0
 307.83 -83.65 307.83 -83.65 333.81 -9.7 c 0,0,0
 346.47 30.96 346.47 30.96 383.99 105.155 c 0,0,0
 421.51 179.35 421.51 179.35 481.55 285.41 c 1,0,0
 16.68 1409 l 1,0,0
738.69 -92.86 m 0,0,0
 738.69 -69.26 738.69 -69.26 727.72 -36.025 c 0,0,0
 716.75 -2.79 716.75 -2.79 666.05 71.55 c 1,0,0
 627.04 12.24 627.04 12.24 611.06 -24.67 c 0,0,0
 595.08 -61.58 595.08 -61.58 595.08 -91.19 c 0,0,0
 595.08 -135.84 595.08 -135.84 615.575 -153.65 c 0,0,0
 636.07 -171.46 636.07 -171.46 666.05 -171.46 c 0,0,0
 696.03 -171.46 696.03 -171.46 717.36 -154.15 c 0,0,0
 738.69 -136.84 738.69 -136.84 738.69 -92.86 c 0,0,0
EndSplineSet
EndChar

StartChar: uni0195
Encoding: 405 405 341
Width: 1974
GlyphClass: 2
Flags: W
LayerCount: 2
Fore
SplineSet
1352.86 -20 m 0,0,0
 1085.39 -20 1085.39 -20 964.36 107.22 c 0,0,0
 843.33 234.44 843.33 234.44 843.33 519.65 c 2,0,0
 843.33 552.4 l 2,0,0
 843.33 688.7 843.33 688.7 801.695 765.73 c 0,0,0
 760.06 842.76 760.06 842.76 683.83 842.76 c 0,0,0
 598.58 842.76 598.58 842.76 545.46 755.595 c 0,0,0
 492.34 668.43 492.34 668.43 492.34 539.47 c 2,0,0
 492.34 0 l 1,0,0
 143.67 0 l 1,0,0
 143.67 1484 l 1,0,0
 492.34 1484 l 1,0,0
 492.34 1066.27 l 2,0,0
 492.34 1032.95 492.34 1032.95 492.01 1002.645 c 0,0,0
 491.68 972.34 491.68 972.34 490.18 935.665 c 0,0,0
 488.68 898.99 488.68 898.99 484.34 845.23 c 1,0,0
 489.01 845.23 l 1,0,0
 550.7 983.3 550.7 983.3 636.7 1042.65 c 0,0,0
 722.7 1102 722.7 1102 838.35 1102 c 0,0,0
 1002.98 1102 1002.98 1102 1096.32 987.29 c 0,0,0
 1189.66 872.58 1189.66 872.58 1189.66 662.55 c 2,0,0
 1189.66 484.18 l 2,0,0
 1189.66 368.26 1189.66 368.26 1232.135 304.42 c 0,0,0
 1274.61 240.58 1274.61 240.58 1352.19 240.58 c 0,0,0
 1429.1 240.58 1429.1 240.58 1473.08 307.76 c 0,0,0
 1517.06 374.94 1517.06 374.94 1517.06 484.18 c 2,0,0
 1517.06 1082 l 1,0,0
 1863.39 1082 l 1,0,0
 1863.39 516.97 l 2,0,0
 1863.39 240.11 1863.39 240.11 1738.52 110.055 c 0,0,0
 1613.65 -20 1613.65 -20 1352.86 -20 c 0,0,0
EndSplineSet
EndChar

StartChar: uni0196
Encoding: 406 406 342
Width: 645
GlyphClass: 2
Flags: W
LayerCount: 2
Fore
SplineSet
199 0 m 1,0,0
 170 31 170 31 153.5 98 c 0,0,0
 137 165 137 165 137 236 c 2,0,0
 137 1484 l 1,0,0
 487.34 1484 l 1,0,0
 487.34 227 l 2,0,0
 487.34 162 487.34 162 509.34 100 c 0,0,0
 531.34 38 531.34 38 567.34 0 c 1,0,0
 199 0 l 1,0,0
EndSplineSet
EndChar

StartChar: uni0197
Encoding: 407 407 343
Width: 569
GlyphClass: 2
Flags: W
LayerCount: 2
Fore
SplineSet
107.49 0 m 1,0,0
 107.49 550.09 l 1,0,0
 -3.4 550.09 l 1,0,0
 -3.4 836.38 l 1,0,0
 107.49 836.38 l 1,0,0
 107.49 1484 l 1,0,0
 456.16 1484 l 1,0,0
 456.16 836.38 l 1,0,0
 568.38 836.38 l 1,0,0
 568.38 550.09 l 1,0,0
 456.16 550.09 l 1,0,0
 456.16 0 l 1,0,0
 107.49 0 l 1,0,0
EndSplineSet
EndChar

StartChar: uni0198
Encoding: 408 408 344
Width: 1554
GlyphClass: 2
Flags: W
LayerCount: 2
Fore
SplineSet
480.91 496.58 m 1,0,0
 480.91 0 l 1,0,0
 116.23 0 l 1,0,0
 116.23 1409 l 1,0,0
 480.91 1409 l 1,0,0
 480.91 814.89 l 1,0,0
 917.78 1250.72 l 2,0,0
 997.85 1329.45 997.85 1329.45 1057.37 1368.435 c 0,0,0
 1116.89 1407.42 1116.89 1407.42 1176.23 1420.385 c 0,0,0
 1235.57 1433.35 1235.57 1433.35 1309.92 1433.35 c 0,0,0
 1362.3 1433.35 1362.3 1433.35 1402.49 1425.675 c 0,0,0
 1442.68 1418 1442.68 1418 1469.33 1410 c 1,0,0
 1469.33 1153.15 l 1,0,0
 1442.66 1155.47 1442.66 1155.47 1420.005 1159.135 c 0,0,0
 1397.35 1162.8 1397.35 1162.8 1375.35 1162.8 c 0,0,0
 1331.05 1162.8 1331.05 1162.8 1284.05 1152.355 c 0,0,0
 1237.05 1141.91 1237.05 1141.91 1196.44 1104.31 c 2,0,0
 906.82 823.72 l 1,0,0
 1538.39 0 l 1,0,0
 1116.02 0 l 1,0,0
 648.21 624.89 l 1,0,0
 480.91 496.58 l 1,0,0
EndSplineSet
EndChar

StartChar: uni0199
Encoding: 409 409 345
Width: 1216
GlyphClass: 2
Flags: W
LayerCount: 2
Fore
SplineSet
846.06 0 m 1,0,0
 608.65 487.32 l 1,0,0
 495.02 420.07 l 1,0,0
 495.02 0 l 1,0,0
 146.35 0 l 1,0,0
 146.35 1203.67 l 2,0,0
 146.35 1338.32 146.35 1338.32 241.555 1413.985 c 0,0,0
 336.76 1489.65 336.76 1489.65 500.14 1489.65 c 0,0,0
 612.9 1489.65 612.9 1489.65 715.64 1471.31 c 1,0,0
 715.64 1246.19 l 1,0,0
 702.33 1248.51 702.33 1248.51 659.135 1251.34 c 0,0,0
 615.94 1254.17 615.94 1254.17 602.98 1254.17 c 0,0,0
 495.02 1254.17 495.02 1254.17 495.02 1117.86 c 2,0,0
 495.02 685.59 l 1,0,0
 821.39 1082 l 1,0,0
 1184.36 1082 l 1,0,0
 843.89 688.81 l 1,0,0
 1217.38 0 l 1,0,0
 846.06 0 l 1,0,0
EndSplineSet
EndChar

StartChar: uni019A
Encoding: 410 410 346
Width: 645
GlyphClass: 2
Flags: W
LayerCount: 2
Fore
SplineSet
150.37 0 m 1,0,0
 150.37 616.89 l 1,0,0
 20 616.89 l 1,0,0
 20 834.71 l 1,0,0
 150.37 834.71 l 1,0,0
 150.37 1484 l 1,0,0
 499.04 1484 l 1,0,0
 499.04 834.71 l 1,0,0
 634.76 834.71 l 1,0,0
 634.76 616.89 l 1,0,0
 499.04 616.89 l 1,0,0
 499.04 0 l 1,0,0
 150.37 0 l 1,0,0
EndSplineSet
EndChar

StartChar: uni019B
Encoding: 411 411 347
Width: 1216
GlyphClass: 2
Flags: W
LayerCount: 2
Fore
SplineSet
-20.37 1124.83 m 1,0,0
 327.95 1280.67 l 1,0,0
 239.92 1484 l 1,0,0
 618.99 1484 l 1,0,0
 644.6 1422.17 l 1,0,0
 841.68 1514.24 l 1,0,0
 934.44 1305.06 l 1,0,0
 728.68 1210.32 l 1,0,0
 1209.74 0 l 1,0,0
 846.06 0 l 1,0,0
 588.43 805.04 l 1,0,0
 388.04 0 l 1,0,0
 17.34 0 l 1,0,0
 397.87 1138.67 l 1,0,0
 418.38 1070.49 l 1,0,0
 72.39 914.98 l 1,0,0
 -20.37 1124.83 l 1,0,0
EndSplineSet
EndChar

StartChar: uni019C
Encoding: 412 412 348
Width: 2169
GlyphClass: 2
Flags: W
LayerCount: 2
Fore
SplineSet
1272.21 1409 m 1,0,0
 1272.21 489.4 l 2,0,0
 1272.21 351.45 1272.21 351.45 1320.54 289.985 c 0,0,0
 1368.87 228.52 1368.87 228.52 1457.81 228.52 c 0,0,0
 1558.43 228.52 1558.43 228.52 1622.935 320.375 c 0,0,0
 1687.44 412.23 1687.44 412.23 1687.44 533.15 c 2,0,0
 1687.44 1409 l 1,0,0
 2054.13 1409 l 1,0,0
 2054.13 0 l 1,0,0
 1696.45 0 l 1,0,0
 1679.09 197.81 l 1,0,0
 1673.08 197.81 l 1,0,0
 1604.02 76.04 1604.02 76.04 1501.955 28.02 c 0,0,0
 1399.89 -20 1399.89 -20 1275.16 -20 c 0,0,0
 992.01 -20 992.01 -20 918.38 203.78 c 1,0,0
 840.01 75.69 840.01 75.69 740.64 27.845 c 0,0,0
 641.27 -20 641.27 -20 479.15 -20 c 0,0,0
 314.9 -20 314.9 -20 218.915 77.115 c 0,0,0
 122.93 174.23 122.93 174.23 122.93 345.08 c 2,0,0
 122.93 1409 l 1,0,0
 489.62 1409 l 1,0,0
 489.62 467.96 l 2,0,0
 489.62 341.07 489.62 341.07 538.28 284.795 c 0,0,0
 586.94 228.52 586.94 228.52 666.17 228.52 c 0,0,0
 763.46 228.52 763.46 228.52 834.49 315.54 c 0,0,0
 905.52 402.56 905.52 402.56 905.52 523.5 c 2,0,0
 905.52 1409 l 1,0,0
 1272.21 1409 l 1,0,0
EndSplineSet
EndChar

StartChar: uni019D
Encoding: 413 413 349
Width: 1479
GlyphClass: 2
Flags: W
LayerCount: 2
Fore
SplineSet
439.87 0.26 m 2,0,0
 439.87 -235.59 439.87 -235.59 365.69 -330.295 c 0,0,0
 291.51 -425 291.51 -425 99.72 -425 c 0,0,0
 27.38 -425 27.38 -425 -94.76 -398.97 c 1,0,0
 -94.76 -123.41 l 1,0,0
 -16.36 -135.74 -16.36 -135.74 -3.11 -135.74 c 0,0,0
 66.58 -135.74 66.58 -135.74 91.74 -97.575 c 0,0,0
 116.9 -59.41 116.9 -59.41 116.9 19.59 c 2,0,0
 116.23 1409 l 1,0,0
 530.28 1409 l 1,0,0
 1060.15 391.38 l 1,0,0
 1038.13 513.23 1038.13 513.23 1038.13 660.35 c 2,0,0
 1038.13 1409 l 1,0,0
 1360.43 1409 l 1,0,0
 1360.43 0 l 1,0,0
 936.71 0 l 1,0,0
 416.51 1007.95 l 1,0,0
 430.2 920.24 430.2 920.24 435.035 858.415 c 0,0,0
 439.87 796.59 439.87 796.59 439.87 760.65 c 2,0,0
 439.87 0.26 l 2,0,0
EndSplineSet
EndChar

StartChar: uni019E
Encoding: 414 414 350
Width: 1326
GlyphClass: 2
Flags: W
LayerCount: 2
Fore
SplineSet
1203.06 664.22 m 2,0,0
 1203.06 -422.66 l 1,0,0
 856.73 -422.66 l 1,0,0
 856.73 554.07 l 2,0,0
 856.73 693.05 856.73 693.05 806.72 768.74 c 0,0,0
 756.71 844.43 756.71 844.43 683.83 844.43 c 0,0,0
 600.59 844.43 600.59 844.43 546.465 757.935 c 0,0,0
 492.34 671.44 492.34 671.44 492.34 548.51 c 2,0,0
 492.34 0 l 1,0,0
 143.67 0 l 1,0,0
 143.67 832.63 l 2,0,0
 143.67 884.21 143.67 884.21 141.335 946.72 c 0,0,0
 139 1009.23 139 1009.23 134.33 1082 c 1,0,0
 467.99 1082 l 1,0,0
 470.66 1063.97 470.66 1063.97 475 1002.72 c 0,0,0
 479.34 941.47 479.34 941.47 482.175 890.28 c 0,0,0
 485.01 839.09 485.01 839.09 484.34 846.9 c 1,0,0
 489.01 846.9 l 1,0,0
 542.66 978.94 542.66 978.94 631.675 1041.305 c 0,0,0
 720.69 1103.67 720.69 1103.67 838.35 1103.67 c 0,0,0
 1006.33 1103.67 1006.33 1103.67 1104.695 985.945 c 0,0,0
 1203.06 868.22 1203.06 868.22 1203.06 664.22 c 2,0,0
EndSplineSet
EndChar

StartChar: Ohorn
Encoding: 416 416 352
Width: 1740
GlyphClass: 2
Flags: W
LayerCount: 2
Fore
SplineSet
1515.04 711 m 0,0,0
 1515.04 491 1515.04 491 1426.03 324 c 0,0,0
 1337.69 156.33 1337.69 156.33 1173.01 68.165 c 0,0,0
 1008.33 -20 1008.33 -20 791.66 -20 c 0,0,0
 567.31 -20 567.31 -20 406.635 67.16 c 0,0,0
 245.96 154.32 245.96 154.32 160.625 318.32 c 0,0,0
 75.29 482.32 75.29 482.32 75.29 711 c 0,0,0
 75.29 937 75.29 937 160.46 1098.335 c 0,0,0
 245.63 1259.67 245.63 1259.67 407.14 1344.835 c 0,0,0
 568.65 1430 568.65 1430 793.66 1430 c 0,0,0
 1086.09 1430 1086.09 1430 1275.47 1283.255 c 0,0,0
 1464.85 1136.51 1464.85 1136.51 1508.46 865.36 c 1,0,0
 1553.04 889.32 1553.04 889.32 1580.86 946.495 c 0,0,0
 1608.68 1003.67 1608.68 1003.67 1608.68 1086.69 c 1,0,0
 1458.89 1086.69 l 1,0,0
 1458.89 1409 l 1,0,0
 1767.45 1409 l 1,0,0
 1767.45 1129.32 l 2,0,0
 1767.45 944.53 1767.45 944.53 1705.775 835.495 c 0,0,0
 1644.1 726.46 1644.1 726.46 1525.78 693.85 c 1,0,0
 1518.74 695.96 1518.74 695.96 1516.89 700.415 c 0,0,0
 1515.04 704.87 1515.04 704.87 1515.04 711 c 0,0,0
1143.02 711 m 0,0,0
 1143.02 915.55 1143.02 915.55 1050.765 1031.315 c 0,0,0
 958.51 1147.08 958.51 1147.08 793.66 1147.08 c 0,0,0
 625.14 1147.08 625.14 1147.08 533.22 1031.645 c 0,0,0
 441.3 916.21 441.3 916.21 441.3 711 c 0,0,0
 441.3 571.74 441.3 571.74 484.6 471.465 c 0,0,0
 527.9 371.19 527.9 371.19 606.665 317.39 c 0,0,0
 685.43 263.59 685.43 263.59 791.66 263.59 c 0,0,0
 958.84 263.59 958.84 263.59 1050.93 379.855 c 0,0,0
 1143.02 496.12 1143.02 496.12 1143.02 711 c 0,0,0
EndSplineSet
EndChar

StartChar: ohorn
Encoding: 417 417 353
Width: 1531
GlyphClass: 2
Flags: W
LayerCount: 2
Fore
SplineSet
1243.05 347.47 m 1,0,0
 1212.64 251.74 1212.64 251.74 1133.26 167.85 c 0,0,0
 1053.88 83.96 1053.88 83.96 933.195 31.98 c 0,0,0
 812.51 -20 812.51 -20 658.52 -20 c 0,0,0
 394.8 -20 394.8 -20 235.39 133.685 c 0,0,0
 75.98 287.37 75.98 287.37 75.98 542 c 0,0,0
 75.98 790.27 75.98 790.27 235.055 946.135 c 0,0,0
 394.13 1102 394.13 1102 664.52 1102 c 0,0,0
 947.66 1102 947.66 1102 1102.24 947.725 c 0,0,0
 1256.82 793.45 1256.82 793.45 1255.76 509.95 c 1,0,0
 1413.14 558.25 1413.14 558.25 1413.14 755.67 c 1,0,0
 1263.35 755.67 l 1,0,0
 1263.35 1077.98 l 1,0,0
 1571.91 1077.98 l 1,0,0
 1571.91 798.3 l 2,0,0
 1571.91 599.16 1571.91 599.16 1495.21 488.965 c 0,0,0
 1418.51 378.77 1418.51 378.77 1243.05 347.47 c 1,0,0
885.71 542 m 0,0,0
 885.71 714.23 885.71 714.23 825.055 791.515 c 0,0,0
 764.4 868.8 764.4 868.8 669.19 868.8 c 0,0,0
 561.29 868.8 561.29 868.8 501.645 785.34 c 0,0,0
 442 701.88 442 701.88 442 542 c 0,0,0
 442 383.11 442 383.11 499.81 297.32 c 0,0,0
 557.62 211.53 557.62 211.53 654.85 211.53 c 0,0,0
 766.75 211.53 766.75 211.53 826.23 294.655 c 0,0,0
 885.71 377.78 885.71 377.78 885.71 542 c 0,0,0
EndSplineSet
EndChar

StartChar: uni01A2
Encoding: 418 418 354
Width: 1841
GlyphClass: 2
Flags: W
LayerCount: 2
Fore
SplineSet
1351.84 -425.67 m 1,0,0
 1351.84 1154.2 l 1,0,0
 1182.62 1152.86 l 1,0,0
 1182.62 81.66 l 1,0,0
 1138.75 43.02 1138.75 43.02 1008.18 11.51 c 0,0,0
 877.61 -20 877.61 -20 770.3 -20 c 0,0,0
 542.27 -20 542.27 -20 387.27 65.16 c 0,0,0
 232.27 150.32 232.27 150.32 153.78 312.65 c 0,0,0
 75.29 474.98 75.29 474.98 75.29 711 c 0,0,0
 75.29 950.37 75.29 950.37 153.95 1109.7 c 0,0,0
 232.61 1269.03 232.61 1269.03 389.615 1349.515 c 0,0,0
 546.62 1430 546.62 1430 777.31 1430 c 0,0,0
 997.76 1430 997.76 1430 1141.64 1338.96 c 1,0,0
 1609.08 1426.34 l 1,0,0
 1702.18 1426.34 l 1,0,0
 1702.18 -425.67 l 1,0,0
 1351.84 -425.67 l 1,0,0
832.28 1161.2 m 1,0,0
 798.41 1155.43 798.41 1155.43 787.33 1155.43 c 0,0,0
 613.12 1155.43 613.12 1155.43 527.21 1045.51 c 0,0,0
 441.3 935.59 441.3 935.59 441.3 711 c 0,0,0
 441.3 558.38 441.3 558.38 480.425 457.27 c 0,0,0
 519.55 356.16 519.55 356.16 599.655 305.7 c 0,0,0
 679.76 255.24 679.76 255.24 800.36 255.24 c 0,0,0
 808.43 255.24 808.43 255.24 832.28 247.8 c 1,0,0
 832.28 1161.2 l 1,0,0
EndSplineSet
EndChar

StartChar: uni01A3
Encoding: 419 419 355
Width: 1627
GlyphClass: 2
Flags: W
LayerCount: 2
Fore
SplineSet
1485.53 1108.03 m 1,0,0
 1485.53 -425 l 1,0,0
 1180.27 -425 l 1,0,0
 1180.27 849.53 l 1,0,0
 1026.34 849.53 l 1,0,0
 1026.34 69.68 l 1,0,0
 957.65 25.67 957.65 25.67 856.935 2.835 c 0,0,0
 756.22 -20 756.22 -20 641.82 -20 c 0,0,0
 384.78 -20 384.78 -20 230.38 131.18 c 0,0,0
 75.98 282.36 75.98 282.36 75.98 542 c 0,0,0
 75.98 795.28 75.98 795.28 227.54 948.64 c 0,0,0
 379.1 1102 379.1 1102 647.82 1102 c 0,0,0
 751.53 1102 751.53 1102 837.72 1079.665 c 0,0,0
 923.91 1057.33 923.91 1057.33 1006.64 1004.62 c 1,0,0
 1385.75 1108.03 l 1,0,0
 1485.53 1108.03 l 1,0,0
711.39 216.83 m 1,0,0
 712.06 865.5 l 1,0,0
 693.13 868.8 693.13 868.8 657.5 868.8 c 0,0,0
 547.93 868.8 547.93 868.8 495.8 789.515 c 0,0,0
 443.67 710.23 443.67 710.23 443.67 542 c 0,0,0
 443.67 381.44 443.67 381.44 496.47 296.485 c 0,0,0
 549.27 211.53 549.27 211.53 643.16 211.53 c 0,0,0
 677.43 211.53 677.43 211.53 711.39 216.83 c 1,0,0
EndSplineSet
EndChar

StartChar: uni01A4
Encoding: 420 420 356
Width: 1638
GlyphClass: 2
Flags: W
LayerCount: 2
Fore
SplineSet
1057.25 1409 m 2,0,0
 1320.97 1409 1320.97 1409 1461.825 1288.815 c 0,0,0
 1602.68 1168.63 1602.68 1168.63 1602.68 948.26 c 0,0,0
 1602.68 806.91 1602.68 806.91 1537 697.22 c 0,0,0
 1471.32 587.53 1471.32 587.53 1351.965 524.01 c 0,0,0
 1232.61 460.49 1232.61 460.49 1069.25 460.49 c 2,0,0
 762.13 460.49 l 1,0,0
 762.13 0 l 1,0,0
 397.45 0 l 1,0,0
 397.45 1150.78 l 1,0,0
 365.43 1150.78 l 2,0,0
 305.13 1150.78 305.13 1150.78 272.13 1127.635 c 0,0,0
 239.13 1104.49 239.13 1104.49 239.13 1060.21 c 0,0,0
 239.13 1004.53 239.13 1004.53 278.84 906.78 c 1,0,0
 25.31 889.78 l 1,0,0
 -13.4 1014.21 -13.4 1014.21 -13.4 1135 c 0,0,0
 -13.4 1259.99 -13.4 1259.99 81.785 1334.495 c 0,0,0
 176.97 1409 176.97 1409 325.96 1409 c 2,0,0
 1057.25 1409 l 2,0,0
1235.33 941.25 m 0,0,0
 1235.33 1129.08 1235.33 1129.08 1017.55 1129.08 c 2,0,0
 762.13 1129.08 l 1,0,0
 762.13 738.41 l 1,0,0
 1025.55 738.41 l 2,0,0
 1122.09 738.41 1122.09 738.41 1178.71 792.21 c 0,0,0
 1235.33 846.01 1235.33 846.01 1235.33 941.25 c 0,0,0
EndSplineSet
EndChar

StartChar: uni01A5
Encoding: 421 421 357
Width: 1326
GlyphClass: 2
Flags: W
LayerCount: 2
Fore
SplineSet
1243.38 546 m 0,0,0
 1243.38 283.04 1243.38 283.04 1128.85 131.52 c 0,0,0
 1014.32 -20 1014.32 -20 816.99 -20 c 0,0,0
 707.02 -20 707.02 -20 620.515 33.68 c 0,0,0
 534.01 87.36 534.01 87.36 494.35 174.68 c 1,0,0
 487.68 174.68 l 1,0,0
 495.02 129.27 495.02 129.27 495.02 -15.36 c 2,0,0
 495.02 -425 l 1,0,0
 146.35 -425 l 1,0,0
 146.35 1203.67 l 2,0,0
 146.35 1335.31 146.35 1335.31 243.565 1412.48 c 0,0,0
 340.78 1489.65 340.78 1489.65 505.49 1489.65 c 0,0,0
 569.23 1489.65 569.23 1489.65 652.34 1481.305 c 0,0,0
 735.45 1472.96 735.45 1472.96 742.37 1471.98 c 1,0,0
 742.37 1230.83 l 1,0,0
 731.07 1232.48 731.07 1232.48 687.875 1234.975 c 0,0,0
 644.68 1237.47 644.68 1237.47 629.71 1237.47 c 0,0,0
 489.68 1237.47 489.68 1237.47 489.68 1114.52 c 2,0,0
 489.68 899.65 l 1,0,0
 493.68 899.65 l 1,0,0
 540.01 999.65 540.01 999.65 632.37 1051.16 c 0,0,0
 724.73 1102.67 724.73 1102.67 847.05 1102.67 c 0,0,0
 1027.01 1102.67 1027.01 1102.67 1135.195 951.135 c 0,0,0
 1243.38 799.6 1243.38 799.6 1243.38 546 c 0,0,0
880.7 548.68 m 0,0,0
 880.7 701.2 880.7 701.2 828.885 788.18 c 0,0,0
 777.07 875.16 777.07 875.16 679.14 875.16 c 0,0,0
 593.94 875.16 593.94 875.16 541.14 780.175 c 0,0,0
 488.34 685.19 488.34 685.19 488.34 544.7 c 0,0,0
 488.34 395.16 488.34 395.16 541.31 303.345 c 0,0,0
 594.28 211.53 594.28 211.53 677.14 211.53 c 0,0,0
 776.07 211.53 776.07 211.53 828.385 301.68 c 0,0,0
 880.7 391.83 880.7 391.83 880.7 548.68 c 0,0,0
EndSplineSet
EndChar

StartChar: uni01A6
Encoding: 422 422 358
Width: 1366
GlyphClass: 2
Flags: W
LayerCount: 2
Fore
SplineSet
979.44 391.21 m 1,0,0
 1333.64 -337.37 l 1,0,0
 948.31 -337.37 l 1,0,0
 656.5 310.76 l 1,0,0
 480.91 310.76 l 1,0,0
 480.91 0 l 1,0,0
 116.23 0 l 1,0,0
 116.23 1409 l 1,0,0
 483.59 1409 l 1,0,0
 483.59 1218.26 l 1,0,0
 722.9 1218.26 l 2,0,0
 984.28 1218.26 984.28 1218.26 1126.305 1108.42 c 0,0,0
 1268.33 998.58 1268.33 998.58 1268.33 786.87 c 0,0,0
 1268.33 644.9 1268.33 644.9 1189.355 537.065 c 0,0,0
 1110.38 429.23 1110.38 429.23 979.44 391.21 c 1,0,0
900.98 768.17 m 0,0,0
 900.98 854.43 900.98 854.43 848.375 896.385 c 0,0,0
 795.77 938.34 795.77 938.34 683.86 938.34 c 2,0,0
 480.91 938.34 l 1,0,0
 480.91 592.02 l 1,0,0
 691.86 592.02 l 2,0,0
 797.77 592.02 797.77 592.02 849.375 638.305 c 0,0,0
 900.98 684.59 900.98 684.59 900.98 768.17 c 0,0,0
EndSplineSet
EndChar

StartChar: uni01A7
Encoding: 423 423 359
Width: 1366
GlyphClass: 2
Flags: W
LayerCount: 2
Fore
SplineSet
67.94 422.08 m 0,0,0
 67.94 567.19 67.94 567.19 124.825 646.71 c 0,0,0
 181.71 726.23 181.71 726.23 268.43 766.54 c 0,0,0
 356.82 807.52 356.82 807.52 450.985 824.145 c 0,0,0
 545.15 840.77 545.15 840.77 605.96 858.08 c 0,0,0
 786.33 899.1 786.33 899.1 826.93 919.08 c 0,0,0
 868.86 938.39 868.86 938.39 889.655 967.86 c 0,0,0
 910.45 997.33 910.45 997.33 910.45 1046.3 c 0,0,0
 910.45 1177.45 910.45 1177.45 690.69 1177.45 c 0,0,0
 584.12 1177.45 584.12 1177.45 531.36 1140.495 c 0,0,0
 478.6 1103.54 478.6 1103.54 462.63 1038 c 1,0,0
 110.97 1081.02 l 1,0,0
 140.26 1267.01 140.26 1267.01 278.45 1348.505 c 0,0,0
 416.64 1430 416.64 1430 693.7 1430 c 0,0,0
 973.41 1430 973.41 1430 1119.265 1328.66 c 0,0,0
 1265.12 1227.32 1265.12 1227.32 1265.12 1024.61 c 0,0,0
 1265.12 945.94 1265.12 945.94 1248.47 889.11 c 0,0,0
 1231.82 832.28 1231.82 832.28 1203.19 790.28 c 0,0,0
 1158.48 733.21 1158.48 733.21 1095.585 695.005 c 0,0,0
 1032.69 656.8 1032.69 656.8 953.28 629.78 c 0,0,0
 927.31 622.8 927.31 622.8 882.855 610.145 c 0,0,0
 838.4 597.49 838.4 597.49 775.46 582.5 c 0,0,0
 778.32 582.54 778.32 582.54 764.26 581.41 c 0,0,0
 750.2 580.28 750.2 580.28 716.88 578.98 c 0,0,0
 567.41 557.01 567.41 557.01 494.005 513.025 c 0,0,0
 420.6 469.04 420.6 469.04 420.6 400.39 c 0,0,0
 420.6 249.24 420.6 249.24 686.05 249.24 c 0,0,0
 776 249.24 776 249.24 835.95 267.22 c 0,0,0
 895.9 285.2 895.9 285.2 930.02 316.79 c 0,0,0
 964.14 348.38 964.14 348.38 975.77 389.21 c 1,0,0
 1327.77 335.51 l 1,0,0
 1290.8 164.62 1290.8 164.62 1127.44 72.31 c 0,0,0
 964.08 -20 964.08 -20 681.36 -20 c 0,0,0
 374.3 -20 374.3 -20 221.12 92.685 c 0,0,0
 67.94 205.37 67.94 205.37 67.94 422.08 c 0,0,0
EndSplineSet
EndChar

StartChar: uni01A8
Encoding: 424 424 360
Width: 1216
GlyphClass: 2
Flags: W
LayerCount: 2
Fore
SplineSet
87.35 327.39 m 0,0,0
 87.35 446.15 87.35 446.15 144.58 520.025 c 0,0,0
 201.81 593.9 201.81 593.9 310.93 636.57 c 0,0,0
 349.24 644.17 349.24 644.17 421.51 662.14 c 0,0,0
 493.78 680.11 493.78 680.11 638.53 708.12 c 0,0,0
 714.79 720.76 714.79 720.76 745.085 741.39 c 0,0,0
 775.38 762.02 775.38 762.02 775.38 798.97 c 0,0,0
 775.38 849.59 775.38 849.59 727.725 867.05 c 0,0,0
 680.07 884.51 680.07 884.51 584.76 884.51 c 0,0,0
 488.79 884.51 488.79 884.51 453.85 858.21 c 0,0,0
 418.91 831.91 418.91 831.91 412.27 787.68 c 1,0,0
 104.98 817.7 l 1,0,0
 132.64 952 132.64 952 261.855 1028.84 c 0,0,0
 391.07 1105.68 391.07 1105.68 594.11 1105.68 c 0,0,0
 833.89 1105.68 833.89 1105.68 961.44 1015.155 c 0,0,0
 1088.99 924.63 1088.99 924.63 1088.99 760.93 c 0,0,0
 1088.99 654.88 1088.99 654.88 1036.62 582.845 c 0,0,0
 984.25 510.81 984.25 510.81 885.86 470.81 c 0,0,0
 862.22 463.17 862.22 463.17 829.11 452.855 c 0,0,0
 796 442.54 796 442.54 740.855 429.715 c 0,0,0
 685.71 416.89 685.71 416.89 593.63 401.89 c 0,0,0
 490.64 387.59 490.64 387.59 445.8 362.115 c 0,0,0
 400.96 336.64 400.96 336.64 400.96 293.35 c 0,0,0
 400.96 241.08 400.96 241.08 451.105 219.955 c 0,0,0
 501.25 198.83 501.25 198.83 614.9 198.83 c 0,0,0
 743.91 198.83 743.91 198.83 779.495 216.595 c 0,0,0
 815.08 234.36 815.08 234.36 830.72 294.94 c 1,0,0
 1136.68 253.92 l 1,0,0
 1098.68 111.95 1098.68 111.95 976.335 45.975 c 0,0,0
 853.99 -20 853.99 -20 608.22 -20 c 0,0,0
 364.12 -20 364.12 -20 225.735 71.85 c 0,0,0
 87.35 163.7 87.35 163.7 87.35 327.39 c 0,0,0
EndSplineSet
EndChar

StartChar: uni01AA
Encoding: 426 426 362
Width: 708
GlyphClass: 2
Flags: W
LayerCount: 2
Fore
SplineSet
-4.81 1275.28 m 0,0,0
 -4.81 1371.96 -4.81 1371.96 63.215 1429.975 c 0,0,0
 131.24 1487.99 131.24 1487.99 246.95 1487.99 c 0,0,0
 436.06 1487.99 436.06 1487.99 531.285 1376.92 c 0,0,0
 626.51 1265.85 626.51 1265.85 626.51 1040.34 c 2,0,0
 626.51 -30.48 l 2,0,0
 626.51 -170.14 626.51 -170.14 746.85 -170.14 c 0,0,0
 760.49 -170.14 760.49 -170.14 807.03 -166.305 c 0,0,0
 853.57 -162.47 853.57 -162.47 866.21 -158.81 c 1,0,0
 866.21 -405.32 l 1,0,0
 793.53 -425 793.53 -425 652.05 -425 c 0,0,0
 463.93 -425 463.93 -425 373.39 -338.48 c 0,0,0
 282.85 -251.96 282.85 -251.96 282.85 -73.89 c 2,0,0
 282.85 1076.19 l 1,0,0
 256.16 1065.19 256.16 1065.19 236.515 1062.035 c 0,0,0
 216.87 1058.88 216.87 1058.88 191.54 1058.88 c 0,0,0
 99.19 1058.88 99.19 1058.88 47.19 1117.895 c 0,0,0
 -4.81 1176.91 -4.81 1176.91 -4.81 1275.28 c 0,0,0
144 1271.93 m 0,0,0
 144 1237.96 144 1237.96 166.485 1218.815 c 0,0,0
 188.97 1199.67 188.97 1199.67 216.93 1199.67 c 0,0,0
 244.22 1199.67 244.22 1199.67 265.87 1218.815 c 0,0,0
 287.52 1237.96 287.52 1237.96 287.52 1271.93 c 0,0,0
 287.52 1306.57 287.52 1306.57 265.535 1325.715 c 0,0,0
 243.55 1344.86 243.55 1344.86 216.93 1344.86 c 0,0,0
 188.97 1344.86 188.97 1344.86 166.485 1325.715 c 0,0,0
 144 1306.57 144 1306.57 144 1271.93 c 0,0,0
EndSplineSet
EndChar

StartChar: uni01AB
Encoding: 427 427 363
Width: 757
GlyphClass: 2
Flags: W
LayerCount: 2
Fore
SplineSet
726.01 -107.93 m 2,0,0
 726.01 -252.27 726.01 -252.27 641.3 -338.635 c 0,0,0
 556.59 -425 556.59 -425 381.16 -425 c 0,0,0
 302.8 -425 302.8 -425 192.72 -402.99 c 1,0,0
 192.72 -174.52 l 1,0,0
 275.44 -187.51 275.44 -187.51 305.4 -187.51 c 0,0,0
 426.08 -187.51 426.08 -187.51 426.08 -43.83 c 2,0,0
 426.08 -19.34 l 1,0,0
 312.44 -13.66 312.44 -13.66 239.23 57.525 c 0,0,0
 166.02 128.71 166.02 128.71 166.02 270.75 c 2,0,0
 166.02 852.47 l 1,0,0
 20.98 852.47 l 1,0,0
 20.98 1082 l 1,0,0
 184.71 1082 l 1,0,0
 296.16 1344.04 l 1,0,0
 509.68 1344.04 l 1,0,0
 509.68 1082 l 1,0,0
 718.03 1082 l 1,0,0
 718.03 852.47 l 1,0,0
 509.68 852.47 l 1,0,0
 509.68 371.54 l 2,0,0
 509.68 291.87 509.68 291.87 542.695 250.35 c 0,0,0
 575.71 208.83 575.71 208.83 638.71 208.83 c 0,0,0
 666.03 208.83 666.03 208.83 726.01 222.83 c 1,0,0
 726.01 -107.93 l 2,0,0
EndSplineSet
EndChar

StartChar: uni01AC
Encoding: 428 428 364
Width: 1251
GlyphClass: 2
Flags: W
LayerCount: 2
Fore
SplineSet
808.51 1132.76 m 1,0,0
 808.51 0 l 1,0,0
 443.16 0 l 1,0,0
 443.16 1132.76 l 1,0,0
 365.43 1132.76 l 2,0,0
 305.13 1132.76 305.13 1132.76 272.13 1112.78 c 0,0,0
 239.13 1092.8 239.13 1092.8 239.13 1060.21 c 0,0,0
 239.13 1004.53 239.13 1004.53 278.84 906.78 c 1,0,0
 25.31 889.78 l 1,0,0
 -13.4 1014.21 -13.4 1014.21 -13.4 1135 c 0,0,0
 -13.4 1255.64 -13.4 1255.64 74.12 1332.32 c 0,0,0
 161.64 1409 161.64 1409 307.63 1409 c 2,0,0
 1245.75 1409 l 1,0,0
 1245.75 1132.76 l 1,0,0
 808.51 1132.76 l 1,0,0
EndSplineSet
EndChar

StartChar: uni01AD
Encoding: 429 429 365
Width: 757
GlyphClass: 2
Flags: W
LayerCount: 2
Fore
SplineSet
726.01 21.36 m 1,0,0
 614.63 -19.34 614.63 -19.34 452.16 -19.34 c 0,0,0
 317.44 -19.34 317.44 -19.34 241.73 52.18 c 0,0,0
 166.02 123.7 166.02 123.7 166.02 270.75 c 2,0,0
 166.02 852.47 l 1,0,0
 20.98 852.47 l 1,0,0
 20.98 1082 l 1,0,0
 156.32 1082 l 1,0,0
 156.32 1210.37 l 2,0,0
 156.32 1338.99 156.32 1338.99 255.545 1414.32 c 0,0,0
 354.77 1489.65 354.77 1489.65 522.17 1489.65 c 0,0,0
 636.27 1489.65 636.27 1489.65 745.71 1470.64 c 1,0,0
 745.71 1247.53 l 1,0,0
 734.41 1249.18 734.41 1249.18 688.87 1251.675 c 0,0,0
 643.33 1254.17 643.33 1254.17 623.67 1254.17 c 0,0,0
 564.01 1254.17 564.01 1254.17 536.845 1220.175 c 0,0,0
 509.68 1186.18 509.68 1186.18 509.68 1117.86 c 2,0,0
 509.68 1082 l 1,0,0
 718.03 1082 l 1,0,0
 718.03 852.47 l 1,0,0
 509.68 852.47 l 1,0,0
 509.68 371.54 l 2,0,0
 509.68 291.87 509.68 291.87 542.695 250.35 c 0,0,0
 575.71 208.83 575.71 208.83 638.71 208.83 c 0,0,0
 666.03 208.83 666.03 208.83 726.01 222.83 c 1,0,0
 726.01 21.36 l 1,0,0
EndSplineSet
EndChar

StartChar: uni01AE
Encoding: 430 430 366
Width: 1251
GlyphClass: 2
Flags: W
LayerCount: 2
Fore
SplineSet
1023.52 -402.99 m 1,0,0
 915.45 -425 915.45 -425 836.41 -425 c 0,0,0
 633.93 -425 633.93 -425 538.545 -317.6 c 0,0,0
 443.16 -210.2 443.16 -210.2 443.16 34.35 c 2,0,0
 443.16 1132.76 l 1,0,0
 7.59 1132.76 l 1,0,0
 7.59 1409 l 1,0,0
 1245.75 1409 l 1,0,0
 1245.75 1132.76 l 1,0,0
 808.51 1132.76 l 1,0,0
 808.51 2.89 l 2,0,0
 808.51 -74.77 808.51 -74.77 837.52 -113.605 c 0,0,0
 866.53 -152.44 866.53 -152.44 938.57 -152.44 c 0,0,0
 947.13 -152.44 947.13 -152.44 1023.52 -141.45 c 1,0,0
 1023.52 -402.99 l 1,0,0
EndSplineSet
EndChar

StartChar: Uhorn
Encoding: 431 431 367
Width: 1665
GlyphClass: 2
Flags: W
LayerCount: 2
Fore
SplineSet
704.28 -20 m 0,0,0
 498.88 -20 498.88 -20 364.87 41.495 c 0,0,0
 230.86 102.99 230.86 102.99 165.205 227.835 c 0,0,0
 99.55 352.68 99.55 352.68 99.55 538.72 c 2,0,0
 99.55 1409 l 1,0,0
 464.23 1409 l 1,0,0
 464.23 566.41 l 2,0,0
 464.23 411.82 464.23 411.82 526.325 336.87 c 0,0,0
 588.42 261.92 588.42 261.92 718.31 261.92 c 0,0,0
 853.2 261.92 853.2 261.92 919.455 343.71 c 0,0,0
 985.71 425.5 985.71 425.5 985.71 574.4 c 2,0,0
 985.71 1409 l 1,0,0
 1351.06 1409 l 1,0,0
 1351.06 823.97 l 1,0,0
 1448.68 830.6 1448.68 830.6 1506.18 901.125 c 0,0,0
 1563.68 971.65 1563.68 971.65 1563.68 1086.69 c 1,0,0
 1413.89 1086.69 l 1,0,0
 1413.89 1409 l 1,0,0
 1722.45 1409 l 1,0,0
 1722.45 1129.32 l 2,0,0
 1722.45 923.9 1722.45 923.9 1635.445 806.365 c 0,0,0
 1548.44 688.83 1548.44 688.83 1351.06 657.82 c 1,0,0
 1351.06 551.71 l 2,0,0
 1351.06 367.35 1351.06 367.35 1276.89 239.34 c 0,0,0
 1202.72 111.33 1202.72 111.33 1059.365 45.665 c 0,0,0
 916.01 -20 916.01 -20 704.28 -20 c 0,0,0
EndSplineSet
EndChar

StartChar: uhorn
Encoding: 432 432 368
Width: 1558
GlyphClass: 2
Flags: W
LayerCount: 2
Fore
SplineSet
837.03 235.1 m 1,0,0
 790.06 113.08 790.06 113.08 699.375 46.54 c 0,0,0
 608.69 -20 608.69 -20 487.69 -20 c 0,0,0
 319.71 -20 319.71 -20 221.345 97.725 c 0,0,0
 122.98 215.45 122.98 215.45 122.98 417.78 c 2,0,0
 122.98 1082 l 1,0,0
 470.98 1082 l 1,0,0
 470.98 527.93 l 2,0,0
 470.98 385.93 470.98 385.93 520.99 311.75 c 0,0,0
 571 237.57 571 237.57 642.21 237.57 c 0,0,0
 725.45 237.57 725.45 237.57 779.575 324.065 c 0,0,0
 833.7 410.56 833.7 410.56 833.7 533.49 c 2,0,0
 833.7 1082 l 1,0,0
 1182.37 1082 l 1,0,0
 1182.37 489.31 l 1,0,0
 1289.02 485.9 1289.02 485.9 1365.25 564.78 c 0,0,0
 1441.48 643.66 1441.48 643.66 1441.48 759.69 c 1,0,0
 1291.69 759.69 l 1,0,0
 1291.69 1082 l 1,0,0
 1600.25 1082 l 1,0,0
 1600.25 802.32 l 2,0,0
 1600.25 581.53 1600.25 581.53 1493.18 464.155 c 0,0,0
 1386.11 346.78 1386.11 346.78 1182.37 334.85 c 1,0,0
 1182.37 249.37 l 2,0,0
 1182.37 167.06 1182.37 167.06 1185.54 113.235 c 0,0,0
 1188.71 59.41 1188.71 59.41 1191.71 0 c 1,0,0
 858.05 0 l 1,0,0
 854.71 25.71 854.71 25.71 850.705 78.945 c 0,0,0
 846.7 132.18 846.7 132.18 845.2 180.03 c 0,0,0
 843.7 227.88 843.7 227.88 843.37 235.1 c 1,0,0
 837.03 235.1 l 1,0,0
EndSplineSet
EndChar

StartChar: uni01B1
Encoding: 433 433 369
Width: 1716
GlyphClass: 2
Flags: W
LayerCount: 2
Fore
SplineSet
858.52 -22.67 m 0,0,0
 648.17 -22.67 648.17 -22.67 486.805 52.83 c 0,0,0
 325.44 128.33 325.44 128.33 235.25 263.485 c 0,0,0
 145.06 398.64 145.06 398.64 145.06 576.27 c 0,0,0
 145.06 780.61 145.06 780.61 247.55 913.87 c 0,0,0
 350.04 1047.13 350.04 1047.13 579.08 1142.09 c 1,0,0
 523.79 1137.09 523.79 1137.09 480.14 1134.09 c 0,0,0
 436.49 1131.09 436.49 1131.09 404.48 1131.09 c 2,0,0
 117.06 1131.09 l 1,0,0
 117.06 1407.33 l 1,0,0
 807.93 1407.33 l 1,0,0
 807.93 1041.38 l 1,0,0
 655.65 971.43 655.65 971.43 581.355 879.03 c 0,0,0
 507.06 786.63 507.06 786.63 507.06 642.71 c 0,0,0
 507.06 464.15 507.06 464.15 602.68 362.2 c 0,0,0
 698.3 260.25 698.3 260.25 860.86 260.25 c 0,0,0
 1022.08 260.25 1022.08 260.25 1118.535 362.2 c 0,0,0
 1214.99 464.15 1214.99 464.15 1214.99 642.71 c 0,0,0
 1214.99 783.96 1214.99 783.96 1142.865 878.03 c 0,0,0
 1070.74 972.1 1070.74 972.1 919.13 1041.38 c 1,0,0
 919.13 1407.33 l 1,0,0
 1599.98 1407.33 l 1,0,0
 1599.98 1131.09 l 1,0,0
 1315.9 1131.09 l 2,0,0
 1285.56 1131.09 1285.56 1131.09 1242.745 1134.09 c 0,0,0
 1199.93 1137.09 1199.93 1137.09 1144.64 1142.09 c 1,0,0
 1367.67 1045.79 1367.67 1045.79 1469.825 913.7 c 0,0,0
 1571.98 781.61 1571.98 781.61 1571.98 577.94 c 0,0,0
 1571.98 403.65 1571.98 403.65 1481.79 267.66 c 0,0,0
 1391.6 131.67 1391.6 131.67 1230.235 54.5 c 0,0,0
 1068.87 -22.67 1068.87 -22.67 858.52 -22.67 c 0,0,0
EndSplineSet
EndChar

StartChar: uni01B2
Encoding: 434 434 370
Width: 1479
GlyphClass: 2
Flags: W
LayerCount: 2
Fore
SplineSet
669.6 -20 m 0,0,0
 383.86 -20 383.86 -20 241.705 115.645 c 0,0,0
 99.55 251.29 99.55 251.29 99.55 518.62 c 2,0,0
 99.55 1409 l 1,0,0
 464.23 1409 l 1,0,0
 464.23 546.31 l 2,0,0
 464.23 404.76 464.23 404.76 510.63 333.34 c 0,0,0
 557.03 261.92 557.03 261.92 658.88 261.92 c 0,0,0
 796.22 261.92 796.22 261.92 871.355 323.865 c 0,0,0
 946.49 385.81 946.49 385.81 975.455 531.74 c 0,0,0
 1004.42 677.67 1004.42 677.67 1004.42 928.96 c 0,0,0
 1004.42 1039.51 1004.42 1039.51 957.905 1099.82 c 0,0,0
 911.39 1160.13 911.39 1160.13 818.72 1160.13 c 0,0,0
 782.77 1160.13 782.77 1160.13 705.71 1145.12 c 1,0,0
 710.4 1407.33 l 1,0,0
 818.48 1432.69 818.48 1432.69 1000.69 1432.69 c 0,0,0
 1178.39 1432.69 1178.39 1432.69 1273.245 1304.825 c 0,0,0
 1368.1 1176.96 1368.1 1176.96 1368.1 933.24 c 0,0,0
 1368.1 385.9 1368.1 385.9 1137.44 115.44 c 0,0,0
 946.66 -20 946.66 -20 669.6 -20 c 0,0,0
EndSplineSet
EndChar

StartChar: uni01B3
Encoding: 435 435 371
Width: 1573
GlyphClass: 2
Flags: W
LayerCount: 2
Fore
SplineSet
678.65 863.25 m 1,0,0
 853.32 1222.25 l 2,0,0
 909.99 1331.63 909.99 1331.63 974.165 1383.83 c 0,0,0
 1038.34 1436.03 1038.34 1436.03 1127.36 1436.03 c 0,0,0
 1219.09 1436.03 1219.09 1436.03 1298.95 1397.665 c 0,0,0
 1378.81 1359.3 1378.81 1359.3 1456.18 1284.92 c 1,0,0
 1330.43 1067.09 l 1,0,0
 1289.4 1102.78 1289.4 1102.78 1267.45 1113.59 c 0,0,0
 1245.5 1124.4 1245.5 1124.4 1221.86 1124.4 c 0,0,0
 1184.19 1124.4 1184.19 1124.4 1158.02 1100.715 c 0,0,0
 1131.85 1077.03 1131.85 1077.03 1108.2 1035.71 c 2,0,0
 867.18 573.98 l 1,0,0
 867.18 0 l 1,0,0
 503.5 0 l 1,0,0
 503.5 573.98 l 1,0,0
 28.3 1409 l 1,0,0
 400.95 1409 l 1,0,0
 678.65 863.25 l 1,0,0
EndSplineSet
EndChar

StartChar: uni01B4
Encoding: 436 436 372
Width: 1216
GlyphClass: 2
Flags: W
LayerCount: 2
Fore
SplineSet
344.64 -425 m 0,0,0
 220.87 -425 220.87 -425 132.13 -410.66 c 1,0,0
 132.13 -167.11 l 1,0,0
 200.19 -176.45 200.19 -176.45 237.84 -176.45 c 0,0,0
 328.52 -176.45 328.52 -176.45 365.795 -148.35 c 0,0,0
 403.07 -120.25 403.07 -120.25 432.03 -36.33 c 2,0,0
 450.7 15.02 l 1,0,0
 23.37 1082 l 1,0,0
 390.72 1082 l 1,0,0
 521.86 635.97 l 2,0,0
 529.2 614.28 529.2 614.28 542.865 566.435 c 0,0,0
 556.53 518.59 556.53 518.59 572.36 460.91 c 0,0,0
 588.19 403.23 588.19 403.23 602.19 351.375 c 0,0,0
 616.19 299.52 616.19 299.52 624.87 271.15 c 1,0,0
 728.27 690.26 l 1,0,0
 879.31 1213.93 l 2,0,0
 924.65 1365.99 924.65 1365.99 1006.855 1429.83 c 0,0,0
 1089.06 1493.67 1089.06 1493.67 1181.67 1493.67 c 0,0,0
 1303.32 1493.67 1303.32 1493.67 1433.03 1432.4 c 1,0,0
 1329.32 1190.84 l 1,0,0
 1283.03 1209.42 1283.03 1209.42 1239.42 1209.42 c 0,0,0
 1198.77 1209.42 1198.77 1209.42 1180.64 1183.27 c 0,0,0
 1162.51 1157.12 1162.51 1157.12 1153.21 1124.19 c 2,0,0
 764.32 -95.19 l 2,0,0
 727.37 -219.12 727.37 -219.12 670.545 -291.245 c 0,0,0
 613.72 -363.37 613.72 -363.37 532.865 -394.185 c 0,0,0
 452.01 -425 452.01 -425 344.64 -425 c 0,0,0
EndSplineSet
EndChar

StartChar: uni01B5
Encoding: 437 437 373
Width: 1251
GlyphClass: 2
Flags: W
LayerCount: 2
Fore
SplineSet
1195.35 281.25 m 1,0,0
 1195.35 0 l 1,0,0
 58.32 0 l 1,0,0
 58.32 253.22 l 1,0,0
 342.39 609.19 l 1,0,0
 45.3 609.19 l 1,0,0
 45.3 849.07 l 1,0,0
 532.23 849.07 l 1,0,0
 756 1127.75 l 1,0,0
 136.33 1127.75 l 1,0,0
 136.33 1409 l 1,0,0
 1158.37 1409 l 1,0,0
 1158.37 1159.78 l 1,0,0
 910.91 849.07 l 1,0,0
 1136.23 849.07 l 1,0,0
 1136.23 609.19 l 1,0,0
 721.07 609.19 l 1,0,0
 460.69 281.25 l 1,0,0
 1195.35 281.25 l 1,0,0
EndSplineSet
EndChar

StartChar: uni01B6
Encoding: 438 438 374
Width: 1024
GlyphClass: 2
Flags: W
LayerCount: 2
Fore
SplineSet
978.39 249.22 m 1,0,0
 978.39 0 l 1,0,0
 80.73 0 l 1,0,0
 80.73 240.54 l 1,0,0
 247.83 437.24 l 1,0,0
 75.39 437.24 l 1,0,0
 75.39 643.72 l 1,0,0
 391.9 643.72 l 1,0,0
 539.66 836.12 l 1,0,0
 122.4 836.12 l 1,0,0
 122.4 1082 l 1,0,0
 921.35 1082 l 1,0,0
 921.35 838.12 l 1,0,0
 763.24 643.72 l 1,0,0
 919.27 643.72 l 1,0,0
 919.27 437.24 l 1,0,0
 610.82 437.24 l 1,0,0
 468.1 249.22 l 1,0,0
 978.39 249.22 l 1,0,0
EndSplineSet
EndChar

StartChar: uni01B7
Encoding: 439 439 375
Width: 1251
GlyphClass: 2
Flags: W
LayerCount: 2
Fore
SplineSet
579.6 -439.36 m 0,0,0
 359.91 -439.36 359.91 -439.36 221.41 -343 c 0,0,0
 82.91 -246.64 82.91 -246.64 13.27 -46.27 c 1,0,0
 335.59 74.16 l 1,0,0
 386.24 -53.49 386.24 -53.49 438.645 -102.62 c 0,0,0
 491.05 -151.75 491.05 -151.75 569.26 -151.75 c 0,0,0
 693.48 -151.75 693.48 -151.75 757.235 -68.485 c 0,0,0
 820.99 14.78 820.99 14.78 820.99 177.68 c 0,0,0
 820.99 317.53 820.99 317.53 738.25 389.275 c 0,0,0
 655.51 461.02 655.51 461.02 485.66 461.02 c 2,0,0
 319.47 461.02 l 1,0,0
 319.47 752.32 l 1,0,0
 680.86 1127.75 l 1,0,0
 67.91 1127.75 l 1,0,0
 67.91 1409 l 1,0,0
 1139.35 1409 l 1,0,0
 1139.35 1174.52 l 1,0,0
 686.12 722.93 l 1,0,0
 912.7 714.95 912.7 714.95 1045.18 572.13 c 0,0,0
 1177.66 429.31 1177.66 429.31 1177.66 196.05 c 0,0,0
 1177.66 1.34 1177.66 1.34 1106.66 -144.01 c 0,0,0
 1034.66 -288.36 1034.66 -288.36 898.65 -363.86 c 0,0,0
 762.64 -439.36 762.64 -439.36 579.6 -439.36 c 0,0,0
EndSplineSet
EndChar

StartChar: uni01B8
Encoding: 440 440 376
Width: 1251
GlyphClass: 2
Flags: W
LayerCount: 2
Fore
SplineSet
671.4 -439.36 m 0,0,0
 482.7 -439.36 482.7 -439.36 348.52 -365.19 c 0,0,0
 214.34 -291.02 214.34 -291.02 143.84 -155.35 c 0,0,0
 73.34 -19.68 73.34 -19.68 73.34 167.66 c 0,0,0
 73.34 335.66 73.34 335.66 136.835 460.995 c 0,0,0
 200.33 586.33 200.33 586.33 311.47 655.15 c 0,0,0
 422.61 723.97 422.61 723.97 564.88 722.93 c 1,0,0
 111.65 1174.52 l 1,0,0
 111.65 1409 l 1,0,0
 1183.09 1409 l 1,0,0
 1183.09 1127.75 l 1,0,0
 570.14 1127.75 l 1,0,0
 931.53 752.32 l 1,0,0
 931.53 461.02 l 1,0,0
 765.34 461.02 l 2,0,0
 593.15 461.02 593.15 461.02 511.58 388.94 c 0,0,0
 430.01 316.86 430.01 316.86 430.01 177.68 c 0,0,0
 430.01 67.07 430.01 67.07 456.13 -5.875 c 0,0,0
 482.25 -78.82 482.25 -78.82 538.02 -115.285 c 0,0,0
 593.79 -151.75 593.79 -151.75 681.74 -151.75 c 0,0,0
 759.95 -151.75 759.95 -151.75 813.19 -101.785 c 0,0,0
 866.43 -51.82 866.43 -51.82 915.41 74.16 c 1,0,0
 1237.73 -46.27 l 1,0,0
 1168.09 -246.64 1168.09 -246.64 1029.925 -343 c 0,0,0
 891.76 -439.36 891.76 -439.36 671.4 -439.36 c 0,0,0
EndSplineSet
EndChar

StartChar: uni01B9
Encoding: 441 441 377
Width: 1052
GlyphClass: 2
Flags: W
LayerCount: 2
Fore
SplineSet
566.32 -210.85 m 0,0,0
 618.48 -210.85 618.48 -210.85 663.585 -171.725 c 0,0,0
 708.69 -132.6 708.69 -132.6 713.33 -42.68 c 1,0,0
 1056.66 -56.35 l 1,0,0
 1031.99 -235 1031.99 -235 901.15 -336.845 c 0,0,0
 770.31 -438.69 770.31 -438.69 567 -438.69 c 0,0,0
 398.3 -438.69 398.3 -438.69 271.425 -383.545 c 0,0,0
 144.55 -328.4 144.55 -328.4 74.52 -221.745 c 0,0,0
 4.49 -115.09 4.49 -115.09 4.49 38.94 c 0,0,0
 4.49 243.63 4.49 243.63 117.5 360.945 c 0,0,0
 230.51 478.26 230.51 478.26 441.22 494.91 c 1,0,0
 80.57 874.94 l 1,0,0
 80.57 1081.33 l 1,0,0
 995.3 1081.33 l 1,0,0
 995.3 836.79 l 1,0,0
 516.06 836.79 l 1,0,0
 820.57 501.56 l 1,0,0
 820.57 282.41 l 1,0,0
 705.17 282.41 l 2,0,0
 504.08 282.41 504.08 282.41 432.46 222.975 c 0,0,0
 360.84 163.54 360.84 163.54 360.84 6.53 c 0,0,0
 360.84 -83.8 360.84 -83.8 381.475 -131.23 c 0,0,0
 402.11 -178.66 402.11 -178.66 447.4 -194.755 c 0,0,0
 492.69 -210.85 492.69 -210.85 566.32 -210.85 c 0,0,0
EndSplineSet
EndChar

StartChar: uni01BA
Encoding: 442 442 378
Width: 1052
GlyphClass: 2
Flags: W
LayerCount: 2
Fore
SplineSet
1028.28 -97.66 m 1,0,0
 998.3 -254.33 998.3 -254.33 850.44 -346.845 c 0,0,0
 702.58 -439.36 702.58 -439.36 480.89 -439.36 c 0,0,0
 420.24 -439.36 420.24 -439.36 367.43 -428.855 c 0,0,0
 314.62 -418.35 314.62 -418.35 264.96 -399.35 c 0,0,0
 165.31 -361.35 165.31 -361.35 102.45 -288.845 c 0,0,0
 39.59 -216.34 39.59 -216.34 39.59 -110.98 c 0,0,0
 39.59 -18.62 39.59 -18.62 91.61 51.41 c 0,0,0
 125.62 96.76 125.62 96.76 179.98 129.1 c 0,0,0
 234.34 161.44 234.34 161.44 320.875 187.94 c 0,0,0
 407.41 214.44 407.41 214.44 539.45 242.44 c 0,0,0
 608.91 253.71 608.91 253.71 657.23 278.68 c 0,0,0
 704.21 302.65 704.21 302.65 704.21 336.6 c 0,0,0
 704.21 425.63 704.21 425.63 597.86 437.26 c 0,0,0
 570.64 435.87 570.64 435.87 393.6 433.86 c 2,0,0
 256.09 433.19 l 1,0,0
 256.09 580.54 l 1,0,0
 523.58 836.79 l 1,0,0
 44.54 836.79 l 1,0,0
 44.54 1082 l 1,0,0
 969.32 1082 l 1,0,0
 969.32 889.52 l 1,0,0
 656.82 612.61 l 1,0,0
 884.92 612.97 884.92 612.97 975.085 547.645 c 0,0,0
 1065.25 482.32 1065.25 482.32 1065.25 329.92 c 0,0,0
 1065.25 249.59 1065.25 249.59 1017.4 186.405 c 0,0,0
 969.55 123.22 969.55 123.22 868.82 77.2 c 0,0,0
 761.74 28.84 761.74 28.84 540.32 -23.51 c 0,0,0
 437.39 -46.82 437.39 -46.82 383.71 -83.85 c 0,0,0
 374.79 -95.16 374.79 -95.16 370.5 -103.445 c 0,0,0
 366.21 -111.73 366.21 -111.73 366.21 -112.97 c 0,0,0
 366.21 -157.58 366.21 -157.58 411.16 -185.22 c 0,0,0
 456.11 -212.86 456.11 -212.86 531.99 -212.86 c 0,0,0
 603.86 -212.86 603.86 -212.86 648.78 -169.875 c 0,0,0
 693.7 -126.89 693.7 -126.89 689.96 -46.93 c 1,0,0
 1028.28 -97.66 l 1,0,0
EndSplineSet
EndChar

StartChar: uni01BB
Encoding: 443 443 379
Width: 1139
GlyphClass: 2
Flags: W
LayerCount: 2
Fore
SplineSet
1071.07 283.26 m 1,0,0
 1071.07 0 l 1,0,0
 49.56 0 l 1,0,0
 49.56 240.56 l 1,0,0
 84.22 312.86 84.22 312.86 142.23 392.54 c 0,0,0
 159.86 417.49 159.86 417.49 183.995 446.29 c 0,0,0
 208.13 475.09 208.13 475.09 231.225 502.37 c 0,0,0
 254.32 529.65 254.32 529.65 266.49 545.53 c 1,0,0
 83.32 545.53 l 1,0,0
 83.32 773.38 l 1,0,0
 530.03 773.38 l 1,0,0
 697.07 917.06 697.07 917.06 697.07 1011.28 c 0,0,0
 697.07 1087.2 697.07 1087.2 664.975 1121.14 c 0,0,0
 632.88 1155.08 632.88 1155.08 560.31 1155.08 c 0,0,0
 487.06 1155.08 487.06 1155.08 457.65 1115.96 c 0,0,0
 428.24 1076.84 428.24 1076.84 413.57 990.56 c 1,0,0
 64.24 1005.89 l 1,0,0
 90.92 1219.98 90.92 1219.98 212.75 1324.99 c 0,0,0
 334.58 1430 334.58 1430 556.97 1430 c 0,0,0
 795.02 1430 795.02 1430 922.045 1323.655 c 0,0,0
 1049.07 1217.31 1049.07 1217.31 1049.07 1027.3 c 0,0,0
 1049.07 892.32 1049.07 892.32 961.14 773.38 c 1,0,0
 1050.37 773.38 l 1,0,0
 1050.37 545.53 l 1,0,0
 730.95 545.53 l 1,0,0
 640.84 472.78 640.84 472.78 611.38 449.65 c 0,0,0
 581.92 426.52 581.92 426.52 583.855 427.77 c 0,0,0
 585.79 429.02 585.79 429.02 586.86 428.08 c 0,0,0
 537.22 382.1 537.22 382.1 509.765 345.81 c 0,0,0
 482.31 309.52 482.31 309.52 471.34 283.26 c 1,0,0
 1071.07 283.26 l 1,0,0
EndSplineSet
EndChar

StartChar: uni01BC
Encoding: 444 444 380
Width: 1139
GlyphClass: 2
Flags: W
LayerCount: 2
Fore
SplineSet
24.44 1409 m 1,0,0
 1098.57 1409 l 1,0,0
 1098.57 1132.76 l 1,0,0
 537.42 1132.76 l 1,0,0
 537.42 938.31 l 1,0,0
 545.28 938.31 l 2,0,0
 819.7 938.31 819.7 938.31 953.375 829.01 c 0,0,0
 1087.05 719.71 1087.05 719.71 1087.05 490.69 c 0,0,0
 1087.05 232.98 1087.05 232.98 955.385 106.49 c 0,0,0
 823.72 -20 823.72 -20 550.31 -20 c 0,0,0
 330.92 -20 330.92 -20 196.065 83.68 c 0,0,0
 61.21 187.36 61.21 187.36 42.24 376.73 c 1,0,0
 393.25 384.37 l 1,0,0
 403.2 323.5 403.2 323.5 445.135 290.05 c 0,0,0
 487.07 256.6 487.07 256.6 561.66 256.6 c 0,0,0
 662.9 256.6 662.9 256.6 697.14 302.345 c 0,0,0
 731.38 348.09 731.38 348.09 731.38 453.29 c 0,0,0
 731.38 554.84 731.38 554.84 689.135 602.275 c 0,0,0
 646.89 649.71 646.89 649.71 522.3 649.71 c 2,0,0
 199.78 649.71 l 1,0,0
 199.78 1132.76 l 1,0,0
 24.44 1132.76 l 1,0,0
 24.44 1409 l 1,0,0
EndSplineSet
EndChar

StartChar: uni01BD
Encoding: 445 445 381
Width: 1070
GlyphClass: 2
Flags: W
LayerCount: 2
Fore
SplineSet
16.6 1082 m 1,0,0
 916.84 1082 l 1,0,0
 916.84 836.79 l 1,0,0
 469.17 836.79 l 1,0,0
 469.17 699.69 l 1,0,0
 516.49 699.69 l 2,0,0
 764.58 699.69 764.58 699.69 882.26 610.695 c 0,0,0
 999.94 521.7 999.94 521.7 999.94 329.64 c 0,0,0
 999.94 163.32 999.94 163.32 870.39 71.66 c 0,0,0
 740.84 -20 740.84 -20 497.73 -20 c 0,0,0
 305.7 -20 305.7 -20 171.975 70.52 c 0,0,0
 38.25 161.04 38.25 161.04 -2.43 316.01 c 1,0,0
 333.56 338.03 l 1,0,0
 354.91 261.73 354.91 261.73 396.865 236.63 c 0,0,0
 438.82 211.53 438.82 211.53 524.14 211.53 c 0,0,0
 670.31 211.53 670.31 211.53 670.31 330.98 c 0,0,0
 670.31 418.28 670.31 418.28 630.21 450.74 c 0,0,0
 590.11 483.2 590.11 483.2 485.86 483.2 c 2,0,0
 166.89 483.2 l 1,0,0
 166.89 836.79 l 1,0,0
 16.6 836.79 l 1,0,0
 16.6 1082 l 1,0,0
EndSplineSet
EndChar

StartChar: uni01BE
Encoding: 446 446 382
Width: 1312
GlyphClass: 2
Flags: W
LayerCount: 2
Fore
SplineSet
168.67 852.47 m 1,0,0
 27.65 852.47 l 1,0,0
 27.65 1082 l 1,0,0
 191.38 1082 l 1,0,0
 338.34 1273.69 l 1,0,0
 512.33 1221.43 l 1,0,0
 512.33 1082 l 1,0,0
 730.73 1082 l 1,0,0
 730.73 852.47 l 1,0,0
 512.33 852.47 l 1,0,0
 512.33 795.57 l 2,0,0
 512.33 732.28 512.33 732.28 634.54 697.61 c 0,0,0
 656.55 705.36 656.55 705.36 705.4 699.56 c 0,0,0
 754.25 693.76 754.25 693.76 820.23 679.1 c 0,0,0
 858.13 672.13 858.13 672.13 903.455 660.64 c 0,0,0
 948.78 649.15 948.78 649.15 989.47 636.32 c 0,0,0
 1030.16 623.49 1030.16 623.49 1054.16 611.5 c 0,0,0
 1141.56 568.49 1141.56 568.49 1188.595 499.46 c 0,0,0
 1235.63 430.43 1235.63 430.43 1235.63 327.39 c 0,0,0
 1235.63 167.04 1235.63 167.04 1088.035 73.52 c 0,0,0
 940.44 -20 940.44 -20 701.38 -20 c 0,0,0
 464.31 -20 464.31 -20 339.78 53.18 c 0,0,0
 215.25 126.36 215.25 126.36 172.23 280.72 c 1,0,0
 478.19 321.74 l 1,0,0
 497.85 251.44 497.85 251.44 535.615 225.135 c 0,0,0
 573.38 198.83 573.38 198.83 701.38 198.83 c 0,0,0
 811.01 198.83 811.01 198.83 866.515 218.28 c 0,0,0
 922.02 237.73 922.02 237.73 922.02 293.35 c 0,0,0
 922.02 324.58 922.02 324.58 883.88 351.73 c 0,0,0
 845.74 378.88 845.74 378.88 739.06 395.19 c 0,0,0
 582.87 422.21 582.87 422.21 497.675 445.38 c 0,0,0
 412.48 468.55 412.48 468.55 372.49 485.86 c 0,0,0
 279.11 529.19 279.11 529.19 223.89 604.71 c 0,0,0
 168.67 680.23 168.67 680.23 168.67 795.94 c 2,0,0
 168.67 852.47 l 1,0,0
EndSplineSet
EndChar

StartChar: uni01BF
Encoding: 447 447 383
Width: 1326
GlyphClass: 2
Flags: W
LayerCount: 2
Fore
SplineSet
1239.71 697.48 m 0,0,0
 1239.71 550.35 1239.71 550.35 1211.19 426.92 c 0,0,0
 1182.67 303.49 1182.67 303.49 1118.95 198.75 c 0,0,0
 1030.59 49.39 1030.59 49.39 871.415 -68.13 c 0,0,0
 712.24 -185.65 712.24 -185.65 495.02 -280.64 c 1,0,0
 495.02 -424.33 l 1,0,0
 146.35 -424.33 l 1,0,0
 146.35 1082 l 1,0,0
 476.34 1082 l 1,0,0
 479.67 1073.42 479.67 1073.42 483.005 1034.095 c 0,0,0
 486.34 994.77 486.34 994.77 489.68 924.7 c 1,0,0
 493.68 924.7 l 1,0,0
 549.37 1011.68 549.37 1011.68 634.54 1059.68 c 0,0,0
 719.71 1107.68 719.71 1107.68 833.38 1107.68 c 0,0,0
 1025.37 1107.68 1025.37 1107.68 1132.54 986.015 c 0,0,0
 1239.71 864.35 1239.71 864.35 1239.71 697.48 c 0,0,0
889.39 649.05 m 0,0,0
 889.39 875.16 889.39 875.16 696.85 875.16 c 0,0,0
 605.62 875.16 605.62 875.16 550.32 797.71 c 0,0,0
 495.02 720.26 495.02 720.26 495.02 628.5 c 2,0,0
 495.02 -13.4 l 1,0,0
 681.66 100.01 681.66 100.01 782.63 244.12 c 0,0,0
 889.39 420.79 889.39 420.79 889.39 649.05 c 0,0,0
EndSplineSet
EndChar

StartChar: uni01C0
Encoding: 448 448 384
Width: 600
GlyphClass: 2
Flags: W
LayerCount: 2
Fore
SplineSet
474.57 1484 m 1,0,0
 474.57 0 l 1,0,0
 125.9 0 l 1,0,0
 125.9 1484 l 1,0,0
 474.57 1484 l 1,0,0
EndSplineSet
EndChar

StartChar: uni01C1
Encoding: 449 449 385
Width: 1134
GlyphClass: 2
Flags: W
LayerCount: 2
Fore
SplineSet
460.9 1484 m 1,0,0
 460.9 0 l 1,0,0
 170.65 0 l 1,0,0
 170.65 1484 l 1,0,0
 460.9 1484 l 1,0,0
964.26 1484 m 1,0,0
 964.26 0 l 1,0,0
 674.01 0 l 1,0,0
 674.01 1484 l 1,0,0
 964.26 1484 l 1,0,0
EndSplineSet
EndChar

StartChar: uni01C2
Encoding: 450 450 386
Width: 1197
GlyphClass: 2
Flags: W
LayerCount: 2
Fore
SplineSet
745.79 387.61 m 1,0,0
 745.79 0 l 1,0,0
 453.22 0 l 1,0,0
 453.22 387.61 l 1,0,0
 60.56 387.61 l 1,0,0
 60.56 634.13 l 1,0,0
 453.22 634.13 l 1,0,0
 453.22 871.99 l 1,0,0
 60.56 871.99 l 1,0,0
 60.56 1118.51 l 1,0,0
 453.22 1118.51 l 1,0,0
 453.22 1484 l 1,0,0
 745.79 1484 l 1,0,0
 745.79 1118.51 l 1,0,0
 1137.11 1118.51 l 1,0,0
 1137.11 871.99 l 1,0,0
 745.79 871.99 l 1,0,0
 745.79 634.13 l 1,0,0
 1137.11 634.13 l 1,0,0
 1137.11 387.61 l 1,0,0
 745.79 387.61 l 1,0,0
EndSplineSet
EndChar

StartChar: uni01DD
Encoding: 477 477 413
Width: 1139
GlyphClass: 2
Flags: W
LayerCount: 2
Fore
SplineSet
717.72 605.72 m 1,0,0
 717.72 744.96 717.72 744.96 671.615 811.725 c 0,0,0
 625.51 878.49 625.51 878.49 544.31 878.49 c 0,0,0
 499.12 878.49 499.12 878.49 467.865 856.54 c 0,0,0
 436.61 834.59 436.61 834.59 419.96 774.28 c 1,0,0
 83.27 782.54 l 1,0,0
 212 1102 212 1102 567.69 1102 c 0,0,0
 814.37 1102 814.37 1102 949.055 956.495 c 0,0,0
 1083.74 810.99 1083.74 810.99 1083.74 537.34 c 0,0,0
 1083.74 269.34 1083.74 269.34 945.715 124.67 c 0,0,0
 807.69 -20 807.69 -20 556.32 -20 c 0,0,0
 326.67 -20 326.67 -20 201.325 141.535 c 0,0,0
 75.98 303.07 75.98 303.07 75.98 608.44 c 2,0,0
 75.98 605.72 l 1,0,0
 717.72 605.72 l 1,0,0
405.6 404.26 m 1,0,0
 408.91 300.06 408.91 300.06 452.52 243.27 c 0,0,0
 496.13 186.48 496.13 186.48 560.99 186.48 c 0,0,0
 638.55 186.48 638.55 186.48 676.64 243.085 c 0,0,0
 714.73 299.69 714.73 299.69 715.72 404.26 c 1,0,0
 405.6 404.26 l 1,0,0
EndSplineSet
EndChar

